M48
;DRILL file {KiCad (2016-12-16 revision f631ae2)-makepkg} date 02/21/17 01:40:01
;FORMAT={-:-/ absolute / inch / decimal}
FMAT,2
INCH,TZ
T1C0.013
T2C0.039
T3C0.040
T4C0.043
T5C0.047
T6C0.118
T7C0.031
%
G90
G05
M72
T1
X4.25Y-3.92
X4.25Y-5.2
X4.35Y-5.2
X4.57Y-4.61
X4.57Y-4.64
X4.57Y-4.67
X4.61Y-4.61
X4.61Y-4.64
X4.61Y-4.67
X4.72Y-5.1
X4.75Y-3.855
X4.75Y-4.
X4.765Y-5.45
X4.8Y-3.65
X4.84Y-3.61
X4.865Y-5.405
X4.93Y-4.935
X4.95Y-4.125
X4.985Y-3.665
X5.Y-4.175
X5.025Y-3.575
X5.09Y-4.815
X5.105Y-4.925
X5.15Y-4.79
X5.175Y-4.275
X5.225Y-4.225
X5.3148Y-4.1852
X5.3843Y-4.1157
X5.47Y-3.905
X5.4806Y-4.212
X5.505Y-5.03
X5.525Y-3.745
X5.54Y-3.94
X5.54Y-5.405
X5.575Y-4.275
X5.58Y-3.7
X5.58Y-3.745
X5.59Y-3.445
X5.615Y-3.82
X5.625Y-3.925
X5.645Y-3.42
X5.645Y-4.35
X5.65Y-4.55
X5.8Y-4.405
X5.8184Y-3.8934
X6.02Y-3.79
X6.385Y-3.905
X6.385Y-4.6
T2
X4.25Y-4.85
X4.35Y-4.85
X5.0051Y-5.4187
X5.3201Y-5.4187
X5.675Y-4.7
X5.675Y-4.8
X5.675Y-4.9
X5.675Y-5.
X5.675Y-5.1
X5.675Y-5.2
X5.675Y-5.3
X5.675Y-5.4
X5.675Y-5.5
X5.775Y-4.7
X5.775Y-4.8
X5.775Y-4.9
X5.775Y-5.
X5.775Y-5.1
X5.775Y-5.2
X5.775Y-5.3
X5.775Y-5.4
X5.775Y-5.5
X5.875Y-4.7
X5.875Y-4.8
X5.875Y-4.9
X5.875Y-5.
X5.875Y-5.1
X5.875Y-5.2
X5.875Y-5.3
X5.875Y-5.4
X5.875Y-5.5
X5.975Y-4.7
X5.975Y-4.8
X5.975Y-4.9
X5.975Y-5.
X5.975Y-5.1
X5.975Y-5.2
X5.975Y-5.3
X5.975Y-5.4
X5.975Y-5.5
X6.075Y-4.7
X6.075Y-4.8
X6.075Y-4.9
X6.075Y-5.
X6.075Y-5.1
X6.075Y-5.2
X6.075Y-5.3
X6.075Y-5.4
X6.075Y-5.5
X6.175Y-4.7
X6.175Y-4.8
X6.175Y-4.9
X6.175Y-5.
X6.175Y-5.1
X6.175Y-5.2
X6.175Y-5.3
X6.175Y-5.4
X6.175Y-5.5
X6.275Y-4.7
X6.275Y-4.8
X6.275Y-4.9
X6.275Y-5.
X6.275Y-5.1
X6.275Y-5.2
X6.275Y-5.3
X6.275Y-5.4
X6.275Y-5.5
X6.35Y-3.225
X6.35Y-3.325
X6.35Y-3.425
X6.35Y-3.525
X6.35Y-3.625
X6.35Y-3.725
X6.375Y-4.7
X6.375Y-4.8
X6.375Y-4.9
X6.375Y-5.
X6.375Y-5.1
X6.375Y-5.2
X6.375Y-5.3
X6.375Y-5.4
X6.375Y-5.5
X6.475Y-4.7
X6.475Y-4.8
X6.475Y-4.9
X6.475Y-5.
X6.475Y-5.1
X6.475Y-5.2
X6.475Y-5.3
X6.475Y-5.4
X6.475Y-5.5
X6.575Y-4.7
X6.575Y-4.8
X6.575Y-4.9
X6.575Y-5.
X6.575Y-5.1
X6.575Y-5.2
X6.575Y-5.3
X6.575Y-5.4
X6.575Y-5.5
T3
X4.975Y-4.025
X5.075Y-4.025
X5.175Y-4.025
X5.275Y-4.025
X5.375Y-4.025
X5.475Y-4.025
X5.725Y-3.65
X5.725Y-3.75
X5.725Y-3.85
X5.725Y-3.95
X5.725Y-4.05
X5.725Y-4.15
X5.725Y-4.25
X5.725Y-4.35
X5.725Y-4.45
X5.725Y-4.55
X5.875Y-3.95
X5.875Y-4.05
X5.875Y-4.15
X5.875Y-4.25
X5.875Y-4.35
X5.875Y-4.45
X5.875Y-4.55
X5.975Y-3.95
X5.975Y-4.05
X5.975Y-4.15
X5.975Y-4.25
X5.975Y-4.35
X5.975Y-4.45
X5.975Y-4.55
T4
X4.2941Y-3.1478
X4.2941Y-3.325
X4.55Y-3.1478
X4.55Y-3.325
X5.8941Y-3.15
X5.8941Y-3.3272
X6.15Y-3.15
X6.15Y-3.3272
T5
X4.29Y-5.46
T6
X4.3388Y-3.65
X4.4569Y-3.835
X4.575Y-3.65
T7
X4.2877Y-5.0701
X4.2877Y-5.2276
T0
M30
