G04 #@! TF.GenerationSoftware,KiCad,Pcbnew,(2016-12-16 revision f631ae2)-makepkg*
G04 #@! TF.CreationDate,2017-02-21T16:59:48-05:00*
G04 #@! TF.ProjectId,orc-esp1,6F72632D657370312E6B696361645F70,1*
G04 #@! TF.FileFunction,Legend,Bot*
G04 #@! TF.FilePolarity,Positive*
%FSLAX46Y46*%
G04 Gerber Fmt 4.6, Leading zero omitted, Abs format (unit mm)*
G04 Created by KiCad (PCBNEW (2016-12-16 revision f631ae2)-makepkg) date 02/21/17 16:59:48*
%MOMM*%
%LPD*%
G01*
G04 APERTURE LIST*
%ADD10C,0.100000*%
%ADD11C,0.250000*%
%ADD12C,0.010000*%
G04 APERTURE END LIST*
D10*
D11*
X141702928Y-113241000D02*
X141760071Y-113183857D01*
X141874357Y-113012428D01*
X141931500Y-112898142D01*
X141988642Y-112726714D01*
X142045785Y-112441000D01*
X142045785Y-112212428D01*
X141988642Y-111926714D01*
X141931500Y-111755285D01*
X141874357Y-111641000D01*
X141760071Y-111469571D01*
X141702928Y-111412428D01*
X140560071Y-112669571D02*
X140617214Y-112726714D01*
X140788642Y-112783857D01*
X140902928Y-112783857D01*
X141074357Y-112726714D01*
X141188642Y-112612428D01*
X141245785Y-112498142D01*
X141302928Y-112269571D01*
X141302928Y-112098142D01*
X141245785Y-111869571D01*
X141188642Y-111755285D01*
X141074357Y-111641000D01*
X140902928Y-111583857D01*
X140788642Y-111583857D01*
X140617214Y-111641000D01*
X140560071Y-111698142D01*
X140160071Y-113241000D02*
X140102928Y-113183857D01*
X139988642Y-113012428D01*
X139931500Y-112898142D01*
X139874357Y-112726714D01*
X139817214Y-112441000D01*
X139817214Y-112212428D01*
X139874357Y-111926714D01*
X139931500Y-111755285D01*
X139988642Y-111641000D01*
X140102928Y-111469571D01*
X140160071Y-111412428D01*
X139302928Y-111698142D02*
X139245785Y-111641000D01*
X139131500Y-111583857D01*
X138845785Y-111583857D01*
X138731500Y-111641000D01*
X138674357Y-111698142D01*
X138617214Y-111812428D01*
X138617214Y-111926714D01*
X138674357Y-112098142D01*
X139360071Y-112783857D01*
X138617214Y-112783857D01*
X137874357Y-111583857D02*
X137760071Y-111583857D01*
X137645785Y-111641000D01*
X137588642Y-111698142D01*
X137531500Y-111812428D01*
X137474357Y-112041000D01*
X137474357Y-112326714D01*
X137531500Y-112555285D01*
X137588642Y-112669571D01*
X137645785Y-112726714D01*
X137760071Y-112783857D01*
X137874357Y-112783857D01*
X137988642Y-112726714D01*
X138045785Y-112669571D01*
X138102928Y-112555285D01*
X138160071Y-112326714D01*
X138160071Y-112041000D01*
X138102928Y-111812428D01*
X138045785Y-111698142D01*
X137988642Y-111641000D01*
X137874357Y-111583857D01*
X136331500Y-112783857D02*
X137017214Y-112783857D01*
X136674357Y-112783857D02*
X136674357Y-111583857D01*
X136788642Y-111755285D01*
X136902928Y-111869571D01*
X137017214Y-111926714D01*
X135931500Y-111583857D02*
X135131500Y-111583857D01*
X135645785Y-112783857D01*
X133531500Y-111583857D02*
X133302928Y-111583857D01*
X133188642Y-111641000D01*
X133074357Y-111755285D01*
X133017214Y-111983857D01*
X133017214Y-112383857D01*
X133074357Y-112612428D01*
X133188642Y-112726714D01*
X133302928Y-112783857D01*
X133531500Y-112783857D01*
X133645785Y-112726714D01*
X133760071Y-112612428D01*
X133817214Y-112383857D01*
X133817214Y-111983857D01*
X133760071Y-111755285D01*
X133645785Y-111641000D01*
X133531500Y-111583857D01*
X132502928Y-111983857D02*
X132502928Y-113183857D01*
X132502928Y-112041000D02*
X132388642Y-111983857D01*
X132160071Y-111983857D01*
X132045785Y-112041000D01*
X131988642Y-112098142D01*
X131931500Y-112212428D01*
X131931500Y-112555285D01*
X131988642Y-112669571D01*
X132045785Y-112726714D01*
X132160071Y-112783857D01*
X132388642Y-112783857D01*
X132502928Y-112726714D01*
X130960071Y-112726714D02*
X131074357Y-112783857D01*
X131302928Y-112783857D01*
X131417214Y-112726714D01*
X131474357Y-112612428D01*
X131474357Y-112155285D01*
X131417214Y-112041000D01*
X131302928Y-111983857D01*
X131074357Y-111983857D01*
X130960071Y-112041000D01*
X130902928Y-112155285D01*
X130902928Y-112269571D01*
X131474357Y-112383857D01*
X130388642Y-111983857D02*
X130388642Y-112783857D01*
X130388642Y-112098142D02*
X130331500Y-112041000D01*
X130217214Y-111983857D01*
X130045785Y-111983857D01*
X129931500Y-112041000D01*
X129874357Y-112155285D01*
X129874357Y-112783857D01*
X127702928Y-112783857D02*
X128102928Y-112212428D01*
X128388642Y-112783857D02*
X128388642Y-111583857D01*
X127931500Y-111583857D01*
X127817214Y-111641000D01*
X127760071Y-111698142D01*
X127702928Y-111812428D01*
X127702928Y-111983857D01*
X127760071Y-112098142D01*
X127817214Y-112155285D01*
X127931500Y-112212428D01*
X128388642Y-112212428D01*
X127017214Y-112783857D02*
X127131500Y-112726714D01*
X127188642Y-112669571D01*
X127245785Y-112555285D01*
X127245785Y-112212428D01*
X127188642Y-112098142D01*
X127131500Y-112041000D01*
X127017214Y-111983857D01*
X126845785Y-111983857D01*
X126731500Y-112041000D01*
X126674357Y-112098142D01*
X126617214Y-112212428D01*
X126617214Y-112555285D01*
X126674357Y-112669571D01*
X126731500Y-112726714D01*
X126845785Y-112783857D01*
X127017214Y-112783857D01*
X126102928Y-112783857D02*
X126102928Y-111583857D01*
X126102928Y-112041000D02*
X125988642Y-111983857D01*
X125760071Y-111983857D01*
X125645785Y-112041000D01*
X125588642Y-112098142D01*
X125531500Y-112212428D01*
X125531500Y-112555285D01*
X125588642Y-112669571D01*
X125645785Y-112726714D01*
X125760071Y-112783857D01*
X125988642Y-112783857D01*
X126102928Y-112726714D01*
X124845785Y-112783857D02*
X124960071Y-112726714D01*
X125017214Y-112669571D01*
X125074357Y-112555285D01*
X125074357Y-112212428D01*
X125017214Y-112098142D01*
X124960071Y-112041000D01*
X124845785Y-111983857D01*
X124674357Y-111983857D01*
X124560071Y-112041000D01*
X124502928Y-112098142D01*
X124445785Y-112212428D01*
X124445785Y-112555285D01*
X124502928Y-112669571D01*
X124560071Y-112726714D01*
X124674357Y-112783857D01*
X124845785Y-112783857D01*
X124102928Y-111983857D02*
X123645785Y-111983857D01*
X123931500Y-111583857D02*
X123931500Y-112612428D01*
X123874357Y-112726714D01*
X123760071Y-112783857D01*
X123645785Y-112783857D01*
X123245785Y-112783857D02*
X123245785Y-111983857D01*
X123245785Y-111583857D02*
X123302928Y-111641000D01*
X123245785Y-111698142D01*
X123188642Y-111641000D01*
X123245785Y-111583857D01*
X123245785Y-111698142D01*
X122160071Y-112726714D02*
X122274357Y-112783857D01*
X122502928Y-112783857D01*
X122617214Y-112726714D01*
X122674357Y-112669571D01*
X122731500Y-112555285D01*
X122731500Y-112212428D01*
X122674357Y-112098142D01*
X122617214Y-112041000D01*
X122502928Y-111983857D01*
X122274357Y-111983857D01*
X122160071Y-112041000D01*
X121702928Y-112726714D02*
X121588642Y-112783857D01*
X121360071Y-112783857D01*
X121245785Y-112726714D01*
X121188642Y-112612428D01*
X121188642Y-112555285D01*
X121245785Y-112441000D01*
X121360071Y-112383857D01*
X121531500Y-112383857D01*
X121645785Y-112326714D01*
X121702928Y-112212428D01*
X121702928Y-112155285D01*
X121645785Y-112041000D01*
X121531500Y-111983857D01*
X121360071Y-111983857D01*
X121245785Y-112041000D01*
X119074357Y-112669571D02*
X119131500Y-112726714D01*
X119302928Y-112783857D01*
X119417214Y-112783857D01*
X119588642Y-112726714D01*
X119702928Y-112612428D01*
X119760071Y-112498142D01*
X119817214Y-112269571D01*
X119817214Y-112098142D01*
X119760071Y-111869571D01*
X119702928Y-111755285D01*
X119588642Y-111641000D01*
X119417214Y-111583857D01*
X119302928Y-111583857D01*
X119131500Y-111641000D01*
X119074357Y-111698142D01*
X118388642Y-112783857D02*
X118502928Y-112726714D01*
X118560071Y-112669571D01*
X118617214Y-112555285D01*
X118617214Y-112212428D01*
X118560071Y-112098142D01*
X118502928Y-112041000D01*
X118388642Y-111983857D01*
X118217214Y-111983857D01*
X118102928Y-112041000D01*
X118045785Y-112098142D01*
X117988642Y-112212428D01*
X117988642Y-112555285D01*
X118045785Y-112669571D01*
X118102928Y-112726714D01*
X118217214Y-112783857D01*
X118388642Y-112783857D01*
X117474357Y-112783857D02*
X117474357Y-111983857D01*
X117474357Y-112098142D02*
X117417214Y-112041000D01*
X117302928Y-111983857D01*
X117131500Y-111983857D01*
X117017214Y-112041000D01*
X116960071Y-112155285D01*
X116960071Y-112783857D01*
X116960071Y-112155285D02*
X116902928Y-112041000D01*
X116788642Y-111983857D01*
X116617214Y-111983857D01*
X116502928Y-112041000D01*
X116445785Y-112155285D01*
X116445785Y-112783857D01*
X115874357Y-111983857D02*
X115874357Y-113183857D01*
X115874357Y-112041000D02*
X115760071Y-111983857D01*
X115531500Y-111983857D01*
X115417214Y-112041000D01*
X115360071Y-112098142D01*
X115302928Y-112212428D01*
X115302928Y-112555285D01*
X115360071Y-112669571D01*
X115417214Y-112726714D01*
X115531500Y-112783857D01*
X115760071Y-112783857D01*
X115874357Y-112726714D01*
X114274357Y-112783857D02*
X114274357Y-112155285D01*
X114331500Y-112041000D01*
X114445785Y-111983857D01*
X114674357Y-111983857D01*
X114788642Y-112041000D01*
X114274357Y-112726714D02*
X114388642Y-112783857D01*
X114674357Y-112783857D01*
X114788642Y-112726714D01*
X114845785Y-112612428D01*
X114845785Y-112498142D01*
X114788642Y-112383857D01*
X114674357Y-112326714D01*
X114388642Y-112326714D01*
X114274357Y-112269571D01*
X113702928Y-111983857D02*
X113702928Y-112783857D01*
X113702928Y-112098142D02*
X113645785Y-112041000D01*
X113531500Y-111983857D01*
X113360071Y-111983857D01*
X113245785Y-112041000D01*
X113188642Y-112155285D01*
X113188642Y-112783857D01*
X112731500Y-111983857D02*
X112445785Y-112783857D01*
X112160071Y-111983857D02*
X112445785Y-112783857D01*
X112560071Y-113069571D01*
X112617214Y-113126714D01*
X112731500Y-113183857D01*
X110217214Y-112783857D02*
X110788642Y-112783857D01*
X110788642Y-111583857D01*
X109245785Y-112783857D02*
X109817214Y-112783857D01*
X109817214Y-111583857D01*
X108160071Y-112669571D02*
X108217214Y-112726714D01*
X108388642Y-112783857D01*
X108502928Y-112783857D01*
X108674357Y-112726714D01*
X108788642Y-112612428D01*
X108845785Y-112498142D01*
X108902928Y-112269571D01*
X108902928Y-112098142D01*
X108845785Y-111869571D01*
X108788642Y-111755285D01*
X108674357Y-111641000D01*
X108502928Y-111583857D01*
X108388642Y-111583857D01*
X108217214Y-111641000D01*
X108160071Y-111698142D01*
X142045785Y-114833857D02*
X142045785Y-113633857D01*
X141531500Y-114833857D02*
X141531500Y-114205285D01*
X141588642Y-114091000D01*
X141702928Y-114033857D01*
X141874357Y-114033857D01*
X141988642Y-114091000D01*
X142045785Y-114148142D01*
X141131500Y-114033857D02*
X140674357Y-114033857D01*
X140960071Y-113633857D02*
X140960071Y-114662428D01*
X140902928Y-114776714D01*
X140788642Y-114833857D01*
X140674357Y-114833857D01*
X140445785Y-114033857D02*
X139988642Y-114033857D01*
X140274357Y-113633857D02*
X140274357Y-114662428D01*
X140217214Y-114776714D01*
X140102928Y-114833857D01*
X139988642Y-114833857D01*
X139588642Y-114033857D02*
X139588642Y-115233857D01*
X139588642Y-114091000D02*
X139474357Y-114033857D01*
X139245785Y-114033857D01*
X139131500Y-114091000D01*
X139074357Y-114148142D01*
X139017214Y-114262428D01*
X139017214Y-114605285D01*
X139074357Y-114719571D01*
X139131500Y-114776714D01*
X139245785Y-114833857D01*
X139474357Y-114833857D01*
X139588642Y-114776714D01*
X138560071Y-114776714D02*
X138445785Y-114833857D01*
X138217214Y-114833857D01*
X138102928Y-114776714D01*
X138045785Y-114662428D01*
X138045785Y-114605285D01*
X138102928Y-114491000D01*
X138217214Y-114433857D01*
X138388642Y-114433857D01*
X138502928Y-114376714D01*
X138560071Y-114262428D01*
X138560071Y-114205285D01*
X138502928Y-114091000D01*
X138388642Y-114033857D01*
X138217214Y-114033857D01*
X138102928Y-114091000D01*
X137531500Y-114719571D02*
X137474357Y-114776714D01*
X137531500Y-114833857D01*
X137588642Y-114776714D01*
X137531500Y-114719571D01*
X137531500Y-114833857D01*
X137531500Y-114091000D02*
X137474357Y-114148142D01*
X137531500Y-114205285D01*
X137588642Y-114148142D01*
X137531500Y-114091000D01*
X137531500Y-114205285D01*
X136102928Y-113576714D02*
X137131500Y-115119571D01*
X134845785Y-113576714D02*
X135874357Y-115119571D01*
X134274357Y-114833857D02*
X134388642Y-114776714D01*
X134445785Y-114719571D01*
X134502928Y-114605285D01*
X134502928Y-114262428D01*
X134445785Y-114148142D01*
X134388642Y-114091000D01*
X134274357Y-114033857D01*
X134102928Y-114033857D01*
X133988642Y-114091000D01*
X133931500Y-114148142D01*
X133874357Y-114262428D01*
X133874357Y-114605285D01*
X133931500Y-114719571D01*
X133988642Y-114776714D01*
X134102928Y-114833857D01*
X134274357Y-114833857D01*
X133360071Y-114033857D02*
X133360071Y-115233857D01*
X133360071Y-114091000D02*
X133245785Y-114033857D01*
X133017214Y-114033857D01*
X132902928Y-114091000D01*
X132845785Y-114148142D01*
X132788642Y-114262428D01*
X132788642Y-114605285D01*
X132845785Y-114719571D01*
X132902928Y-114776714D01*
X133017214Y-114833857D01*
X133245785Y-114833857D01*
X133360071Y-114776714D01*
X131817214Y-114776714D02*
X131931500Y-114833857D01*
X132160071Y-114833857D01*
X132274357Y-114776714D01*
X132331500Y-114662428D01*
X132331500Y-114205285D01*
X132274357Y-114091000D01*
X132160071Y-114033857D01*
X131931500Y-114033857D01*
X131817214Y-114091000D01*
X131760071Y-114205285D01*
X131760071Y-114319571D01*
X132331500Y-114433857D01*
X131245785Y-114033857D02*
X131245785Y-114833857D01*
X131245785Y-114148142D02*
X131188642Y-114091000D01*
X131074357Y-114033857D01*
X130902928Y-114033857D01*
X130788642Y-114091000D01*
X130731500Y-114205285D01*
X130731500Y-114833857D01*
X130160071Y-114833857D02*
X130160071Y-114033857D01*
X130160071Y-114262428D02*
X130102928Y-114148142D01*
X130045785Y-114091000D01*
X129931500Y-114033857D01*
X129817214Y-114033857D01*
X129245785Y-114833857D02*
X129360071Y-114776714D01*
X129417214Y-114719571D01*
X129474357Y-114605285D01*
X129474357Y-114262428D01*
X129417214Y-114148142D01*
X129360071Y-114091000D01*
X129245785Y-114033857D01*
X129074357Y-114033857D01*
X128960071Y-114091000D01*
X128902928Y-114148142D01*
X128845785Y-114262428D01*
X128845785Y-114605285D01*
X128902928Y-114719571D01*
X128960071Y-114776714D01*
X129074357Y-114833857D01*
X129245785Y-114833857D01*
X128331500Y-114833857D02*
X128331500Y-113633857D01*
X128331500Y-114091000D02*
X128217214Y-114033857D01*
X127988642Y-114033857D01*
X127874357Y-114091000D01*
X127817214Y-114148142D01*
X127760071Y-114262428D01*
X127760071Y-114605285D01*
X127817214Y-114719571D01*
X127874357Y-114776714D01*
X127988642Y-114833857D01*
X128217214Y-114833857D01*
X128331500Y-114776714D01*
X127074357Y-114833857D02*
X127188642Y-114776714D01*
X127245785Y-114719571D01*
X127302928Y-114605285D01*
X127302928Y-114262428D01*
X127245785Y-114148142D01*
X127188642Y-114091000D01*
X127074357Y-114033857D01*
X126902928Y-114033857D01*
X126788642Y-114091000D01*
X126731500Y-114148142D01*
X126674357Y-114262428D01*
X126674357Y-114605285D01*
X126731500Y-114719571D01*
X126788642Y-114776714D01*
X126902928Y-114833857D01*
X127074357Y-114833857D01*
X126331500Y-114033857D02*
X125874357Y-114033857D01*
X126160071Y-113633857D02*
X126160071Y-114662428D01*
X126102928Y-114776714D01*
X125988642Y-114833857D01*
X125874357Y-114833857D01*
X125474357Y-114833857D02*
X125474357Y-114033857D01*
X125474357Y-113633857D02*
X125531500Y-113691000D01*
X125474357Y-113748142D01*
X125417214Y-113691000D01*
X125474357Y-113633857D01*
X125474357Y-113748142D01*
X124388642Y-114776714D02*
X124502928Y-114833857D01*
X124731500Y-114833857D01*
X124845785Y-114776714D01*
X124902928Y-114719571D01*
X124960071Y-114605285D01*
X124960071Y-114262428D01*
X124902928Y-114148142D01*
X124845785Y-114091000D01*
X124731500Y-114033857D01*
X124502928Y-114033857D01*
X124388642Y-114091000D01*
X123931500Y-114776714D02*
X123817214Y-114833857D01*
X123588642Y-114833857D01*
X123474357Y-114776714D01*
X123417214Y-114662428D01*
X123417214Y-114605285D01*
X123474357Y-114491000D01*
X123588642Y-114433857D01*
X123760071Y-114433857D01*
X123874357Y-114376714D01*
X123931500Y-114262428D01*
X123931500Y-114205285D01*
X123874357Y-114091000D01*
X123760071Y-114033857D01*
X123588642Y-114033857D01*
X123474357Y-114091000D01*
X122902928Y-114719571D02*
X122845785Y-114776714D01*
X122902928Y-114833857D01*
X122960071Y-114776714D01*
X122902928Y-114719571D01*
X122902928Y-114833857D01*
X121817214Y-114776714D02*
X121931500Y-114833857D01*
X122160071Y-114833857D01*
X122274357Y-114776714D01*
X122331500Y-114719571D01*
X122388642Y-114605285D01*
X122388642Y-114262428D01*
X122331500Y-114148142D01*
X122274357Y-114091000D01*
X122160071Y-114033857D01*
X121931500Y-114033857D01*
X121817214Y-114091000D01*
X121131500Y-114833857D02*
X121245785Y-114776714D01*
X121302928Y-114719571D01*
X121360071Y-114605285D01*
X121360071Y-114262428D01*
X121302928Y-114148142D01*
X121245785Y-114091000D01*
X121131500Y-114033857D01*
X120960071Y-114033857D01*
X120845785Y-114091000D01*
X120788642Y-114148142D01*
X120731500Y-114262428D01*
X120731500Y-114605285D01*
X120788642Y-114719571D01*
X120845785Y-114776714D01*
X120960071Y-114833857D01*
X121131500Y-114833857D01*
X120217214Y-114833857D02*
X120217214Y-114033857D01*
X120217214Y-114148142D02*
X120160071Y-114091000D01*
X120045785Y-114033857D01*
X119874357Y-114033857D01*
X119760071Y-114091000D01*
X119702928Y-114205285D01*
X119702928Y-114833857D01*
X119702928Y-114205285D02*
X119645785Y-114091000D01*
X119531500Y-114033857D01*
X119360071Y-114033857D01*
X119245785Y-114091000D01*
X119188642Y-114205285D01*
X119188642Y-114833857D01*
X118617214Y-114033857D02*
X118617214Y-115233857D01*
X118617214Y-114091000D02*
X118502928Y-114033857D01*
X118274357Y-114033857D01*
X118160071Y-114091000D01*
X118102928Y-114148142D01*
X118045785Y-114262428D01*
X118045785Y-114605285D01*
X118102928Y-114719571D01*
X118160071Y-114776714D01*
X118274357Y-114833857D01*
X118502928Y-114833857D01*
X118617214Y-114776714D01*
X117017214Y-114833857D02*
X117017214Y-114205285D01*
X117074357Y-114091000D01*
X117188642Y-114033857D01*
X117417214Y-114033857D01*
X117531500Y-114091000D01*
X117017214Y-114776714D02*
X117131500Y-114833857D01*
X117417214Y-114833857D01*
X117531500Y-114776714D01*
X117588642Y-114662428D01*
X117588642Y-114548142D01*
X117531500Y-114433857D01*
X117417214Y-114376714D01*
X117131500Y-114376714D01*
X117017214Y-114319571D01*
X116445785Y-114033857D02*
X116445785Y-114833857D01*
X116445785Y-114148142D02*
X116388642Y-114091000D01*
X116274357Y-114033857D01*
X116102928Y-114033857D01*
X115988642Y-114091000D01*
X115931500Y-114205285D01*
X115931500Y-114833857D01*
X115474357Y-114033857D02*
X115188642Y-114833857D01*
X114902928Y-114033857D02*
X115188642Y-114833857D01*
X115302928Y-115119571D01*
X115360071Y-115176714D01*
X115474357Y-115233857D01*
X142045785Y-118305285D02*
X141645785Y-118305285D01*
X141474357Y-118933857D02*
X142045785Y-118933857D01*
X142045785Y-117733857D01*
X141474357Y-117733857D01*
X141017214Y-118876714D02*
X140845785Y-118933857D01*
X140560071Y-118933857D01*
X140445785Y-118876714D01*
X140388642Y-118819571D01*
X140331500Y-118705285D01*
X140331500Y-118591000D01*
X140388642Y-118476714D01*
X140445785Y-118419571D01*
X140560071Y-118362428D01*
X140788642Y-118305285D01*
X140902928Y-118248142D01*
X140960071Y-118191000D01*
X141017214Y-118076714D01*
X141017214Y-117962428D01*
X140960071Y-117848142D01*
X140902928Y-117791000D01*
X140788642Y-117733857D01*
X140502928Y-117733857D01*
X140331500Y-117791000D01*
X139817214Y-118933857D02*
X139817214Y-117733857D01*
X139360071Y-117733857D01*
X139245785Y-117791000D01*
X139188642Y-117848142D01*
X139131500Y-117962428D01*
X139131500Y-118133857D01*
X139188642Y-118248142D01*
X139245785Y-118305285D01*
X139360071Y-118362428D01*
X139817214Y-118362428D01*
X138445785Y-118248142D02*
X138560071Y-118191000D01*
X138617214Y-118133857D01*
X138674357Y-118019571D01*
X138674357Y-117962428D01*
X138617214Y-117848142D01*
X138560071Y-117791000D01*
X138445785Y-117733857D01*
X138217214Y-117733857D01*
X138102928Y-117791000D01*
X138045785Y-117848142D01*
X137988642Y-117962428D01*
X137988642Y-118019571D01*
X138045785Y-118133857D01*
X138102928Y-118191000D01*
X138217214Y-118248142D01*
X138445785Y-118248142D01*
X138560071Y-118305285D01*
X138617214Y-118362428D01*
X138674357Y-118476714D01*
X138674357Y-118705285D01*
X138617214Y-118819571D01*
X138560071Y-118876714D01*
X138445785Y-118933857D01*
X138217214Y-118933857D01*
X138102928Y-118876714D01*
X138045785Y-118819571D01*
X137988642Y-118705285D01*
X137988642Y-118476714D01*
X138045785Y-118362428D01*
X138102928Y-118305285D01*
X138217214Y-118248142D01*
X137531500Y-117848142D02*
X137474357Y-117791000D01*
X137360071Y-117733857D01*
X137074357Y-117733857D01*
X136960071Y-117791000D01*
X136902928Y-117848142D01*
X136845785Y-117962428D01*
X136845785Y-118076714D01*
X136902928Y-118248142D01*
X137588642Y-118933857D01*
X136845785Y-118933857D01*
X135817214Y-117733857D02*
X136045785Y-117733857D01*
X136160071Y-117791000D01*
X136217214Y-117848142D01*
X136331500Y-118019571D01*
X136388642Y-118248142D01*
X136388642Y-118705285D01*
X136331500Y-118819571D01*
X136274357Y-118876714D01*
X136160071Y-118933857D01*
X135931500Y-118933857D01*
X135817214Y-118876714D01*
X135760071Y-118819571D01*
X135702928Y-118705285D01*
X135702928Y-118419571D01*
X135760071Y-118305285D01*
X135817214Y-118248142D01*
X135931500Y-118191000D01*
X136160071Y-118191000D01*
X136274357Y-118248142D01*
X136331500Y-118305285D01*
X136388642Y-118419571D01*
X134674357Y-117733857D02*
X134902928Y-117733857D01*
X135017214Y-117791000D01*
X135074357Y-117848142D01*
X135188642Y-118019571D01*
X135245785Y-118248142D01*
X135245785Y-118705285D01*
X135188642Y-118819571D01*
X135131500Y-118876714D01*
X135017214Y-118933857D01*
X134788642Y-118933857D01*
X134674357Y-118876714D01*
X134617214Y-118819571D01*
X134560071Y-118705285D01*
X134560071Y-118419571D01*
X134617214Y-118305285D01*
X134674357Y-118248142D01*
X134788642Y-118191000D01*
X135017214Y-118191000D01*
X135131500Y-118248142D01*
X135188642Y-118305285D01*
X135245785Y-118419571D01*
X133131500Y-118933857D02*
X133131500Y-117733857D01*
X132845785Y-117733857D01*
X132674357Y-117791000D01*
X132560071Y-117905285D01*
X132502928Y-118019571D01*
X132445785Y-118248142D01*
X132445785Y-118419571D01*
X132502928Y-118648142D01*
X132560071Y-118762428D01*
X132674357Y-118876714D01*
X132845785Y-118933857D01*
X133131500Y-118933857D01*
X131474357Y-118876714D02*
X131588642Y-118933857D01*
X131817214Y-118933857D01*
X131931500Y-118876714D01*
X131988642Y-118762428D01*
X131988642Y-118305285D01*
X131931500Y-118191000D01*
X131817214Y-118133857D01*
X131588642Y-118133857D01*
X131474357Y-118191000D01*
X131417214Y-118305285D01*
X131417214Y-118419571D01*
X131988642Y-118533857D01*
X131017214Y-118133857D02*
X130731500Y-118933857D01*
X130445785Y-118133857D01*
X128674357Y-118305285D02*
X128502928Y-118362428D01*
X128445785Y-118419571D01*
X128388642Y-118533857D01*
X128388642Y-118705285D01*
X128445785Y-118819571D01*
X128502928Y-118876714D01*
X128617214Y-118933857D01*
X129074357Y-118933857D01*
X129074357Y-117733857D01*
X128674357Y-117733857D01*
X128560071Y-117791000D01*
X128502928Y-117848142D01*
X128445785Y-117962428D01*
X128445785Y-118076714D01*
X128502928Y-118191000D01*
X128560071Y-118248142D01*
X128674357Y-118305285D01*
X129074357Y-118305285D01*
X127702928Y-118933857D02*
X127817214Y-118876714D01*
X127874357Y-118819571D01*
X127931500Y-118705285D01*
X127931500Y-118362428D01*
X127874357Y-118248142D01*
X127817214Y-118191000D01*
X127702928Y-118133857D01*
X127531500Y-118133857D01*
X127417214Y-118191000D01*
X127360071Y-118248142D01*
X127302928Y-118362428D01*
X127302928Y-118705285D01*
X127360071Y-118819571D01*
X127417214Y-118876714D01*
X127531500Y-118933857D01*
X127702928Y-118933857D01*
X126274357Y-118933857D02*
X126274357Y-118305285D01*
X126331500Y-118191000D01*
X126445785Y-118133857D01*
X126674357Y-118133857D01*
X126788642Y-118191000D01*
X126274357Y-118876714D02*
X126388642Y-118933857D01*
X126674357Y-118933857D01*
X126788642Y-118876714D01*
X126845785Y-118762428D01*
X126845785Y-118648142D01*
X126788642Y-118533857D01*
X126674357Y-118476714D01*
X126388642Y-118476714D01*
X126274357Y-118419571D01*
X125702928Y-118933857D02*
X125702928Y-118133857D01*
X125702928Y-118362428D02*
X125645785Y-118248142D01*
X125588642Y-118191000D01*
X125474357Y-118133857D01*
X125360071Y-118133857D01*
X124445785Y-118933857D02*
X124445785Y-117733857D01*
X124445785Y-118876714D02*
X124560071Y-118933857D01*
X124788642Y-118933857D01*
X124902928Y-118876714D01*
X124960071Y-118819571D01*
X125017214Y-118705285D01*
X125017214Y-118362428D01*
X124960071Y-118248142D01*
X124902928Y-118191000D01*
X124788642Y-118133857D01*
X124560071Y-118133857D01*
X124445785Y-118191000D01*
X122960071Y-118933857D02*
X122960071Y-118133857D01*
X122960071Y-118362428D02*
X122902928Y-118248142D01*
X122845785Y-118191000D01*
X122731500Y-118133857D01*
X122617214Y-118133857D01*
X121760071Y-118876714D02*
X121874357Y-118933857D01*
X122102928Y-118933857D01*
X122217214Y-118876714D01*
X122274357Y-118762428D01*
X122274357Y-118305285D01*
X122217214Y-118191000D01*
X122102928Y-118133857D01*
X121874357Y-118133857D01*
X121760071Y-118191000D01*
X121702928Y-118305285D01*
X121702928Y-118419571D01*
X122274357Y-118533857D01*
X121302928Y-118133857D02*
X121017214Y-118933857D01*
X120731500Y-118133857D01*
X118731500Y-118933857D02*
X119417214Y-118933857D01*
X119074357Y-118933857D02*
X119074357Y-117733857D01*
X119188642Y-117905285D01*
X119302928Y-118019571D01*
X119417214Y-118076714D01*
D12*
G36*
X121039490Y-87886318D02*
X121023394Y-87894228D01*
X121017671Y-87907195D01*
X121004013Y-87939966D01*
X120983223Y-87990560D01*
X120956108Y-88056999D01*
X120923472Y-88137301D01*
X120886120Y-88229487D01*
X120844858Y-88331578D01*
X120800490Y-88441591D01*
X120764601Y-88530742D01*
X120710378Y-88665285D01*
X120664124Y-88779415D01*
X120625212Y-88874562D01*
X120593017Y-88952153D01*
X120566913Y-89013618D01*
X120546274Y-89060386D01*
X120530475Y-89093886D01*
X120518888Y-89115546D01*
X120510889Y-89126796D01*
X120505851Y-89129064D01*
X120503784Y-89126167D01*
X120497809Y-89110119D01*
X120484235Y-89074253D01*
X120463864Y-89020672D01*
X120437496Y-88951476D01*
X120405934Y-88868765D01*
X120369978Y-88774641D01*
X120330431Y-88671204D01*
X120288094Y-88560555D01*
X120262405Y-88493459D01*
X120030954Y-87889051D01*
X119992970Y-87885374D01*
X119967183Y-87885907D01*
X119955109Y-87892126D01*
X119954985Y-87893030D01*
X119959088Y-87906194D01*
X119970879Y-87939210D01*
X119989575Y-87990038D01*
X120014399Y-88056640D01*
X120044568Y-88136975D01*
X120079303Y-88229005D01*
X120117824Y-88330688D01*
X120159351Y-88439987D01*
X120203103Y-88554861D01*
X120248300Y-88673271D01*
X120294162Y-88793177D01*
X120339909Y-88912540D01*
X120384760Y-89029320D01*
X120427935Y-89141477D01*
X120468655Y-89246972D01*
X120506138Y-89343766D01*
X120539605Y-89429819D01*
X120568275Y-89503091D01*
X120591369Y-89561543D01*
X120608106Y-89603135D01*
X120617705Y-89625828D01*
X120618469Y-89627450D01*
X120659326Y-89691685D01*
X120713426Y-89748241D01*
X120774629Y-89791579D01*
X120824135Y-89812881D01*
X120882304Y-89825033D01*
X120944085Y-89829754D01*
X120998690Y-89826453D01*
X121014165Y-89823280D01*
X121030989Y-89807610D01*
X121034703Y-89784909D01*
X121034703Y-89751906D01*
X120949616Y-89752385D01*
X120886708Y-89748810D01*
X120832735Y-89735941D01*
X120785723Y-89711713D01*
X120743694Y-89674059D01*
X120704673Y-89620914D01*
X120666684Y-89550211D01*
X120627750Y-89459885D01*
X120599954Y-89386819D01*
X120553878Y-89261090D01*
X121102988Y-87889051D01*
X121067142Y-87885247D01*
X121039490Y-87886318D01*
X121039490Y-87886318D01*
G37*
X121039490Y-87886318D02*
X121023394Y-87894228D01*
X121017671Y-87907195D01*
X121004013Y-87939966D01*
X120983223Y-87990560D01*
X120956108Y-88056999D01*
X120923472Y-88137301D01*
X120886120Y-88229487D01*
X120844858Y-88331578D01*
X120800490Y-88441591D01*
X120764601Y-88530742D01*
X120710378Y-88665285D01*
X120664124Y-88779415D01*
X120625212Y-88874562D01*
X120593017Y-88952153D01*
X120566913Y-89013618D01*
X120546274Y-89060386D01*
X120530475Y-89093886D01*
X120518888Y-89115546D01*
X120510889Y-89126796D01*
X120505851Y-89129064D01*
X120503784Y-89126167D01*
X120497809Y-89110119D01*
X120484235Y-89074253D01*
X120463864Y-89020672D01*
X120437496Y-88951476D01*
X120405934Y-88868765D01*
X120369978Y-88774641D01*
X120330431Y-88671204D01*
X120288094Y-88560555D01*
X120262405Y-88493459D01*
X120030954Y-87889051D01*
X119992970Y-87885374D01*
X119967183Y-87885907D01*
X119955109Y-87892126D01*
X119954985Y-87893030D01*
X119959088Y-87906194D01*
X119970879Y-87939210D01*
X119989575Y-87990038D01*
X120014399Y-88056640D01*
X120044568Y-88136975D01*
X120079303Y-88229005D01*
X120117824Y-88330688D01*
X120159351Y-88439987D01*
X120203103Y-88554861D01*
X120248300Y-88673271D01*
X120294162Y-88793177D01*
X120339909Y-88912540D01*
X120384760Y-89029320D01*
X120427935Y-89141477D01*
X120468655Y-89246972D01*
X120506138Y-89343766D01*
X120539605Y-89429819D01*
X120568275Y-89503091D01*
X120591369Y-89561543D01*
X120608106Y-89603135D01*
X120617705Y-89625828D01*
X120618469Y-89627450D01*
X120659326Y-89691685D01*
X120713426Y-89748241D01*
X120774629Y-89791579D01*
X120824135Y-89812881D01*
X120882304Y-89825033D01*
X120944085Y-89829754D01*
X120998690Y-89826453D01*
X121014165Y-89823280D01*
X121030989Y-89807610D01*
X121034703Y-89784909D01*
X121034703Y-89751906D01*
X120949616Y-89752385D01*
X120886708Y-89748810D01*
X120832735Y-89735941D01*
X120785723Y-89711713D01*
X120743694Y-89674059D01*
X120704673Y-89620914D01*
X120666684Y-89550211D01*
X120627750Y-89459885D01*
X120599954Y-89386819D01*
X120553878Y-89261090D01*
X121102988Y-87889051D01*
X121067142Y-87885247D01*
X121039490Y-87886318D01*
G36*
X124593501Y-87866168D02*
X124549023Y-87868033D01*
X124515681Y-87872375D01*
X124487310Y-87880128D01*
X124457747Y-87892225D01*
X124446271Y-87897521D01*
X124364242Y-87948677D01*
X124291989Y-88019882D01*
X124230905Y-88109265D01*
X124182378Y-88214951D01*
X124160747Y-88282210D01*
X124150788Y-88333877D01*
X124143616Y-88403018D01*
X124139243Y-88483801D01*
X124137681Y-88570390D01*
X124138942Y-88656954D01*
X124143039Y-88737658D01*
X124149984Y-88806669D01*
X124159550Y-88857277D01*
X124199069Y-88970436D01*
X124251928Y-89070005D01*
X124316383Y-89153586D01*
X124390688Y-89218780D01*
X124446609Y-89251705D01*
X124483573Y-89267750D01*
X124519150Y-89278209D01*
X124560968Y-89284607D01*
X124616656Y-89288472D01*
X124634189Y-89289243D01*
X124751996Y-89285497D01*
X124856367Y-89263460D01*
X124949577Y-89222283D01*
X125033898Y-89161117D01*
X125069985Y-89126391D01*
X125118508Y-89075893D01*
X125121614Y-89438961D01*
X125124721Y-89802030D01*
X125154501Y-89805503D01*
X125180136Y-89805189D01*
X125192643Y-89800613D01*
X125193935Y-89787852D01*
X125195167Y-89753382D01*
X125196322Y-89698966D01*
X125197386Y-89626365D01*
X125198342Y-89537342D01*
X125199176Y-89433661D01*
X125199873Y-89317084D01*
X125200416Y-89189373D01*
X125200792Y-89052291D01*
X125200983Y-88907600D01*
X125201006Y-88837716D01*
X125201006Y-88602887D01*
X125118853Y-88602887D01*
X125118853Y-88948490D01*
X125071327Y-89019662D01*
X125007275Y-89095249D01*
X124952629Y-89138360D01*
X124916961Y-89161607D01*
X124889107Y-89178701D01*
X124874551Y-89186293D01*
X124873992Y-89186404D01*
X124859321Y-89189712D01*
X124829905Y-89197615D01*
X124807847Y-89203871D01*
X124753075Y-89213910D01*
X124682189Y-89217967D01*
X124642885Y-89217580D01*
X124584830Y-89214508D01*
X124541560Y-89208270D01*
X124504432Y-89197087D01*
X124470828Y-89182160D01*
X124398543Y-89135742D01*
X124338069Y-89072350D01*
X124288369Y-88990503D01*
X124248406Y-88888721D01*
X124236320Y-88847349D01*
X124223854Y-88783579D01*
X124215326Y-88703550D01*
X124210813Y-88614140D01*
X124210388Y-88522229D01*
X124214128Y-88434692D01*
X124222109Y-88358410D01*
X124230481Y-88314484D01*
X124267122Y-88201772D01*
X124316483Y-88108311D01*
X124378296Y-88034357D01*
X124452298Y-87980167D01*
X124538224Y-87945996D01*
X124624604Y-87932624D01*
X124734901Y-87936522D01*
X124835549Y-87960891D01*
X124924980Y-88004844D01*
X125001625Y-88067492D01*
X125063914Y-88147948D01*
X125089842Y-88195959D01*
X125098156Y-88214032D01*
X125104708Y-88231045D01*
X125109706Y-88249941D01*
X125113362Y-88273668D01*
X125115886Y-88305170D01*
X125117486Y-88347393D01*
X125118374Y-88403283D01*
X125118759Y-88475785D01*
X125118851Y-88567846D01*
X125118853Y-88602887D01*
X125201006Y-88602887D01*
X125201006Y-87883183D01*
X125118853Y-87883183D01*
X125118853Y-88109690D01*
X125083935Y-88061487D01*
X125030833Y-88002378D01*
X124963033Y-87947805D01*
X124889217Y-87904405D01*
X124863618Y-87893103D01*
X124829631Y-87880960D01*
X124795995Y-87872999D01*
X124756316Y-87868384D01*
X124704197Y-87866278D01*
X124655279Y-87865844D01*
X124593501Y-87866168D01*
X124593501Y-87866168D01*
G37*
X124593501Y-87866168D02*
X124549023Y-87868033D01*
X124515681Y-87872375D01*
X124487310Y-87880128D01*
X124457747Y-87892225D01*
X124446271Y-87897521D01*
X124364242Y-87948677D01*
X124291989Y-88019882D01*
X124230905Y-88109265D01*
X124182378Y-88214951D01*
X124160747Y-88282210D01*
X124150788Y-88333877D01*
X124143616Y-88403018D01*
X124139243Y-88483801D01*
X124137681Y-88570390D01*
X124138942Y-88656954D01*
X124143039Y-88737658D01*
X124149984Y-88806669D01*
X124159550Y-88857277D01*
X124199069Y-88970436D01*
X124251928Y-89070005D01*
X124316383Y-89153586D01*
X124390688Y-89218780D01*
X124446609Y-89251705D01*
X124483573Y-89267750D01*
X124519150Y-89278209D01*
X124560968Y-89284607D01*
X124616656Y-89288472D01*
X124634189Y-89289243D01*
X124751996Y-89285497D01*
X124856367Y-89263460D01*
X124949577Y-89222283D01*
X125033898Y-89161117D01*
X125069985Y-89126391D01*
X125118508Y-89075893D01*
X125121614Y-89438961D01*
X125124721Y-89802030D01*
X125154501Y-89805503D01*
X125180136Y-89805189D01*
X125192643Y-89800613D01*
X125193935Y-89787852D01*
X125195167Y-89753382D01*
X125196322Y-89698966D01*
X125197386Y-89626365D01*
X125198342Y-89537342D01*
X125199176Y-89433661D01*
X125199873Y-89317084D01*
X125200416Y-89189373D01*
X125200792Y-89052291D01*
X125200983Y-88907600D01*
X125201006Y-88837716D01*
X125201006Y-88602887D01*
X125118853Y-88602887D01*
X125118853Y-88948490D01*
X125071327Y-89019662D01*
X125007275Y-89095249D01*
X124952629Y-89138360D01*
X124916961Y-89161607D01*
X124889107Y-89178701D01*
X124874551Y-89186293D01*
X124873992Y-89186404D01*
X124859321Y-89189712D01*
X124829905Y-89197615D01*
X124807847Y-89203871D01*
X124753075Y-89213910D01*
X124682189Y-89217967D01*
X124642885Y-89217580D01*
X124584830Y-89214508D01*
X124541560Y-89208270D01*
X124504432Y-89197087D01*
X124470828Y-89182160D01*
X124398543Y-89135742D01*
X124338069Y-89072350D01*
X124288369Y-88990503D01*
X124248406Y-88888721D01*
X124236320Y-88847349D01*
X124223854Y-88783579D01*
X124215326Y-88703550D01*
X124210813Y-88614140D01*
X124210388Y-88522229D01*
X124214128Y-88434692D01*
X124222109Y-88358410D01*
X124230481Y-88314484D01*
X124267122Y-88201772D01*
X124316483Y-88108311D01*
X124378296Y-88034357D01*
X124452298Y-87980167D01*
X124538224Y-87945996D01*
X124624604Y-87932624D01*
X124734901Y-87936522D01*
X124835549Y-87960891D01*
X124924980Y-88004844D01*
X125001625Y-88067492D01*
X125063914Y-88147948D01*
X125089842Y-88195959D01*
X125098156Y-88214032D01*
X125104708Y-88231045D01*
X125109706Y-88249941D01*
X125113362Y-88273668D01*
X125115886Y-88305170D01*
X125117486Y-88347393D01*
X125118374Y-88403283D01*
X125118759Y-88475785D01*
X125118851Y-88567846D01*
X125118853Y-88602887D01*
X125201006Y-88602887D01*
X125201006Y-87883183D01*
X125118853Y-87883183D01*
X125118853Y-88109690D01*
X125083935Y-88061487D01*
X125030833Y-88002378D01*
X124963033Y-87947805D01*
X124889217Y-87904405D01*
X124863618Y-87893103D01*
X124829631Y-87880960D01*
X124795995Y-87872999D01*
X124756316Y-87868384D01*
X124704197Y-87866278D01*
X124655279Y-87865844D01*
X124593501Y-87866168D01*
G36*
X129736538Y-87869479D02*
X129633435Y-87897817D01*
X129542581Y-87943279D01*
X129465770Y-88004417D01*
X129404796Y-88079786D01*
X129361455Y-88167938D01*
X129337540Y-88267427D01*
X129336787Y-88273512D01*
X129328868Y-88340890D01*
X129364360Y-88340890D01*
X129386017Y-88339098D01*
X129397775Y-88329634D01*
X129404394Y-88306361D01*
X129407612Y-88285143D01*
X129424100Y-88220326D01*
X129453736Y-88152014D01*
X129491866Y-88089235D01*
X129533252Y-88041535D01*
X129605338Y-87988645D01*
X129686087Y-87953880D01*
X129779820Y-87935559D01*
X129812522Y-87932937D01*
X129923385Y-87936428D01*
X130022279Y-87960051D01*
X130108889Y-88003564D01*
X130182900Y-88066724D01*
X130243995Y-88149288D01*
X130291859Y-88251014D01*
X130313276Y-88318122D01*
X130323701Y-88372720D01*
X130330861Y-88443872D01*
X130334735Y-88525138D01*
X130335302Y-88610080D01*
X130332543Y-88692261D01*
X130326436Y-88765242D01*
X130316961Y-88822586D01*
X130314912Y-88830690D01*
X130275985Y-88937876D01*
X130222018Y-89030857D01*
X130154685Y-89107463D01*
X130075657Y-89165521D01*
X130044742Y-89181429D01*
X130009851Y-89196564D01*
X129979556Y-89206318D01*
X129946959Y-89211821D01*
X129905162Y-89214206D01*
X129847268Y-89214603D01*
X129842619Y-89214586D01*
X129777916Y-89213346D01*
X129729670Y-89209588D01*
X129690917Y-89202366D01*
X129654695Y-89190733D01*
X129648043Y-89188152D01*
X129563676Y-89143156D01*
X129495533Y-89082230D01*
X129445221Y-89007257D01*
X129414343Y-88920121D01*
X129412616Y-88911963D01*
X129404187Y-88874467D01*
X129395633Y-88854595D01*
X129383039Y-88846803D01*
X129365688Y-88845541D01*
X129341465Y-88848878D01*
X129332870Y-88863833D01*
X129332100Y-88878911D01*
X129338274Y-88922317D01*
X129354645Y-88976423D01*
X129377990Y-89032675D01*
X129405081Y-89082518D01*
X129413636Y-89095191D01*
X129475246Y-89162773D01*
X129552990Y-89219776D01*
X129640414Y-89262008D01*
X129696414Y-89278881D01*
X129753007Y-89287395D01*
X129820883Y-89290854D01*
X129891865Y-89289472D01*
X129957773Y-89283466D01*
X130010428Y-89273051D01*
X130018813Y-89270400D01*
X130120842Y-89223353D01*
X130208461Y-89157833D01*
X130281524Y-89074013D01*
X130339883Y-88972064D01*
X130383391Y-88852155D01*
X130385215Y-88845541D01*
X130393480Y-88809431D01*
X130399288Y-88768701D01*
X130402962Y-88718752D01*
X130404831Y-88654989D01*
X130405219Y-88572814D01*
X130405190Y-88563875D01*
X130404657Y-88487625D01*
X130403348Y-88429876D01*
X130400735Y-88385655D01*
X130396287Y-88349992D01*
X130389477Y-88317916D01*
X130379775Y-88284456D01*
X130373327Y-88264605D01*
X130325052Y-88148186D01*
X130263908Y-88051243D01*
X130190080Y-87973920D01*
X130103755Y-87916361D01*
X130005120Y-87878710D01*
X129894359Y-87861112D01*
X129850093Y-87859711D01*
X129736538Y-87869479D01*
X129736538Y-87869479D01*
G37*
X129736538Y-87869479D02*
X129633435Y-87897817D01*
X129542581Y-87943279D01*
X129465770Y-88004417D01*
X129404796Y-88079786D01*
X129361455Y-88167938D01*
X129337540Y-88267427D01*
X129336787Y-88273512D01*
X129328868Y-88340890D01*
X129364360Y-88340890D01*
X129386017Y-88339098D01*
X129397775Y-88329634D01*
X129404394Y-88306361D01*
X129407612Y-88285143D01*
X129424100Y-88220326D01*
X129453736Y-88152014D01*
X129491866Y-88089235D01*
X129533252Y-88041535D01*
X129605338Y-87988645D01*
X129686087Y-87953880D01*
X129779820Y-87935559D01*
X129812522Y-87932937D01*
X129923385Y-87936428D01*
X130022279Y-87960051D01*
X130108889Y-88003564D01*
X130182900Y-88066724D01*
X130243995Y-88149288D01*
X130291859Y-88251014D01*
X130313276Y-88318122D01*
X130323701Y-88372720D01*
X130330861Y-88443872D01*
X130334735Y-88525138D01*
X130335302Y-88610080D01*
X130332543Y-88692261D01*
X130326436Y-88765242D01*
X130316961Y-88822586D01*
X130314912Y-88830690D01*
X130275985Y-88937876D01*
X130222018Y-89030857D01*
X130154685Y-89107463D01*
X130075657Y-89165521D01*
X130044742Y-89181429D01*
X130009851Y-89196564D01*
X129979556Y-89206318D01*
X129946959Y-89211821D01*
X129905162Y-89214206D01*
X129847268Y-89214603D01*
X129842619Y-89214586D01*
X129777916Y-89213346D01*
X129729670Y-89209588D01*
X129690917Y-89202366D01*
X129654695Y-89190733D01*
X129648043Y-89188152D01*
X129563676Y-89143156D01*
X129495533Y-89082230D01*
X129445221Y-89007257D01*
X129414343Y-88920121D01*
X129412616Y-88911963D01*
X129404187Y-88874467D01*
X129395633Y-88854595D01*
X129383039Y-88846803D01*
X129365688Y-88845541D01*
X129341465Y-88848878D01*
X129332870Y-88863833D01*
X129332100Y-88878911D01*
X129338274Y-88922317D01*
X129354645Y-88976423D01*
X129377990Y-89032675D01*
X129405081Y-89082518D01*
X129413636Y-89095191D01*
X129475246Y-89162773D01*
X129552990Y-89219776D01*
X129640414Y-89262008D01*
X129696414Y-89278881D01*
X129753007Y-89287395D01*
X129820883Y-89290854D01*
X129891865Y-89289472D01*
X129957773Y-89283466D01*
X130010428Y-89273051D01*
X130018813Y-89270400D01*
X130120842Y-89223353D01*
X130208461Y-89157833D01*
X130281524Y-89074013D01*
X130339883Y-88972064D01*
X130383391Y-88852155D01*
X130385215Y-88845541D01*
X130393480Y-88809431D01*
X130399288Y-88768701D01*
X130402962Y-88718752D01*
X130404831Y-88654989D01*
X130405219Y-88572814D01*
X130405190Y-88563875D01*
X130404657Y-88487625D01*
X130403348Y-88429876D01*
X130400735Y-88385655D01*
X130396287Y-88349992D01*
X130389477Y-88317916D01*
X130379775Y-88284456D01*
X130373327Y-88264605D01*
X130325052Y-88148186D01*
X130263908Y-88051243D01*
X130190080Y-87973920D01*
X130103755Y-87916361D01*
X130005120Y-87878710D01*
X129894359Y-87861112D01*
X129850093Y-87859711D01*
X129736538Y-87869479D01*
G36*
X128381072Y-87866310D02*
X128288812Y-87885937D01*
X128206909Y-87920907D01*
X128130251Y-87973249D01*
X128073404Y-88024848D01*
X128002116Y-88107945D01*
X127947822Y-88199461D01*
X127909574Y-88302057D01*
X127886425Y-88418393D01*
X127877426Y-88551130D01*
X127877236Y-88575611D01*
X127881135Y-88686734D01*
X127893765Y-88782330D01*
X127916520Y-88869167D01*
X127950796Y-88954015D01*
X127958586Y-88970186D01*
X128016731Y-89064263D01*
X128090834Y-89145852D01*
X128177258Y-89211977D01*
X128272370Y-89259661D01*
X128335847Y-89279064D01*
X128390736Y-89286956D01*
X128459252Y-89290015D01*
X128532090Y-89288423D01*
X128599947Y-89282361D01*
X128650180Y-89272938D01*
X128750943Y-89233980D01*
X128842198Y-89174901D01*
X128922095Y-89097768D01*
X128988784Y-89004649D01*
X129040417Y-88897609D01*
X129069369Y-88804464D01*
X129081057Y-88735772D01*
X129087767Y-88652194D01*
X129089100Y-88582712D01*
X129013208Y-88582712D01*
X129012108Y-88621089D01*
X129006450Y-88708234D01*
X128996378Y-88779479D01*
X128980139Y-88842242D01*
X128955980Y-88903944D01*
X128935073Y-88947246D01*
X128887990Y-89018508D01*
X128823998Y-89085566D01*
X128749201Y-89143525D01*
X128669699Y-89187493D01*
X128608950Y-89208776D01*
X128576365Y-89213544D01*
X128528800Y-89216390D01*
X128474698Y-89216897D01*
X128454491Y-89216401D01*
X128398835Y-89213516D01*
X128357445Y-89208003D01*
X128321120Y-89197666D01*
X128280657Y-89180308D01*
X128258832Y-89169714D01*
X128167823Y-89112034D01*
X128091851Y-89036838D01*
X128031459Y-88945071D01*
X127987192Y-88837680D01*
X127959593Y-88715611D01*
X127951172Y-88634291D01*
X127951859Y-88502316D01*
X127970070Y-88379712D01*
X128004829Y-88268228D01*
X128055159Y-88169615D01*
X128120083Y-88085623D01*
X128198624Y-88018002D01*
X128289805Y-87968502D01*
X128331024Y-87953725D01*
X128439326Y-87931593D01*
X128544682Y-87932356D01*
X128645314Y-87955580D01*
X128739444Y-88000832D01*
X128825294Y-88067681D01*
X128834075Y-88076254D01*
X128902551Y-88156476D01*
X128953837Y-88244585D01*
X128988799Y-88343229D01*
X129008301Y-88455056D01*
X129013208Y-88582712D01*
X129089100Y-88582712D01*
X129089501Y-88561784D01*
X129086258Y-88472595D01*
X129078039Y-88392680D01*
X129069369Y-88346758D01*
X129029812Y-88225638D01*
X128974190Y-88119908D01*
X128903795Y-88030653D01*
X128819920Y-87958957D01*
X128723860Y-87905904D01*
X128616906Y-87872578D01*
X128500354Y-87860065D01*
X128488801Y-87859998D01*
X128381072Y-87866310D01*
X128381072Y-87866310D01*
G37*
X128381072Y-87866310D02*
X128288812Y-87885937D01*
X128206909Y-87920907D01*
X128130251Y-87973249D01*
X128073404Y-88024848D01*
X128002116Y-88107945D01*
X127947822Y-88199461D01*
X127909574Y-88302057D01*
X127886425Y-88418393D01*
X127877426Y-88551130D01*
X127877236Y-88575611D01*
X127881135Y-88686734D01*
X127893765Y-88782330D01*
X127916520Y-88869167D01*
X127950796Y-88954015D01*
X127958586Y-88970186D01*
X128016731Y-89064263D01*
X128090834Y-89145852D01*
X128177258Y-89211977D01*
X128272370Y-89259661D01*
X128335847Y-89279064D01*
X128390736Y-89286956D01*
X128459252Y-89290015D01*
X128532090Y-89288423D01*
X128599947Y-89282361D01*
X128650180Y-89272938D01*
X128750943Y-89233980D01*
X128842198Y-89174901D01*
X128922095Y-89097768D01*
X128988784Y-89004649D01*
X129040417Y-88897609D01*
X129069369Y-88804464D01*
X129081057Y-88735772D01*
X129087767Y-88652194D01*
X129089100Y-88582712D01*
X129013208Y-88582712D01*
X129012108Y-88621089D01*
X129006450Y-88708234D01*
X128996378Y-88779479D01*
X128980139Y-88842242D01*
X128955980Y-88903944D01*
X128935073Y-88947246D01*
X128887990Y-89018508D01*
X128823998Y-89085566D01*
X128749201Y-89143525D01*
X128669699Y-89187493D01*
X128608950Y-89208776D01*
X128576365Y-89213544D01*
X128528800Y-89216390D01*
X128474698Y-89216897D01*
X128454491Y-89216401D01*
X128398835Y-89213516D01*
X128357445Y-89208003D01*
X128321120Y-89197666D01*
X128280657Y-89180308D01*
X128258832Y-89169714D01*
X128167823Y-89112034D01*
X128091851Y-89036838D01*
X128031459Y-88945071D01*
X127987192Y-88837680D01*
X127959593Y-88715611D01*
X127951172Y-88634291D01*
X127951859Y-88502316D01*
X127970070Y-88379712D01*
X128004829Y-88268228D01*
X128055159Y-88169615D01*
X128120083Y-88085623D01*
X128198624Y-88018002D01*
X128289805Y-87968502D01*
X128331024Y-87953725D01*
X128439326Y-87931593D01*
X128544682Y-87932356D01*
X128645314Y-87955580D01*
X128739444Y-88000832D01*
X128825294Y-88067681D01*
X128834075Y-88076254D01*
X128902551Y-88156476D01*
X128953837Y-88244585D01*
X128988799Y-88343229D01*
X129008301Y-88455056D01*
X129013208Y-88582712D01*
X129089100Y-88582712D01*
X129089501Y-88561784D01*
X129086258Y-88472595D01*
X129078039Y-88392680D01*
X129069369Y-88346758D01*
X129029812Y-88225638D01*
X128974190Y-88119908D01*
X128903795Y-88030653D01*
X128819920Y-87958957D01*
X128723860Y-87905904D01*
X128616906Y-87872578D01*
X128500354Y-87860065D01*
X128488801Y-87859998D01*
X128381072Y-87866310D01*
G36*
X123212588Y-87863243D02*
X123155481Y-87870635D01*
X123149642Y-87871902D01*
X123053074Y-87905750D01*
X122967038Y-87960475D01*
X122928167Y-87995367D01*
X122890247Y-88037076D01*
X122865057Y-88077029D01*
X122845765Y-88126436D01*
X122843081Y-88134955D01*
X122836446Y-88157785D01*
X122831124Y-88180629D01*
X122826971Y-88206305D01*
X122823843Y-88237634D01*
X122821594Y-88277434D01*
X122820081Y-88328526D01*
X122819159Y-88393728D01*
X122818683Y-88475862D01*
X122818511Y-88577744D01*
X122818495Y-88614989D01*
X122817959Y-88758823D01*
X122816360Y-88881080D01*
X122813607Y-88983637D01*
X122809612Y-89068371D01*
X122804283Y-89137158D01*
X122797532Y-89191873D01*
X122789269Y-89234393D01*
X122788728Y-89236578D01*
X122785388Y-89257592D01*
X122793711Y-89266278D01*
X122819392Y-89268036D01*
X122821925Y-89268039D01*
X122844566Y-89266714D01*
X122860036Y-89260092D01*
X122870184Y-89244203D01*
X122876863Y-89215076D01*
X122881923Y-89168740D01*
X122884786Y-89133206D01*
X122892293Y-89035536D01*
X122955036Y-89103306D01*
X123030416Y-89169618D01*
X123121461Y-89224871D01*
X123221495Y-89265211D01*
X123248645Y-89272907D01*
X123307500Y-89283454D01*
X123378127Y-89289143D01*
X123452485Y-89289969D01*
X123522530Y-89285926D01*
X123580219Y-89277008D01*
X123594689Y-89273145D01*
X123679458Y-89235865D01*
X123749628Y-89182511D01*
X123803837Y-89116187D01*
X123840725Y-89039997D01*
X123858931Y-88957045D01*
X123858184Y-88921824D01*
X123782966Y-88921824D01*
X123777020Y-88987003D01*
X123759232Y-89041149D01*
X123714976Y-89103771D01*
X123654146Y-89157096D01*
X123583246Y-89196104D01*
X123540352Y-89210121D01*
X123487108Y-89217680D01*
X123420177Y-89219382D01*
X123348541Y-89215465D01*
X123281181Y-89206168D01*
X123265033Y-89202799D01*
X123189978Y-89178341D01*
X123112376Y-89140593D01*
X123042607Y-89095009D01*
X123013570Y-89070672D01*
X122989322Y-89044151D01*
X122959747Y-89006284D01*
X122934351Y-88969884D01*
X122889001Y-88900582D01*
X122889001Y-88560774D01*
X123138392Y-88567045D01*
X123241741Y-88570375D01*
X123324081Y-88574726D01*
X123387861Y-88580293D01*
X123435529Y-88587270D01*
X123458200Y-88592425D01*
X123564030Y-88629683D01*
X123650477Y-88678607D01*
X123716996Y-88738816D01*
X123758302Y-88800227D01*
X123776714Y-88856267D01*
X123782966Y-88921824D01*
X123858184Y-88921824D01*
X123857094Y-88870434D01*
X123833854Y-88783269D01*
X123821592Y-88755599D01*
X123774207Y-88685126D01*
X123705444Y-88623854D01*
X123622505Y-88575158D01*
X123574210Y-88552851D01*
X123529309Y-88535424D01*
X123483743Y-88522204D01*
X123433449Y-88512514D01*
X123374368Y-88505679D01*
X123302437Y-88501025D01*
X123213597Y-88497875D01*
X123148803Y-88496392D01*
X122886349Y-88491158D01*
X122890957Y-88336805D01*
X122895386Y-88252389D01*
X122904125Y-88186517D01*
X122918882Y-88134405D01*
X122941365Y-88091270D01*
X122973284Y-88052329D01*
X123002409Y-88024782D01*
X123050070Y-87988446D01*
X123100515Y-87962934D01*
X123158886Y-87946780D01*
X123230326Y-87938516D01*
X123311499Y-87936619D01*
X123401883Y-87940365D01*
X123475164Y-87951891D01*
X123536944Y-87973024D01*
X123592822Y-88005592D01*
X123640029Y-88043777D01*
X123688101Y-88092078D01*
X123719302Y-88137569D01*
X123737991Y-88187457D01*
X123743889Y-88215624D01*
X123750857Y-88246655D01*
X123761359Y-88260799D01*
X123781119Y-88264536D01*
X123787135Y-88264605D01*
X123809325Y-88262965D01*
X123818582Y-88253578D01*
X123819392Y-88229746D01*
X123818577Y-88217661D01*
X123802046Y-88145032D01*
X123765174Y-88074524D01*
X123711069Y-88009276D01*
X123642839Y-87952426D01*
X123563594Y-87907114D01*
X123482140Y-87877925D01*
X123426335Y-87867938D01*
X123356891Y-87862055D01*
X123282683Y-87860436D01*
X123212588Y-87863243D01*
X123212588Y-87863243D01*
G37*
X123212588Y-87863243D02*
X123155481Y-87870635D01*
X123149642Y-87871902D01*
X123053074Y-87905750D01*
X122967038Y-87960475D01*
X122928167Y-87995367D01*
X122890247Y-88037076D01*
X122865057Y-88077029D01*
X122845765Y-88126436D01*
X122843081Y-88134955D01*
X122836446Y-88157785D01*
X122831124Y-88180629D01*
X122826971Y-88206305D01*
X122823843Y-88237634D01*
X122821594Y-88277434D01*
X122820081Y-88328526D01*
X122819159Y-88393728D01*
X122818683Y-88475862D01*
X122818511Y-88577744D01*
X122818495Y-88614989D01*
X122817959Y-88758823D01*
X122816360Y-88881080D01*
X122813607Y-88983637D01*
X122809612Y-89068371D01*
X122804283Y-89137158D01*
X122797532Y-89191873D01*
X122789269Y-89234393D01*
X122788728Y-89236578D01*
X122785388Y-89257592D01*
X122793711Y-89266278D01*
X122819392Y-89268036D01*
X122821925Y-89268039D01*
X122844566Y-89266714D01*
X122860036Y-89260092D01*
X122870184Y-89244203D01*
X122876863Y-89215076D01*
X122881923Y-89168740D01*
X122884786Y-89133206D01*
X122892293Y-89035536D01*
X122955036Y-89103306D01*
X123030416Y-89169618D01*
X123121461Y-89224871D01*
X123221495Y-89265211D01*
X123248645Y-89272907D01*
X123307500Y-89283454D01*
X123378127Y-89289143D01*
X123452485Y-89289969D01*
X123522530Y-89285926D01*
X123580219Y-89277008D01*
X123594689Y-89273145D01*
X123679458Y-89235865D01*
X123749628Y-89182511D01*
X123803837Y-89116187D01*
X123840725Y-89039997D01*
X123858931Y-88957045D01*
X123858184Y-88921824D01*
X123782966Y-88921824D01*
X123777020Y-88987003D01*
X123759232Y-89041149D01*
X123714976Y-89103771D01*
X123654146Y-89157096D01*
X123583246Y-89196104D01*
X123540352Y-89210121D01*
X123487108Y-89217680D01*
X123420177Y-89219382D01*
X123348541Y-89215465D01*
X123281181Y-89206168D01*
X123265033Y-89202799D01*
X123189978Y-89178341D01*
X123112376Y-89140593D01*
X123042607Y-89095009D01*
X123013570Y-89070672D01*
X122989322Y-89044151D01*
X122959747Y-89006284D01*
X122934351Y-88969884D01*
X122889001Y-88900582D01*
X122889001Y-88560774D01*
X123138392Y-88567045D01*
X123241741Y-88570375D01*
X123324081Y-88574726D01*
X123387861Y-88580293D01*
X123435529Y-88587270D01*
X123458200Y-88592425D01*
X123564030Y-88629683D01*
X123650477Y-88678607D01*
X123716996Y-88738816D01*
X123758302Y-88800227D01*
X123776714Y-88856267D01*
X123782966Y-88921824D01*
X123858184Y-88921824D01*
X123857094Y-88870434D01*
X123833854Y-88783269D01*
X123821592Y-88755599D01*
X123774207Y-88685126D01*
X123705444Y-88623854D01*
X123622505Y-88575158D01*
X123574210Y-88552851D01*
X123529309Y-88535424D01*
X123483743Y-88522204D01*
X123433449Y-88512514D01*
X123374368Y-88505679D01*
X123302437Y-88501025D01*
X123213597Y-88497875D01*
X123148803Y-88496392D01*
X122886349Y-88491158D01*
X122890957Y-88336805D01*
X122895386Y-88252389D01*
X122904125Y-88186517D01*
X122918882Y-88134405D01*
X122941365Y-88091270D01*
X122973284Y-88052329D01*
X123002409Y-88024782D01*
X123050070Y-87988446D01*
X123100515Y-87962934D01*
X123158886Y-87946780D01*
X123230326Y-87938516D01*
X123311499Y-87936619D01*
X123401883Y-87940365D01*
X123475164Y-87951891D01*
X123536944Y-87973024D01*
X123592822Y-88005592D01*
X123640029Y-88043777D01*
X123688101Y-88092078D01*
X123719302Y-88137569D01*
X123737991Y-88187457D01*
X123743889Y-88215624D01*
X123750857Y-88246655D01*
X123761359Y-88260799D01*
X123781119Y-88264536D01*
X123787135Y-88264605D01*
X123809325Y-88262965D01*
X123818582Y-88253578D01*
X123819392Y-88229746D01*
X123818577Y-88217661D01*
X123802046Y-88145032D01*
X123765174Y-88074524D01*
X123711069Y-88009276D01*
X123642839Y-87952426D01*
X123563594Y-87907114D01*
X123482140Y-87877925D01*
X123426335Y-87867938D01*
X123356891Y-87862055D01*
X123282683Y-87860436D01*
X123212588Y-87863243D01*
G36*
X135940743Y-80969171D02*
X135820471Y-80993296D01*
X135804539Y-80998256D01*
X135690349Y-81047197D01*
X135589785Y-81114791D01*
X135504198Y-81199686D01*
X135434936Y-81300530D01*
X135383349Y-81415970D01*
X135381131Y-81422480D01*
X135353757Y-81539655D01*
X135348728Y-81658105D01*
X135365289Y-81774925D01*
X135402687Y-81887211D01*
X135460169Y-81992058D01*
X135536983Y-82086563D01*
X135558950Y-82108076D01*
X135630234Y-82174787D01*
X135323361Y-83317563D01*
X135229472Y-83317879D01*
X134904812Y-83329612D01*
X134589967Y-83362621D01*
X134284747Y-83416951D01*
X133988963Y-83492643D01*
X133702423Y-83589744D01*
X133424937Y-83708295D01*
X133332729Y-83753442D01*
X133102246Y-83879240D01*
X132885712Y-84016993D01*
X132679309Y-84169534D01*
X132479217Y-84339695D01*
X132281618Y-84530309D01*
X132271984Y-84540172D01*
X132065795Y-84767680D01*
X131880368Y-85005713D01*
X131715561Y-85254566D01*
X131571235Y-85514536D01*
X131447247Y-85785920D01*
X131343458Y-86069012D01*
X131259725Y-86364111D01*
X131195909Y-86671511D01*
X131167098Y-86862146D01*
X131163790Y-86890195D01*
X131160840Y-86921933D01*
X131158218Y-86958888D01*
X131155896Y-87002584D01*
X131153845Y-87054549D01*
X131152035Y-87116307D01*
X131150438Y-87189386D01*
X131149024Y-87275311D01*
X131147764Y-87375608D01*
X131146630Y-87491803D01*
X131145592Y-87625423D01*
X131144622Y-87777994D01*
X131143690Y-87951041D01*
X131142801Y-88138443D01*
X131137707Y-89268039D01*
X139954985Y-89268039D01*
X139951915Y-88587347D01*
X139262415Y-88587347D01*
X131830277Y-88587347D01*
X131834911Y-87792229D01*
X131835860Y-87634981D01*
X131836781Y-87499194D01*
X131837740Y-87382857D01*
X131838802Y-87283957D01*
X131840029Y-87200484D01*
X131841488Y-87130427D01*
X131843243Y-87071773D01*
X131845357Y-87022513D01*
X131847895Y-86980634D01*
X131850922Y-86944125D01*
X131854502Y-86910975D01*
X131858700Y-86879173D01*
X131863579Y-86846707D01*
X131865606Y-86833900D01*
X131921751Y-86552260D01*
X131998414Y-86281754D01*
X132095478Y-86022619D01*
X132212826Y-85775096D01*
X132350338Y-85539423D01*
X132507899Y-85315839D01*
X132685389Y-85104584D01*
X132752461Y-85033330D01*
X132870034Y-84915890D01*
X132981338Y-84813461D01*
X133092340Y-84721019D01*
X133209006Y-84633546D01*
X133310638Y-84563629D01*
X133549158Y-84418621D01*
X133796205Y-84295408D01*
X134052065Y-84193885D01*
X134317020Y-84113948D01*
X134591352Y-84055493D01*
X134754162Y-84031479D01*
X134796966Y-84027793D01*
X134860392Y-84024583D01*
X134941594Y-84021848D01*
X135037727Y-84019590D01*
X135145945Y-84017807D01*
X135263403Y-84016500D01*
X135387254Y-84015668D01*
X135514655Y-84015313D01*
X135642758Y-84015433D01*
X135768718Y-84016029D01*
X135889691Y-84017101D01*
X136002830Y-84018649D01*
X136105289Y-84020673D01*
X136194224Y-84023172D01*
X136266789Y-84026148D01*
X136320137Y-84029599D01*
X136338530Y-84031479D01*
X136508186Y-84057405D01*
X136685063Y-84093172D01*
X136856495Y-84136158D01*
X136890297Y-84145763D01*
X137145443Y-84231993D01*
X137392270Y-84339496D01*
X137629441Y-84467134D01*
X137855617Y-84613772D01*
X138069461Y-84778272D01*
X138269637Y-84959497D01*
X138454805Y-85156311D01*
X138623630Y-85367577D01*
X138774773Y-85592157D01*
X138906897Y-85828915D01*
X138933116Y-85882184D01*
X139041265Y-86133093D01*
X139128712Y-86393096D01*
X139195937Y-86663742D01*
X139227086Y-86833900D01*
X139232239Y-86867136D01*
X139236686Y-86898952D01*
X139240491Y-86931359D01*
X139243718Y-86966367D01*
X139246433Y-87005988D01*
X139248699Y-87052233D01*
X139250581Y-87107114D01*
X139252144Y-87172642D01*
X139253451Y-87250828D01*
X139254568Y-87343684D01*
X139255558Y-87453220D01*
X139256486Y-87581449D01*
X139257416Y-87730381D01*
X139257781Y-87792229D01*
X139262415Y-88587347D01*
X139951915Y-88587347D01*
X139949891Y-88138443D01*
X139948968Y-87944237D01*
X139948035Y-87771977D01*
X139947063Y-87620136D01*
X139946022Y-87487190D01*
X139944884Y-87371612D01*
X139943619Y-87271875D01*
X139942199Y-87186454D01*
X139940594Y-87113823D01*
X139938776Y-87052455D01*
X139936715Y-87000825D01*
X139934382Y-86957406D01*
X139931749Y-86920672D01*
X139928786Y-86889097D01*
X139925594Y-86862146D01*
X139874787Y-86551954D01*
X139805088Y-86255104D01*
X139715976Y-85970329D01*
X139606930Y-85696362D01*
X139477431Y-85431937D01*
X139326956Y-85175786D01*
X139154986Y-84926643D01*
X139101047Y-84855556D01*
X139044326Y-84785982D01*
X138974108Y-84705607D01*
X138894706Y-84618918D01*
X138810434Y-84530404D01*
X138725603Y-84444552D01*
X138644527Y-84365851D01*
X138571518Y-84298788D01*
X138539042Y-84270734D01*
X138293626Y-84079440D01*
X138037858Y-83909132D01*
X137772143Y-83759993D01*
X137496889Y-83632209D01*
X137212502Y-83525960D01*
X136919389Y-83441433D01*
X136617956Y-83378808D01*
X136532175Y-83365232D01*
X136471026Y-83357492D01*
X136392526Y-83349505D01*
X136302788Y-83341783D01*
X136207922Y-83334836D01*
X136114038Y-83329174D01*
X136080337Y-83327486D01*
X136000741Y-83323639D01*
X135929271Y-83319968D01*
X135869156Y-83316656D01*
X135823625Y-83313887D01*
X135795908Y-83311844D01*
X135788758Y-83310904D01*
X135790885Y-83299304D01*
X135798584Y-83267333D01*
X135811260Y-83217268D01*
X135828321Y-83151386D01*
X135849173Y-83071965D01*
X135873224Y-82981281D01*
X135899879Y-82881612D01*
X135922481Y-82797674D01*
X136060249Y-82287539D01*
X136108435Y-82280117D01*
X136225744Y-82250549D01*
X136334468Y-82200514D01*
X136432189Y-82132195D01*
X136516490Y-82047773D01*
X136584954Y-81949427D01*
X136635162Y-81839341D01*
X136649825Y-81791634D01*
X136658162Y-81747803D01*
X136664277Y-81691871D01*
X136666966Y-81635188D01*
X136667001Y-81629555D01*
X136657433Y-81506240D01*
X136627717Y-81393900D01*
X136576884Y-81290101D01*
X136503970Y-81192412D01*
X136485007Y-81171644D01*
X136392839Y-81090382D01*
X136289607Y-81028810D01*
X136178033Y-80987622D01*
X136060837Y-80967511D01*
X135940743Y-80969171D01*
X135940743Y-80969171D01*
G37*
X135940743Y-80969171D02*
X135820471Y-80993296D01*
X135804539Y-80998256D01*
X135690349Y-81047197D01*
X135589785Y-81114791D01*
X135504198Y-81199686D01*
X135434936Y-81300530D01*
X135383349Y-81415970D01*
X135381131Y-81422480D01*
X135353757Y-81539655D01*
X135348728Y-81658105D01*
X135365289Y-81774925D01*
X135402687Y-81887211D01*
X135460169Y-81992058D01*
X135536983Y-82086563D01*
X135558950Y-82108076D01*
X135630234Y-82174787D01*
X135323361Y-83317563D01*
X135229472Y-83317879D01*
X134904812Y-83329612D01*
X134589967Y-83362621D01*
X134284747Y-83416951D01*
X133988963Y-83492643D01*
X133702423Y-83589744D01*
X133424937Y-83708295D01*
X133332729Y-83753442D01*
X133102246Y-83879240D01*
X132885712Y-84016993D01*
X132679309Y-84169534D01*
X132479217Y-84339695D01*
X132281618Y-84530309D01*
X132271984Y-84540172D01*
X132065795Y-84767680D01*
X131880368Y-85005713D01*
X131715561Y-85254566D01*
X131571235Y-85514536D01*
X131447247Y-85785920D01*
X131343458Y-86069012D01*
X131259725Y-86364111D01*
X131195909Y-86671511D01*
X131167098Y-86862146D01*
X131163790Y-86890195D01*
X131160840Y-86921933D01*
X131158218Y-86958888D01*
X131155896Y-87002584D01*
X131153845Y-87054549D01*
X131152035Y-87116307D01*
X131150438Y-87189386D01*
X131149024Y-87275311D01*
X131147764Y-87375608D01*
X131146630Y-87491803D01*
X131145592Y-87625423D01*
X131144622Y-87777994D01*
X131143690Y-87951041D01*
X131142801Y-88138443D01*
X131137707Y-89268039D01*
X139954985Y-89268039D01*
X139951915Y-88587347D01*
X139262415Y-88587347D01*
X131830277Y-88587347D01*
X131834911Y-87792229D01*
X131835860Y-87634981D01*
X131836781Y-87499194D01*
X131837740Y-87382857D01*
X131838802Y-87283957D01*
X131840029Y-87200484D01*
X131841488Y-87130427D01*
X131843243Y-87071773D01*
X131845357Y-87022513D01*
X131847895Y-86980634D01*
X131850922Y-86944125D01*
X131854502Y-86910975D01*
X131858700Y-86879173D01*
X131863579Y-86846707D01*
X131865606Y-86833900D01*
X131921751Y-86552260D01*
X131998414Y-86281754D01*
X132095478Y-86022619D01*
X132212826Y-85775096D01*
X132350338Y-85539423D01*
X132507899Y-85315839D01*
X132685389Y-85104584D01*
X132752461Y-85033330D01*
X132870034Y-84915890D01*
X132981338Y-84813461D01*
X133092340Y-84721019D01*
X133209006Y-84633546D01*
X133310638Y-84563629D01*
X133549158Y-84418621D01*
X133796205Y-84295408D01*
X134052065Y-84193885D01*
X134317020Y-84113948D01*
X134591352Y-84055493D01*
X134754162Y-84031479D01*
X134796966Y-84027793D01*
X134860392Y-84024583D01*
X134941594Y-84021848D01*
X135037727Y-84019590D01*
X135145945Y-84017807D01*
X135263403Y-84016500D01*
X135387254Y-84015668D01*
X135514655Y-84015313D01*
X135642758Y-84015433D01*
X135768718Y-84016029D01*
X135889691Y-84017101D01*
X136002830Y-84018649D01*
X136105289Y-84020673D01*
X136194224Y-84023172D01*
X136266789Y-84026148D01*
X136320137Y-84029599D01*
X136338530Y-84031479D01*
X136508186Y-84057405D01*
X136685063Y-84093172D01*
X136856495Y-84136158D01*
X136890297Y-84145763D01*
X137145443Y-84231993D01*
X137392270Y-84339496D01*
X137629441Y-84467134D01*
X137855617Y-84613772D01*
X138069461Y-84778272D01*
X138269637Y-84959497D01*
X138454805Y-85156311D01*
X138623630Y-85367577D01*
X138774773Y-85592157D01*
X138906897Y-85828915D01*
X138933116Y-85882184D01*
X139041265Y-86133093D01*
X139128712Y-86393096D01*
X139195937Y-86663742D01*
X139227086Y-86833900D01*
X139232239Y-86867136D01*
X139236686Y-86898952D01*
X139240491Y-86931359D01*
X139243718Y-86966367D01*
X139246433Y-87005988D01*
X139248699Y-87052233D01*
X139250581Y-87107114D01*
X139252144Y-87172642D01*
X139253451Y-87250828D01*
X139254568Y-87343684D01*
X139255558Y-87453220D01*
X139256486Y-87581449D01*
X139257416Y-87730381D01*
X139257781Y-87792229D01*
X139262415Y-88587347D01*
X139951915Y-88587347D01*
X139949891Y-88138443D01*
X139948968Y-87944237D01*
X139948035Y-87771977D01*
X139947063Y-87620136D01*
X139946022Y-87487190D01*
X139944884Y-87371612D01*
X139943619Y-87271875D01*
X139942199Y-87186454D01*
X139940594Y-87113823D01*
X139938776Y-87052455D01*
X139936715Y-87000825D01*
X139934382Y-86957406D01*
X139931749Y-86920672D01*
X139928786Y-86889097D01*
X139925594Y-86862146D01*
X139874787Y-86551954D01*
X139805088Y-86255104D01*
X139715976Y-85970329D01*
X139606930Y-85696362D01*
X139477431Y-85431937D01*
X139326956Y-85175786D01*
X139154986Y-84926643D01*
X139101047Y-84855556D01*
X139044326Y-84785982D01*
X138974108Y-84705607D01*
X138894706Y-84618918D01*
X138810434Y-84530404D01*
X138725603Y-84444552D01*
X138644527Y-84365851D01*
X138571518Y-84298788D01*
X138539042Y-84270734D01*
X138293626Y-84079440D01*
X138037858Y-83909132D01*
X137772143Y-83759993D01*
X137496889Y-83632209D01*
X137212502Y-83525960D01*
X136919389Y-83441433D01*
X136617956Y-83378808D01*
X136532175Y-83365232D01*
X136471026Y-83357492D01*
X136392526Y-83349505D01*
X136302788Y-83341783D01*
X136207922Y-83334836D01*
X136114038Y-83329174D01*
X136080337Y-83327486D01*
X136000741Y-83323639D01*
X135929271Y-83319968D01*
X135869156Y-83316656D01*
X135823625Y-83313887D01*
X135795908Y-83311844D01*
X135788758Y-83310904D01*
X135790885Y-83299304D01*
X135798584Y-83267333D01*
X135811260Y-83217268D01*
X135828321Y-83151386D01*
X135849173Y-83071965D01*
X135873224Y-82981281D01*
X135899879Y-82881612D01*
X135922481Y-82797674D01*
X136060249Y-82287539D01*
X136108435Y-82280117D01*
X136225744Y-82250549D01*
X136334468Y-82200514D01*
X136432189Y-82132195D01*
X136516490Y-82047773D01*
X136584954Y-81949427D01*
X136635162Y-81839341D01*
X136649825Y-81791634D01*
X136658162Y-81747803D01*
X136664277Y-81691871D01*
X136666966Y-81635188D01*
X136667001Y-81629555D01*
X136657433Y-81506240D01*
X136627717Y-81393900D01*
X136576884Y-81290101D01*
X136503970Y-81192412D01*
X136485007Y-81171644D01*
X136392839Y-81090382D01*
X136289607Y-81028810D01*
X136178033Y-80987622D01*
X136060837Y-80967511D01*
X135940743Y-80969171D01*
G36*
X125949537Y-87867403D02*
X125856717Y-87890756D01*
X125780027Y-87930188D01*
X125718606Y-87986117D01*
X125679187Y-88044294D01*
X125663987Y-88073467D01*
X125651264Y-88101869D01*
X125640798Y-88131839D01*
X125632369Y-88165717D01*
X125625759Y-88205841D01*
X125620747Y-88254550D01*
X125617113Y-88314183D01*
X125614639Y-88387078D01*
X125613104Y-88475575D01*
X125612289Y-88582013D01*
X125611975Y-88708730D01*
X125611941Y-88760454D01*
X125611768Y-89268039D01*
X125680859Y-89268039D01*
X125684945Y-88742850D01*
X125686053Y-88609742D01*
X125687301Y-88497851D01*
X125688946Y-88404921D01*
X125691246Y-88328696D01*
X125694459Y-88266921D01*
X125698842Y-88217340D01*
X125704653Y-88177697D01*
X125712149Y-88145738D01*
X125721588Y-88119207D01*
X125733227Y-88095848D01*
X125747325Y-88073406D01*
X125764111Y-88049662D01*
X125813605Y-88000392D01*
X125878877Y-87963864D01*
X125955729Y-87940493D01*
X126039965Y-87930697D01*
X126127387Y-87934889D01*
X126213798Y-87953487D01*
X126295002Y-87986906D01*
X126310486Y-87995544D01*
X126364690Y-88035540D01*
X126420232Y-88090498D01*
X126470686Y-88153229D01*
X126509626Y-88216545D01*
X126511649Y-88220598D01*
X126544785Y-88288078D01*
X126548204Y-88778058D01*
X126551622Y-89268039D01*
X126619756Y-89268039D01*
X126623829Y-88736982D01*
X126624936Y-88602281D01*
X126626192Y-88488861D01*
X126627864Y-88394531D01*
X126630218Y-88317100D01*
X126633519Y-88254377D01*
X126638034Y-88204172D01*
X126644030Y-88164293D01*
X126651771Y-88132550D01*
X126661523Y-88106752D01*
X126673554Y-88084708D01*
X126688129Y-88064227D01*
X126705513Y-88043118D01*
X126708504Y-88039617D01*
X126745018Y-88004812D01*
X126788792Y-87973450D01*
X126805591Y-87964146D01*
X126834392Y-87951521D01*
X126863194Y-87943390D01*
X126898329Y-87938809D01*
X126946129Y-87936831D01*
X126990755Y-87936489D01*
X127048798Y-87936856D01*
X127090014Y-87938889D01*
X127121044Y-87943815D01*
X127148527Y-87952861D01*
X127179106Y-87967255D01*
X127191303Y-87973540D01*
X127266455Y-88024061D01*
X127336604Y-88093123D01*
X127397262Y-88175802D01*
X127429834Y-88235265D01*
X127471934Y-88323286D01*
X127475250Y-88795662D01*
X127478565Y-89268039D01*
X127559954Y-89268039D01*
X127559954Y-87883183D01*
X127477802Y-87883183D01*
X127477692Y-88032818D01*
X127477582Y-88182453D01*
X127442789Y-88121789D01*
X127388317Y-88045856D01*
X127318062Y-87976368D01*
X127239638Y-87920416D01*
X127208896Y-87903993D01*
X127167306Y-87885469D01*
X127130292Y-87873674D01*
X127089285Y-87866719D01*
X127035718Y-87862717D01*
X127017807Y-87861889D01*
X126912456Y-87863930D01*
X126823253Y-87880386D01*
X126747190Y-87912110D01*
X126685862Y-87955836D01*
X126649542Y-87994267D01*
X126616395Y-88040624D01*
X126590512Y-88087997D01*
X126575983Y-88129481D01*
X126574240Y-88144311D01*
X126569956Y-88162613D01*
X126558832Y-88160309D01*
X126542977Y-88138493D01*
X126535659Y-88124289D01*
X126501672Y-88070541D01*
X126452389Y-88015207D01*
X126394380Y-87965228D01*
X126367413Y-87946485D01*
X126276807Y-87898791D01*
X126181657Y-87870484D01*
X126075979Y-87859879D01*
X126059345Y-87859711D01*
X125949537Y-87867403D01*
X125949537Y-87867403D01*
G37*
X125949537Y-87867403D02*
X125856717Y-87890756D01*
X125780027Y-87930188D01*
X125718606Y-87986117D01*
X125679187Y-88044294D01*
X125663987Y-88073467D01*
X125651264Y-88101869D01*
X125640798Y-88131839D01*
X125632369Y-88165717D01*
X125625759Y-88205841D01*
X125620747Y-88254550D01*
X125617113Y-88314183D01*
X125614639Y-88387078D01*
X125613104Y-88475575D01*
X125612289Y-88582013D01*
X125611975Y-88708730D01*
X125611941Y-88760454D01*
X125611768Y-89268039D01*
X125680859Y-89268039D01*
X125684945Y-88742850D01*
X125686053Y-88609742D01*
X125687301Y-88497851D01*
X125688946Y-88404921D01*
X125691246Y-88328696D01*
X125694459Y-88266921D01*
X125698842Y-88217340D01*
X125704653Y-88177697D01*
X125712149Y-88145738D01*
X125721588Y-88119207D01*
X125733227Y-88095848D01*
X125747325Y-88073406D01*
X125764111Y-88049662D01*
X125813605Y-88000392D01*
X125878877Y-87963864D01*
X125955729Y-87940493D01*
X126039965Y-87930697D01*
X126127387Y-87934889D01*
X126213798Y-87953487D01*
X126295002Y-87986906D01*
X126310486Y-87995544D01*
X126364690Y-88035540D01*
X126420232Y-88090498D01*
X126470686Y-88153229D01*
X126509626Y-88216545D01*
X126511649Y-88220598D01*
X126544785Y-88288078D01*
X126548204Y-88778058D01*
X126551622Y-89268039D01*
X126619756Y-89268039D01*
X126623829Y-88736982D01*
X126624936Y-88602281D01*
X126626192Y-88488861D01*
X126627864Y-88394531D01*
X126630218Y-88317100D01*
X126633519Y-88254377D01*
X126638034Y-88204172D01*
X126644030Y-88164293D01*
X126651771Y-88132550D01*
X126661523Y-88106752D01*
X126673554Y-88084708D01*
X126688129Y-88064227D01*
X126705513Y-88043118D01*
X126708504Y-88039617D01*
X126745018Y-88004812D01*
X126788792Y-87973450D01*
X126805591Y-87964146D01*
X126834392Y-87951521D01*
X126863194Y-87943390D01*
X126898329Y-87938809D01*
X126946129Y-87936831D01*
X126990755Y-87936489D01*
X127048798Y-87936856D01*
X127090014Y-87938889D01*
X127121044Y-87943815D01*
X127148527Y-87952861D01*
X127179106Y-87967255D01*
X127191303Y-87973540D01*
X127266455Y-88024061D01*
X127336604Y-88093123D01*
X127397262Y-88175802D01*
X127429834Y-88235265D01*
X127471934Y-88323286D01*
X127475250Y-88795662D01*
X127478565Y-89268039D01*
X127559954Y-89268039D01*
X127559954Y-87883183D01*
X127477802Y-87883183D01*
X127477692Y-88032818D01*
X127477582Y-88182453D01*
X127442789Y-88121789D01*
X127388317Y-88045856D01*
X127318062Y-87976368D01*
X127239638Y-87920416D01*
X127208896Y-87903993D01*
X127167306Y-87885469D01*
X127130292Y-87873674D01*
X127089285Y-87866719D01*
X127035718Y-87862717D01*
X127017807Y-87861889D01*
X126912456Y-87863930D01*
X126823253Y-87880386D01*
X126747190Y-87912110D01*
X126685862Y-87955836D01*
X126649542Y-87994267D01*
X126616395Y-88040624D01*
X126590512Y-88087997D01*
X126575983Y-88129481D01*
X126574240Y-88144311D01*
X126569956Y-88162613D01*
X126558832Y-88160309D01*
X126542977Y-88138493D01*
X126535659Y-88124289D01*
X126501672Y-88070541D01*
X126452389Y-88015207D01*
X126394380Y-87965228D01*
X126367413Y-87946485D01*
X126276807Y-87898791D01*
X126181657Y-87870484D01*
X126075979Y-87859879D01*
X126059345Y-87859711D01*
X125949537Y-87867403D01*
G36*
X121740081Y-87866153D02*
X121694252Y-87868409D01*
X121659976Y-87873156D01*
X121631300Y-87881197D01*
X121603902Y-87892587D01*
X121527116Y-87939585D01*
X121465593Y-88003306D01*
X121418525Y-88084762D01*
X121391974Y-88158981D01*
X121387017Y-88179081D01*
X121382843Y-88203154D01*
X121379354Y-88233477D01*
X121376451Y-88272327D01*
X121374037Y-88321983D01*
X121372012Y-88384723D01*
X121370278Y-88462822D01*
X121368737Y-88558561D01*
X121367290Y-88674215D01*
X121366482Y-88748718D01*
X121361070Y-89268039D01*
X121444164Y-89268039D01*
X121448043Y-88731114D01*
X121449011Y-88604121D01*
X121449986Y-88498376D01*
X121451067Y-88411652D01*
X121452356Y-88341725D01*
X121453955Y-88286369D01*
X121455965Y-88243360D01*
X121458488Y-88210473D01*
X121461625Y-88185482D01*
X121465476Y-88166162D01*
X121470144Y-88150288D01*
X121475099Y-88137178D01*
X121516525Y-88062168D01*
X121572638Y-88001377D01*
X121630339Y-87963433D01*
X121659905Y-87950535D01*
X121689653Y-87942369D01*
X121726199Y-87937920D01*
X121776164Y-87936173D01*
X121809283Y-87935996D01*
X121867082Y-87936585D01*
X121908463Y-87939179D01*
X121940469Y-87945014D01*
X121970141Y-87955328D01*
X122001185Y-87969715D01*
X122086173Y-88024340D01*
X122161556Y-88099543D01*
X122226054Y-88193957D01*
X122245575Y-88230793D01*
X122296330Y-88333188D01*
X122299769Y-88800614D01*
X122303209Y-89268039D01*
X122372614Y-89268039D01*
X122372614Y-87883183D01*
X122302198Y-87883183D01*
X122302035Y-88038686D01*
X122301872Y-88194189D01*
X122275629Y-88141860D01*
X122237318Y-88082515D01*
X122183386Y-88021575D01*
X122120356Y-87965234D01*
X122054749Y-87919684D01*
X122024916Y-87903783D01*
X121989227Y-87887480D01*
X121959797Y-87876623D01*
X121930228Y-87870109D01*
X121894125Y-87866834D01*
X121845092Y-87865696D01*
X121803415Y-87865579D01*
X121740081Y-87866153D01*
X121740081Y-87866153D01*
G37*
X121740081Y-87866153D02*
X121694252Y-87868409D01*
X121659976Y-87873156D01*
X121631300Y-87881197D01*
X121603902Y-87892587D01*
X121527116Y-87939585D01*
X121465593Y-88003306D01*
X121418525Y-88084762D01*
X121391974Y-88158981D01*
X121387017Y-88179081D01*
X121382843Y-88203154D01*
X121379354Y-88233477D01*
X121376451Y-88272327D01*
X121374037Y-88321983D01*
X121372012Y-88384723D01*
X121370278Y-88462822D01*
X121368737Y-88558561D01*
X121367290Y-88674215D01*
X121366482Y-88748718D01*
X121361070Y-89268039D01*
X121444164Y-89268039D01*
X121448043Y-88731114D01*
X121449011Y-88604121D01*
X121449986Y-88498376D01*
X121451067Y-88411652D01*
X121452356Y-88341725D01*
X121453955Y-88286369D01*
X121455965Y-88243360D01*
X121458488Y-88210473D01*
X121461625Y-88185482D01*
X121465476Y-88166162D01*
X121470144Y-88150288D01*
X121475099Y-88137178D01*
X121516525Y-88062168D01*
X121572638Y-88001377D01*
X121630339Y-87963433D01*
X121659905Y-87950535D01*
X121689653Y-87942369D01*
X121726199Y-87937920D01*
X121776164Y-87936173D01*
X121809283Y-87935996D01*
X121867082Y-87936585D01*
X121908463Y-87939179D01*
X121940469Y-87945014D01*
X121970141Y-87955328D01*
X122001185Y-87969715D01*
X122086173Y-88024340D01*
X122161556Y-88099543D01*
X122226054Y-88193957D01*
X122245575Y-88230793D01*
X122296330Y-88333188D01*
X122299769Y-88800614D01*
X122303209Y-89268039D01*
X122372614Y-89268039D01*
X122372614Y-87883183D01*
X122302198Y-87883183D01*
X122302035Y-88038686D01*
X122301872Y-88194189D01*
X122275629Y-88141860D01*
X122237318Y-88082515D01*
X122183386Y-88021575D01*
X122120356Y-87965234D01*
X122054749Y-87919684D01*
X122024916Y-87903783D01*
X121989227Y-87887480D01*
X121959797Y-87876623D01*
X121930228Y-87870109D01*
X121894125Y-87866834D01*
X121845092Y-87865696D01*
X121803415Y-87865579D01*
X121740081Y-87866153D01*
G36*
X128531885Y-85741637D02*
X128416472Y-85764835D01*
X128314375Y-85804589D01*
X128223062Y-85861877D01*
X128142544Y-85934969D01*
X128075788Y-86015145D01*
X128024502Y-86099778D01*
X127984549Y-86196318D01*
X127968385Y-86248359D01*
X127952452Y-86325533D01*
X127942907Y-86417624D01*
X127939747Y-86517137D01*
X127942969Y-86616574D01*
X127952571Y-86708439D01*
X127968548Y-86785234D01*
X127968610Y-86785449D01*
X128007123Y-86893914D01*
X128056968Y-86986658D01*
X128121857Y-87070162D01*
X128146715Y-87096303D01*
X128240666Y-87174850D01*
X128346713Y-87233320D01*
X128446027Y-87267234D01*
X128521125Y-87281324D01*
X128608461Y-87289352D01*
X128698360Y-87290995D01*
X128781142Y-87285924D01*
X128821581Y-87279876D01*
X128948795Y-87244805D01*
X129060540Y-87192197D01*
X129156652Y-87122172D01*
X129236966Y-87034853D01*
X129301319Y-86930358D01*
X129303131Y-86926694D01*
X129335613Y-86853492D01*
X129358845Y-86782463D01*
X129374427Y-86706581D01*
X129383959Y-86618818D01*
X129387498Y-86556146D01*
X129387002Y-86507974D01*
X128918597Y-86507974D01*
X128916153Y-86594480D01*
X128910188Y-86652637D01*
X128890772Y-86744354D01*
X128860880Y-86815940D01*
X128819513Y-86868737D01*
X128765669Y-86904089D01*
X128710089Y-86921281D01*
X128678458Y-86925721D01*
X128647263Y-86925048D01*
X128606821Y-86918750D01*
X128587075Y-86914788D01*
X128550184Y-86898074D01*
X128510681Y-86865962D01*
X128475014Y-86824707D01*
X128450314Y-86782172D01*
X128432703Y-86725524D01*
X128419894Y-86652429D01*
X128412499Y-86569539D01*
X128411131Y-86483501D01*
X128415755Y-86406956D01*
X128432270Y-86307062D01*
X128459214Y-86227721D01*
X128497124Y-86168203D01*
X128546535Y-86127775D01*
X128607984Y-86105707D01*
X128639576Y-86101581D01*
X128685771Y-86101266D01*
X128729660Y-86105835D01*
X128749732Y-86110565D01*
X128794054Y-86135638D01*
X128836290Y-86178066D01*
X128871414Y-86231914D01*
X128890049Y-86276175D01*
X128905125Y-86340973D01*
X128914781Y-86420856D01*
X128918597Y-86507974D01*
X129387002Y-86507974D01*
X129385994Y-86410139D01*
X129368052Y-86279341D01*
X129333127Y-86161687D01*
X129280675Y-86055114D01*
X129239098Y-85993677D01*
X129158775Y-85904140D01*
X129066838Y-85833922D01*
X128962362Y-85782605D01*
X128844420Y-85749770D01*
X128712084Y-85735000D01*
X128663144Y-85734019D01*
X128531885Y-85741637D01*
X128531885Y-85741637D01*
G37*
X128531885Y-85741637D02*
X128416472Y-85764835D01*
X128314375Y-85804589D01*
X128223062Y-85861877D01*
X128142544Y-85934969D01*
X128075788Y-86015145D01*
X128024502Y-86099778D01*
X127984549Y-86196318D01*
X127968385Y-86248359D01*
X127952452Y-86325533D01*
X127942907Y-86417624D01*
X127939747Y-86517137D01*
X127942969Y-86616574D01*
X127952571Y-86708439D01*
X127968548Y-86785234D01*
X127968610Y-86785449D01*
X128007123Y-86893914D01*
X128056968Y-86986658D01*
X128121857Y-87070162D01*
X128146715Y-87096303D01*
X128240666Y-87174850D01*
X128346713Y-87233320D01*
X128446027Y-87267234D01*
X128521125Y-87281324D01*
X128608461Y-87289352D01*
X128698360Y-87290995D01*
X128781142Y-87285924D01*
X128821581Y-87279876D01*
X128948795Y-87244805D01*
X129060540Y-87192197D01*
X129156652Y-87122172D01*
X129236966Y-87034853D01*
X129301319Y-86930358D01*
X129303131Y-86926694D01*
X129335613Y-86853492D01*
X129358845Y-86782463D01*
X129374427Y-86706581D01*
X129383959Y-86618818D01*
X129387498Y-86556146D01*
X129387002Y-86507974D01*
X128918597Y-86507974D01*
X128916153Y-86594480D01*
X128910188Y-86652637D01*
X128890772Y-86744354D01*
X128860880Y-86815940D01*
X128819513Y-86868737D01*
X128765669Y-86904089D01*
X128710089Y-86921281D01*
X128678458Y-86925721D01*
X128647263Y-86925048D01*
X128606821Y-86918750D01*
X128587075Y-86914788D01*
X128550184Y-86898074D01*
X128510681Y-86865962D01*
X128475014Y-86824707D01*
X128450314Y-86782172D01*
X128432703Y-86725524D01*
X128419894Y-86652429D01*
X128412499Y-86569539D01*
X128411131Y-86483501D01*
X128415755Y-86406956D01*
X128432270Y-86307062D01*
X128459214Y-86227721D01*
X128497124Y-86168203D01*
X128546535Y-86127775D01*
X128607984Y-86105707D01*
X128639576Y-86101581D01*
X128685771Y-86101266D01*
X128729660Y-86105835D01*
X128749732Y-86110565D01*
X128794054Y-86135638D01*
X128836290Y-86178066D01*
X128871414Y-86231914D01*
X128890049Y-86276175D01*
X128905125Y-86340973D01*
X128914781Y-86420856D01*
X128918597Y-86507974D01*
X129387002Y-86507974D01*
X129385994Y-86410139D01*
X129368052Y-86279341D01*
X129333127Y-86161687D01*
X129280675Y-86055114D01*
X129239098Y-85993677D01*
X129158775Y-85904140D01*
X129066838Y-85833922D01*
X128962362Y-85782605D01*
X128844420Y-85749770D01*
X128712084Y-85735000D01*
X128663144Y-85734019D01*
X128531885Y-85741637D01*
G36*
X127257584Y-85497522D02*
X127254483Y-85863967D01*
X127194288Y-85818407D01*
X127119829Y-85772938D01*
X127038067Y-85745191D01*
X126944152Y-85733715D01*
X126910154Y-85733246D01*
X126794183Y-85744428D01*
X126690167Y-85775743D01*
X126598367Y-85826968D01*
X126519050Y-85897881D01*
X126452478Y-85988259D01*
X126398917Y-86097880D01*
X126368428Y-86189053D01*
X126359177Y-86235595D01*
X126351618Y-86299964D01*
X126345930Y-86376561D01*
X126342288Y-86459789D01*
X126340869Y-86544051D01*
X126341851Y-86623750D01*
X126345410Y-86693288D01*
X126350942Y-86742434D01*
X126381036Y-86874294D01*
X126425853Y-86989298D01*
X126484955Y-87086837D01*
X126557905Y-87166297D01*
X126644265Y-87227069D01*
X126723134Y-87261966D01*
X126792702Y-87279639D01*
X126871065Y-87289546D01*
X126949280Y-87291209D01*
X127018399Y-87284151D01*
X127040867Y-87278957D01*
X127106758Y-87256899D01*
X127159834Y-87229459D01*
X127210746Y-87190632D01*
X127232498Y-87170937D01*
X127288642Y-87118420D01*
X127296718Y-87189796D01*
X127304793Y-87261172D01*
X127736119Y-87261172D01*
X127733128Y-86197794D01*
X127254817Y-86197794D01*
X127254817Y-86509755D01*
X127254717Y-86608710D01*
X127254060Y-86686978D01*
X127252308Y-86747344D01*
X127248924Y-86792592D01*
X127243372Y-86825507D01*
X127235114Y-86848874D01*
X127223613Y-86865478D01*
X127208331Y-86878103D01*
X127188733Y-86889534D01*
X127180754Y-86893769D01*
X127117782Y-86916794D01*
X127048707Y-86925356D01*
X126981445Y-86919373D01*
X126923911Y-86898766D01*
X126919892Y-86896439D01*
X126881397Y-86862922D01*
X126851528Y-86812990D01*
X126829897Y-86745272D01*
X126816118Y-86658396D01*
X126809805Y-86550990D01*
X126809283Y-86504196D01*
X126814557Y-86387664D01*
X126830333Y-86290497D01*
X126856444Y-86213178D01*
X126892726Y-86156185D01*
X126939013Y-86120002D01*
X126941603Y-86118740D01*
X126985445Y-86105835D01*
X127040959Y-86100016D01*
X127097328Y-86101651D01*
X127143734Y-86111112D01*
X127145494Y-86111757D01*
X127175042Y-86127982D01*
X127208020Y-86153081D01*
X127216675Y-86161004D01*
X127254817Y-86197794D01*
X127733128Y-86197794D01*
X127733123Y-86196124D01*
X127730127Y-85131076D01*
X127260685Y-85131076D01*
X127257584Y-85497522D01*
X127257584Y-85497522D01*
G37*
X127257584Y-85497522D02*
X127254483Y-85863967D01*
X127194288Y-85818407D01*
X127119829Y-85772938D01*
X127038067Y-85745191D01*
X126944152Y-85733715D01*
X126910154Y-85733246D01*
X126794183Y-85744428D01*
X126690167Y-85775743D01*
X126598367Y-85826968D01*
X126519050Y-85897881D01*
X126452478Y-85988259D01*
X126398917Y-86097880D01*
X126368428Y-86189053D01*
X126359177Y-86235595D01*
X126351618Y-86299964D01*
X126345930Y-86376561D01*
X126342288Y-86459789D01*
X126340869Y-86544051D01*
X126341851Y-86623750D01*
X126345410Y-86693288D01*
X126350942Y-86742434D01*
X126381036Y-86874294D01*
X126425853Y-86989298D01*
X126484955Y-87086837D01*
X126557905Y-87166297D01*
X126644265Y-87227069D01*
X126723134Y-87261966D01*
X126792702Y-87279639D01*
X126871065Y-87289546D01*
X126949280Y-87291209D01*
X127018399Y-87284151D01*
X127040867Y-87278957D01*
X127106758Y-87256899D01*
X127159834Y-87229459D01*
X127210746Y-87190632D01*
X127232498Y-87170937D01*
X127288642Y-87118420D01*
X127296718Y-87189796D01*
X127304793Y-87261172D01*
X127736119Y-87261172D01*
X127733128Y-86197794D01*
X127254817Y-86197794D01*
X127254817Y-86509755D01*
X127254717Y-86608710D01*
X127254060Y-86686978D01*
X127252308Y-86747344D01*
X127248924Y-86792592D01*
X127243372Y-86825507D01*
X127235114Y-86848874D01*
X127223613Y-86865478D01*
X127208331Y-86878103D01*
X127188733Y-86889534D01*
X127180754Y-86893769D01*
X127117782Y-86916794D01*
X127048707Y-86925356D01*
X126981445Y-86919373D01*
X126923911Y-86898766D01*
X126919892Y-86896439D01*
X126881397Y-86862922D01*
X126851528Y-86812990D01*
X126829897Y-86745272D01*
X126816118Y-86658396D01*
X126809805Y-86550990D01*
X126809283Y-86504196D01*
X126814557Y-86387664D01*
X126830333Y-86290497D01*
X126856444Y-86213178D01*
X126892726Y-86156185D01*
X126939013Y-86120002D01*
X126941603Y-86118740D01*
X126985445Y-86105835D01*
X127040959Y-86100016D01*
X127097328Y-86101651D01*
X127143734Y-86111112D01*
X127145494Y-86111757D01*
X127175042Y-86127982D01*
X127208020Y-86153081D01*
X127216675Y-86161004D01*
X127254817Y-86197794D01*
X127733128Y-86197794D01*
X127733123Y-86196124D01*
X127730127Y-85131076D01*
X127260685Y-85131076D01*
X127257584Y-85497522D01*
G36*
X125333157Y-85740935D02*
X125216423Y-85765176D01*
X125112344Y-85806741D01*
X125018400Y-85866582D01*
X124949238Y-85927860D01*
X124881427Y-86005579D01*
X124828973Y-86088870D01*
X124788338Y-86184123D01*
X124765491Y-86259593D01*
X124750651Y-86337112D01*
X124741969Y-86429016D01*
X124739460Y-86527533D01*
X124743134Y-86624889D01*
X124753004Y-86713313D01*
X124764705Y-86769942D01*
X124808387Y-86892564D01*
X124869647Y-87001578D01*
X124947013Y-87095455D01*
X125039014Y-87172664D01*
X125144178Y-87231675D01*
X125242082Y-87266189D01*
X125300804Y-87277764D01*
X125373441Y-87286085D01*
X125451182Y-87290672D01*
X125525214Y-87291045D01*
X125586726Y-87286724D01*
X125595557Y-87285448D01*
X125723629Y-87254202D01*
X125838151Y-87203999D01*
X125938274Y-87135620D01*
X126023147Y-87049848D01*
X126091922Y-86947463D01*
X126143748Y-86829248D01*
X126163441Y-86762871D01*
X126174420Y-86704068D01*
X126182525Y-86629933D01*
X126187446Y-86548226D01*
X126187940Y-86519972D01*
X125714936Y-86519972D01*
X125712721Y-86591293D01*
X125708253Y-86657862D01*
X125701720Y-86713122D01*
X125694724Y-86746166D01*
X125668450Y-86805763D01*
X125629834Y-86859524D01*
X125597858Y-86889197D01*
X125548913Y-86912991D01*
X125488274Y-86924439D01*
X125424494Y-86923069D01*
X125366128Y-86908406D01*
X125353574Y-86902705D01*
X125303598Y-86866743D01*
X125265039Y-86814628D01*
X125237548Y-86745254D01*
X125220773Y-86657511D01*
X125214367Y-86550290D01*
X125215745Y-86465921D01*
X125224672Y-86357509D01*
X125242292Y-86269946D01*
X125269482Y-86201950D01*
X125307120Y-86152238D01*
X125356084Y-86119527D01*
X125417250Y-86102533D01*
X125466502Y-86099302D01*
X125538714Y-86109377D01*
X125598935Y-86139612D01*
X125647176Y-86190017D01*
X125683448Y-86260605D01*
X125706199Y-86343069D01*
X125711861Y-86389303D01*
X125714711Y-86450456D01*
X125714936Y-86519972D01*
X126187940Y-86519972D01*
X126188872Y-86466704D01*
X126186493Y-86393128D01*
X126180448Y-86337788D01*
X126146888Y-86202998D01*
X126095449Y-86083335D01*
X126026038Y-85978608D01*
X125976127Y-85923261D01*
X125886600Y-85848487D01*
X125787161Y-85792870D01*
X125676001Y-85755733D01*
X125551307Y-85736404D01*
X125465067Y-85733066D01*
X125333157Y-85740935D01*
X125333157Y-85740935D01*
G37*
X125333157Y-85740935D02*
X125216423Y-85765176D01*
X125112344Y-85806741D01*
X125018400Y-85866582D01*
X124949238Y-85927860D01*
X124881427Y-86005579D01*
X124828973Y-86088870D01*
X124788338Y-86184123D01*
X124765491Y-86259593D01*
X124750651Y-86337112D01*
X124741969Y-86429016D01*
X124739460Y-86527533D01*
X124743134Y-86624889D01*
X124753004Y-86713313D01*
X124764705Y-86769942D01*
X124808387Y-86892564D01*
X124869647Y-87001578D01*
X124947013Y-87095455D01*
X125039014Y-87172664D01*
X125144178Y-87231675D01*
X125242082Y-87266189D01*
X125300804Y-87277764D01*
X125373441Y-87286085D01*
X125451182Y-87290672D01*
X125525214Y-87291045D01*
X125586726Y-87286724D01*
X125595557Y-87285448D01*
X125723629Y-87254202D01*
X125838151Y-87203999D01*
X125938274Y-87135620D01*
X126023147Y-87049848D01*
X126091922Y-86947463D01*
X126143748Y-86829248D01*
X126163441Y-86762871D01*
X126174420Y-86704068D01*
X126182525Y-86629933D01*
X126187446Y-86548226D01*
X126187940Y-86519972D01*
X125714936Y-86519972D01*
X125712721Y-86591293D01*
X125708253Y-86657862D01*
X125701720Y-86713122D01*
X125694724Y-86746166D01*
X125668450Y-86805763D01*
X125629834Y-86859524D01*
X125597858Y-86889197D01*
X125548913Y-86912991D01*
X125488274Y-86924439D01*
X125424494Y-86923069D01*
X125366128Y-86908406D01*
X125353574Y-86902705D01*
X125303598Y-86866743D01*
X125265039Y-86814628D01*
X125237548Y-86745254D01*
X125220773Y-86657511D01*
X125214367Y-86550290D01*
X125215745Y-86465921D01*
X125224672Y-86357509D01*
X125242292Y-86269946D01*
X125269482Y-86201950D01*
X125307120Y-86152238D01*
X125356084Y-86119527D01*
X125417250Y-86102533D01*
X125466502Y-86099302D01*
X125538714Y-86109377D01*
X125598935Y-86139612D01*
X125647176Y-86190017D01*
X125683448Y-86260605D01*
X125706199Y-86343069D01*
X125711861Y-86389303D01*
X125714711Y-86450456D01*
X125714936Y-86519972D01*
X126187940Y-86519972D01*
X126188872Y-86466704D01*
X126186493Y-86393128D01*
X126180448Y-86337788D01*
X126146888Y-86202998D01*
X126095449Y-86083335D01*
X126026038Y-85978608D01*
X125976127Y-85923261D01*
X125886600Y-85848487D01*
X125787161Y-85792870D01*
X125676001Y-85755733D01*
X125551307Y-85736404D01*
X125465067Y-85733066D01*
X125333157Y-85740935D01*
G36*
X123980455Y-85758956D02*
X123733997Y-85758956D01*
X123733997Y-86087565D01*
X123980455Y-86087565D01*
X123980455Y-86462567D01*
X123980044Y-86586600D01*
X123978802Y-86687584D01*
X123976715Y-86765924D01*
X123973770Y-86822030D01*
X123969954Y-86856310D01*
X123967196Y-86866668D01*
X123944863Y-86894982D01*
X123907287Y-86912293D01*
X123852028Y-86919389D01*
X123805404Y-86918895D01*
X123722209Y-86914958D01*
X123722262Y-87257141D01*
X123783876Y-87271382D01*
X123828263Y-87278975D01*
X123886023Y-87285216D01*
X123949502Y-87289666D01*
X124011045Y-87291890D01*
X124062998Y-87291450D01*
X124091948Y-87288974D01*
X124184733Y-87265846D01*
X124267664Y-87227979D01*
X124337212Y-87177717D01*
X124389853Y-87117404D01*
X124412491Y-87075905D01*
X124425112Y-87043239D01*
X124435439Y-87007840D01*
X124443685Y-86967082D01*
X124450066Y-86918337D01*
X124454798Y-86858978D01*
X124458097Y-86786379D01*
X124460177Y-86697912D01*
X124461255Y-86590952D01*
X124461545Y-86477790D01*
X124461634Y-86087565D01*
X124649410Y-86087565D01*
X124649410Y-85758956D01*
X124461634Y-85758956D01*
X124461634Y-85383402D01*
X123980455Y-85383402D01*
X123980455Y-85758956D01*
X123980455Y-85758956D01*
G37*
X123980455Y-85758956D02*
X123733997Y-85758956D01*
X123733997Y-86087565D01*
X123980455Y-86087565D01*
X123980455Y-86462567D01*
X123980044Y-86586600D01*
X123978802Y-86687584D01*
X123976715Y-86765924D01*
X123973770Y-86822030D01*
X123969954Y-86856310D01*
X123967196Y-86866668D01*
X123944863Y-86894982D01*
X123907287Y-86912293D01*
X123852028Y-86919389D01*
X123805404Y-86918895D01*
X123722209Y-86914958D01*
X123722262Y-87257141D01*
X123783876Y-87271382D01*
X123828263Y-87278975D01*
X123886023Y-87285216D01*
X123949502Y-87289666D01*
X124011045Y-87291890D01*
X124062998Y-87291450D01*
X124091948Y-87288974D01*
X124184733Y-87265846D01*
X124267664Y-87227979D01*
X124337212Y-87177717D01*
X124389853Y-87117404D01*
X124412491Y-87075905D01*
X124425112Y-87043239D01*
X124435439Y-87007840D01*
X124443685Y-86967082D01*
X124450066Y-86918337D01*
X124454798Y-86858978D01*
X124458097Y-86786379D01*
X124460177Y-86697912D01*
X124461255Y-86590952D01*
X124461545Y-86477790D01*
X124461634Y-86087565D01*
X124649410Y-86087565D01*
X124649410Y-85758956D01*
X124461634Y-85758956D01*
X124461634Y-85383402D01*
X123980455Y-85383402D01*
X123980455Y-85758956D01*
G36*
X122033820Y-85737614D02*
X121963995Y-85745887D01*
X121932512Y-85752583D01*
X121829494Y-85789528D01*
X121735357Y-85842277D01*
X121653855Y-85907940D01*
X121588739Y-85983627D01*
X121553071Y-86044897D01*
X121530875Y-86101564D01*
X121511780Y-86167416D01*
X121498215Y-86232598D01*
X121492613Y-86287259D01*
X121492583Y-86290013D01*
X121492409Y-86334023D01*
X121938380Y-86334023D01*
X121938380Y-86295433D01*
X121947416Y-86246692D01*
X121971067Y-86194842D01*
X122004144Y-86149377D01*
X122031070Y-86125802D01*
X122081348Y-86104669D01*
X122140478Y-86098059D01*
X122199098Y-86105966D01*
X122244437Y-86125987D01*
X122283607Y-86158881D01*
X122313697Y-86200190D01*
X122335589Y-86252822D01*
X122350162Y-86319681D01*
X122358297Y-86403674D01*
X122360877Y-86507707D01*
X122360878Y-86510064D01*
X122357474Y-86625194D01*
X122346747Y-86719213D01*
X122327926Y-86793553D01*
X122300239Y-86849643D01*
X122262914Y-86888911D01*
X122215180Y-86912788D01*
X122156264Y-86922704D01*
X122137893Y-86923173D01*
X122071508Y-86914320D01*
X122014978Y-86889627D01*
X121971739Y-86851896D01*
X121945231Y-86803926D01*
X121938380Y-86760654D01*
X121938380Y-86721313D01*
X121492409Y-86721313D01*
X121492549Y-86765323D01*
X121499033Y-86825070D01*
X121516448Y-86894557D01*
X121542225Y-86964322D01*
X121552694Y-86986945D01*
X121599497Y-87058968D01*
X121665153Y-87126885D01*
X121745050Y-87187135D01*
X121834576Y-87236161D01*
X121914908Y-87266383D01*
X121981159Y-87280397D01*
X122061543Y-87288778D01*
X122147331Y-87291217D01*
X122229796Y-87287409D01*
X122288128Y-87279540D01*
X122407937Y-87245539D01*
X122515083Y-87192177D01*
X122608524Y-87120489D01*
X122687219Y-87031506D01*
X122750123Y-86926263D01*
X122796196Y-86805793D01*
X122806971Y-86765210D01*
X122821460Y-86682073D01*
X122829524Y-86585631D01*
X122831165Y-86483826D01*
X122826386Y-86384599D01*
X122815186Y-86295893D01*
X122806857Y-86256682D01*
X122764340Y-86129023D01*
X122705721Y-86018044D01*
X122631388Y-85924153D01*
X122541723Y-85847757D01*
X122437113Y-85789265D01*
X122331538Y-85752540D01*
X122270873Y-85741604D01*
X122195522Y-85735472D01*
X122113750Y-85734142D01*
X122033820Y-85737614D01*
X122033820Y-85737614D01*
G37*
X122033820Y-85737614D02*
X121963995Y-85745887D01*
X121932512Y-85752583D01*
X121829494Y-85789528D01*
X121735357Y-85842277D01*
X121653855Y-85907940D01*
X121588739Y-85983627D01*
X121553071Y-86044897D01*
X121530875Y-86101564D01*
X121511780Y-86167416D01*
X121498215Y-86232598D01*
X121492613Y-86287259D01*
X121492583Y-86290013D01*
X121492409Y-86334023D01*
X121938380Y-86334023D01*
X121938380Y-86295433D01*
X121947416Y-86246692D01*
X121971067Y-86194842D01*
X122004144Y-86149377D01*
X122031070Y-86125802D01*
X122081348Y-86104669D01*
X122140478Y-86098059D01*
X122199098Y-86105966D01*
X122244437Y-86125987D01*
X122283607Y-86158881D01*
X122313697Y-86200190D01*
X122335589Y-86252822D01*
X122350162Y-86319681D01*
X122358297Y-86403674D01*
X122360877Y-86507707D01*
X122360878Y-86510064D01*
X122357474Y-86625194D01*
X122346747Y-86719213D01*
X122327926Y-86793553D01*
X122300239Y-86849643D01*
X122262914Y-86888911D01*
X122215180Y-86912788D01*
X122156264Y-86922704D01*
X122137893Y-86923173D01*
X122071508Y-86914320D01*
X122014978Y-86889627D01*
X121971739Y-86851896D01*
X121945231Y-86803926D01*
X121938380Y-86760654D01*
X121938380Y-86721313D01*
X121492409Y-86721313D01*
X121492549Y-86765323D01*
X121499033Y-86825070D01*
X121516448Y-86894557D01*
X121542225Y-86964322D01*
X121552694Y-86986945D01*
X121599497Y-87058968D01*
X121665153Y-87126885D01*
X121745050Y-87187135D01*
X121834576Y-87236161D01*
X121914908Y-87266383D01*
X121981159Y-87280397D01*
X122061543Y-87288778D01*
X122147331Y-87291217D01*
X122229796Y-87287409D01*
X122288128Y-87279540D01*
X122407937Y-87245539D01*
X122515083Y-87192177D01*
X122608524Y-87120489D01*
X122687219Y-87031506D01*
X122750123Y-86926263D01*
X122796196Y-86805793D01*
X122806971Y-86765210D01*
X122821460Y-86682073D01*
X122829524Y-86585631D01*
X122831165Y-86483826D01*
X122826386Y-86384599D01*
X122815186Y-86295893D01*
X122806857Y-86256682D01*
X122764340Y-86129023D01*
X122705721Y-86018044D01*
X122631388Y-85924153D01*
X122541723Y-85847757D01*
X122437113Y-85789265D01*
X122331538Y-85752540D01*
X122270873Y-85741604D01*
X122195522Y-85735472D01*
X122113750Y-85734142D01*
X122033820Y-85737614D01*
G36*
X120574519Y-85740258D02*
X120460210Y-85759451D01*
X120360261Y-85792592D01*
X120271764Y-85840657D01*
X120191812Y-85904621D01*
X120188806Y-85907471D01*
X120128650Y-85977224D01*
X120085349Y-86053949D01*
X120061419Y-86132705D01*
X120057751Y-86165149D01*
X120054741Y-86222530D01*
X120523786Y-86222530D01*
X120530614Y-86181454D01*
X120546877Y-86125144D01*
X120574898Y-86086933D01*
X120597882Y-86071496D01*
X120666106Y-86047373D01*
X120732831Y-86043925D01*
X120794158Y-86060810D01*
X120841372Y-86092970D01*
X120867800Y-86121898D01*
X120879655Y-86149283D01*
X120882134Y-86181065D01*
X120876222Y-86221142D01*
X120857120Y-86254874D01*
X120822777Y-86283534D01*
X120771142Y-86308392D01*
X120700165Y-86330721D01*
X120607796Y-86351792D01*
X120606337Y-86352085D01*
X120467142Y-86385696D01*
X120349675Y-86426700D01*
X120253176Y-86475758D01*
X120176887Y-86533531D01*
X120120050Y-86600680D01*
X120081904Y-86677867D01*
X120061692Y-86765752D01*
X120057807Y-86830007D01*
X120059079Y-86882202D01*
X120064885Y-86921834D01*
X120077619Y-86959714D01*
X120094778Y-86996778D01*
X120146135Y-87075461D01*
X120216852Y-87144808D01*
X120303950Y-87202687D01*
X120404451Y-87246967D01*
X120471992Y-87266612D01*
X120535619Y-87277997D01*
X120612231Y-87286064D01*
X120693405Y-87290414D01*
X120770717Y-87290651D01*
X120835744Y-87286377D01*
X120849786Y-87284448D01*
X120926908Y-87267436D01*
X121007986Y-87241485D01*
X121083583Y-87210011D01*
X121139334Y-87179657D01*
X121220915Y-87115418D01*
X121288498Y-87037964D01*
X121339151Y-86951551D01*
X121369946Y-86860431D01*
X121373922Y-86839184D01*
X121383279Y-86779993D01*
X120943601Y-86779993D01*
X120931004Y-86830021D01*
X120905798Y-86889138D01*
X120863492Y-86932989D01*
X120803531Y-86961965D01*
X120725359Y-86976459D01*
X120723317Y-86976627D01*
X120656621Y-86974691D01*
X120600503Y-86959336D01*
X120556548Y-86933450D01*
X120526343Y-86899919D01*
X120511472Y-86861630D01*
X120513521Y-86821471D01*
X120534075Y-86782329D01*
X120574720Y-86747090D01*
X120591890Y-86737284D01*
X120614402Y-86728489D01*
X120654823Y-86715430D01*
X120708300Y-86699571D01*
X120769981Y-86682378D01*
X120802309Y-86673758D01*
X120919154Y-86640268D01*
X121015473Y-86606156D01*
X121094199Y-86570084D01*
X121158267Y-86530715D01*
X121208846Y-86488440D01*
X121256488Y-86438134D01*
X121288967Y-86392073D01*
X121308954Y-86343574D01*
X121319119Y-86285955D01*
X121322132Y-86212534D01*
X121322144Y-86204926D01*
X121318795Y-86124047D01*
X121307159Y-86059406D01*
X121284654Y-86004472D01*
X121248694Y-85952714D01*
X121202929Y-85903685D01*
X121123274Y-85838355D01*
X121032983Y-85789523D01*
X120929814Y-85756423D01*
X120811524Y-85738289D01*
X120706093Y-85734041D01*
X120574519Y-85740258D01*
X120574519Y-85740258D01*
G37*
X120574519Y-85740258D02*
X120460210Y-85759451D01*
X120360261Y-85792592D01*
X120271764Y-85840657D01*
X120191812Y-85904621D01*
X120188806Y-85907471D01*
X120128650Y-85977224D01*
X120085349Y-86053949D01*
X120061419Y-86132705D01*
X120057751Y-86165149D01*
X120054741Y-86222530D01*
X120523786Y-86222530D01*
X120530614Y-86181454D01*
X120546877Y-86125144D01*
X120574898Y-86086933D01*
X120597882Y-86071496D01*
X120666106Y-86047373D01*
X120732831Y-86043925D01*
X120794158Y-86060810D01*
X120841372Y-86092970D01*
X120867800Y-86121898D01*
X120879655Y-86149283D01*
X120882134Y-86181065D01*
X120876222Y-86221142D01*
X120857120Y-86254874D01*
X120822777Y-86283534D01*
X120771142Y-86308392D01*
X120700165Y-86330721D01*
X120607796Y-86351792D01*
X120606337Y-86352085D01*
X120467142Y-86385696D01*
X120349675Y-86426700D01*
X120253176Y-86475758D01*
X120176887Y-86533531D01*
X120120050Y-86600680D01*
X120081904Y-86677867D01*
X120061692Y-86765752D01*
X120057807Y-86830007D01*
X120059079Y-86882202D01*
X120064885Y-86921834D01*
X120077619Y-86959714D01*
X120094778Y-86996778D01*
X120146135Y-87075461D01*
X120216852Y-87144808D01*
X120303950Y-87202687D01*
X120404451Y-87246967D01*
X120471992Y-87266612D01*
X120535619Y-87277997D01*
X120612231Y-87286064D01*
X120693405Y-87290414D01*
X120770717Y-87290651D01*
X120835744Y-87286377D01*
X120849786Y-87284448D01*
X120926908Y-87267436D01*
X121007986Y-87241485D01*
X121083583Y-87210011D01*
X121139334Y-87179657D01*
X121220915Y-87115418D01*
X121288498Y-87037964D01*
X121339151Y-86951551D01*
X121369946Y-86860431D01*
X121373922Y-86839184D01*
X121383279Y-86779993D01*
X120943601Y-86779993D01*
X120931004Y-86830021D01*
X120905798Y-86889138D01*
X120863492Y-86932989D01*
X120803531Y-86961965D01*
X120725359Y-86976459D01*
X120723317Y-86976627D01*
X120656621Y-86974691D01*
X120600503Y-86959336D01*
X120556548Y-86933450D01*
X120526343Y-86899919D01*
X120511472Y-86861630D01*
X120513521Y-86821471D01*
X120534075Y-86782329D01*
X120574720Y-86747090D01*
X120591890Y-86737284D01*
X120614402Y-86728489D01*
X120654823Y-86715430D01*
X120708300Y-86699571D01*
X120769981Y-86682378D01*
X120802309Y-86673758D01*
X120919154Y-86640268D01*
X121015473Y-86606156D01*
X121094199Y-86570084D01*
X121158267Y-86530715D01*
X121208846Y-86488440D01*
X121256488Y-86438134D01*
X121288967Y-86392073D01*
X121308954Y-86343574D01*
X121319119Y-86285955D01*
X121322132Y-86212534D01*
X121322144Y-86204926D01*
X121318795Y-86124047D01*
X121307159Y-86059406D01*
X121284654Y-86004472D01*
X121248694Y-85952714D01*
X121202929Y-85903685D01*
X121123274Y-85838355D01*
X121032983Y-85789523D01*
X120929814Y-85756423D01*
X120811524Y-85738289D01*
X120706093Y-85734041D01*
X120574519Y-85740258D01*
G36*
X129504181Y-85733991D02*
X129469298Y-85738843D01*
X129449435Y-85751358D01*
X129440369Y-85775670D01*
X129437879Y-85815914D01*
X129437785Y-85850701D01*
X129438703Y-85911889D01*
X129441083Y-85983276D01*
X129444460Y-86051669D01*
X129445416Y-86066913D01*
X129452986Y-86181225D01*
X129572985Y-86180492D01*
X129652464Y-86181984D01*
X129713670Y-86188432D01*
X129761516Y-86201139D01*
X129800915Y-86221411D01*
X129836725Y-86250499D01*
X129883695Y-86295180D01*
X129883695Y-87261172D01*
X130353138Y-87261172D01*
X130353138Y-85758438D01*
X129913035Y-85764824D01*
X129909457Y-85835240D01*
X129906114Y-85874305D01*
X129901105Y-85903589D01*
X129896690Y-85914902D01*
X129885411Y-85911705D01*
X129866976Y-85893221D01*
X129855826Y-85878439D01*
X129797435Y-85814053D01*
X129725006Y-85767469D01*
X129641194Y-85739989D01*
X129558306Y-85732665D01*
X129504181Y-85733991D01*
X129504181Y-85733991D01*
G37*
X129504181Y-85733991D02*
X129469298Y-85738843D01*
X129449435Y-85751358D01*
X129440369Y-85775670D01*
X129437879Y-85815914D01*
X129437785Y-85850701D01*
X129438703Y-85911889D01*
X129441083Y-85983276D01*
X129444460Y-86051669D01*
X129445416Y-86066913D01*
X129452986Y-86181225D01*
X129572985Y-86180492D01*
X129652464Y-86181984D01*
X129713670Y-86188432D01*
X129761516Y-86201139D01*
X129800915Y-86221411D01*
X129836725Y-86250499D01*
X129883695Y-86295180D01*
X129883695Y-87261172D01*
X130353138Y-87261172D01*
X130353138Y-85758438D01*
X129913035Y-85764824D01*
X129909457Y-85835240D01*
X129906114Y-85874305D01*
X129901105Y-85903589D01*
X129896690Y-85914902D01*
X129885411Y-85911705D01*
X129866976Y-85893221D01*
X129855826Y-85878439D01*
X129797435Y-85814053D01*
X129725006Y-85767469D01*
X129641194Y-85739989D01*
X129558306Y-85732665D01*
X129504181Y-85733991D01*
G36*
X123065042Y-87261172D02*
X123534484Y-87261172D01*
X123534484Y-85758956D01*
X123065042Y-85758956D01*
X123065042Y-87261172D01*
X123065042Y-87261172D01*
G37*
X123065042Y-87261172D02*
X123534484Y-87261172D01*
X123534484Y-85758956D01*
X123065042Y-85758956D01*
X123065042Y-87261172D01*
G36*
X123215575Y-85151792D02*
X123147226Y-85176703D01*
X123095439Y-85217496D01*
X123060937Y-85273578D01*
X123044444Y-85344354D01*
X123043728Y-85353503D01*
X123048811Y-85428891D01*
X123073828Y-85492259D01*
X123117950Y-85542533D01*
X123180349Y-85578641D01*
X123229347Y-85593788D01*
X123276267Y-85602752D01*
X123313814Y-85604102D01*
X123354225Y-85597565D01*
X123382634Y-85590367D01*
X123454462Y-85561349D01*
X123507528Y-85518353D01*
X123541476Y-85461872D01*
X123555944Y-85392395D01*
X123555798Y-85353503D01*
X123541445Y-85281059D01*
X123508998Y-85223239D01*
X123459182Y-85180639D01*
X123392720Y-85153852D01*
X123310335Y-85143471D01*
X123299763Y-85143356D01*
X123215575Y-85151792D01*
X123215575Y-85151792D01*
G37*
X123215575Y-85151792D02*
X123147226Y-85176703D01*
X123095439Y-85217496D01*
X123060937Y-85273578D01*
X123044444Y-85344354D01*
X123043728Y-85353503D01*
X123048811Y-85428891D01*
X123073828Y-85492259D01*
X123117950Y-85542533D01*
X123180349Y-85578641D01*
X123229347Y-85593788D01*
X123276267Y-85602752D01*
X123313814Y-85604102D01*
X123354225Y-85597565D01*
X123382634Y-85590367D01*
X123454462Y-85561349D01*
X123507528Y-85518353D01*
X123541476Y-85461872D01*
X123555944Y-85392395D01*
X123555798Y-85353503D01*
X123541445Y-85281059D01*
X123508998Y-85223239D01*
X123459182Y-85180639D01*
X123392720Y-85153852D01*
X123310335Y-85143471D01*
X123299763Y-85143356D01*
X123215575Y-85151792D01*
G36*
X128240819Y-83466308D02*
X128164117Y-83484189D01*
X128132966Y-83496335D01*
X128043713Y-83549909D01*
X127968853Y-83621851D01*
X127908345Y-83712230D01*
X127862148Y-83821114D01*
X127830223Y-83948573D01*
X127817928Y-84033754D01*
X127809629Y-84177789D01*
X127816711Y-84313891D01*
X127838457Y-84440128D01*
X127874146Y-84554566D01*
X127923062Y-84655273D01*
X127984484Y-84740317D01*
X128057694Y-84807766D01*
X128119922Y-84845652D01*
X128162707Y-84865085D01*
X128200541Y-84877230D01*
X128242554Y-84884192D01*
X128297877Y-84888079D01*
X128305279Y-84888414D01*
X128421967Y-84885789D01*
X128524247Y-84866307D01*
X128615044Y-84828938D01*
X128697283Y-84772654D01*
X128736495Y-84736710D01*
X128803977Y-84669380D01*
X128803977Y-85406874D01*
X128874394Y-85406874D01*
X128874394Y-83866937D01*
X128803977Y-83866937D01*
X128803867Y-84199737D01*
X128803757Y-84532537D01*
X128769780Y-84591773D01*
X128711416Y-84670424D01*
X128635837Y-84734802D01*
X128545898Y-84782807D01*
X128481235Y-84804196D01*
X128416321Y-84814653D01*
X128341651Y-84816781D01*
X128266041Y-84811092D01*
X128198304Y-84798100D01*
X128161853Y-84785625D01*
X128086285Y-84739940D01*
X128022284Y-84674548D01*
X127970266Y-84590397D01*
X127930647Y-84488434D01*
X127903840Y-84369607D01*
X127890263Y-84234861D01*
X127888564Y-84162346D01*
X127895973Y-84019430D01*
X127918318Y-83894182D01*
X127955780Y-83786018D01*
X128008538Y-83694353D01*
X128046663Y-83648039D01*
X128097593Y-83600399D01*
X128149974Y-83567419D01*
X128209434Y-83546974D01*
X128281603Y-83536942D01*
X128346271Y-83534972D01*
X128403922Y-83535544D01*
X128445435Y-83538145D01*
X128478129Y-83544103D01*
X128509329Y-83554743D01*
X128545817Y-83571140D01*
X128632805Y-83624907D01*
X128706361Y-83696072D01*
X128762678Y-83780851D01*
X128768468Y-83792534D01*
X128803977Y-83866937D01*
X128874394Y-83866937D01*
X128874394Y-83482159D01*
X128803977Y-83482159D01*
X128803561Y-83602454D01*
X128802965Y-83656014D01*
X128801332Y-83688979D01*
X128798225Y-83704216D01*
X128793205Y-83704595D01*
X128788891Y-83698542D01*
X128729139Y-83619128D01*
X128652533Y-83552080D01*
X128564065Y-83501170D01*
X128495092Y-83476427D01*
X128414389Y-83461982D01*
X128326937Y-83458757D01*
X128240819Y-83466308D01*
X128240819Y-83466308D01*
G37*
X128240819Y-83466308D02*
X128164117Y-83484189D01*
X128132966Y-83496335D01*
X128043713Y-83549909D01*
X127968853Y-83621851D01*
X127908345Y-83712230D01*
X127862148Y-83821114D01*
X127830223Y-83948573D01*
X127817928Y-84033754D01*
X127809629Y-84177789D01*
X127816711Y-84313891D01*
X127838457Y-84440128D01*
X127874146Y-84554566D01*
X127923062Y-84655273D01*
X127984484Y-84740317D01*
X128057694Y-84807766D01*
X128119922Y-84845652D01*
X128162707Y-84865085D01*
X128200541Y-84877230D01*
X128242554Y-84884192D01*
X128297877Y-84888079D01*
X128305279Y-84888414D01*
X128421967Y-84885789D01*
X128524247Y-84866307D01*
X128615044Y-84828938D01*
X128697283Y-84772654D01*
X128736495Y-84736710D01*
X128803977Y-84669380D01*
X128803977Y-85406874D01*
X128874394Y-85406874D01*
X128874394Y-83866937D01*
X128803977Y-83866937D01*
X128803867Y-84199737D01*
X128803757Y-84532537D01*
X128769780Y-84591773D01*
X128711416Y-84670424D01*
X128635837Y-84734802D01*
X128545898Y-84782807D01*
X128481235Y-84804196D01*
X128416321Y-84814653D01*
X128341651Y-84816781D01*
X128266041Y-84811092D01*
X128198304Y-84798100D01*
X128161853Y-84785625D01*
X128086285Y-84739940D01*
X128022284Y-84674548D01*
X127970266Y-84590397D01*
X127930647Y-84488434D01*
X127903840Y-84369607D01*
X127890263Y-84234861D01*
X127888564Y-84162346D01*
X127895973Y-84019430D01*
X127918318Y-83894182D01*
X127955780Y-83786018D01*
X128008538Y-83694353D01*
X128046663Y-83648039D01*
X128097593Y-83600399D01*
X128149974Y-83567419D01*
X128209434Y-83546974D01*
X128281603Y-83536942D01*
X128346271Y-83534972D01*
X128403922Y-83535544D01*
X128445435Y-83538145D01*
X128478129Y-83544103D01*
X128509329Y-83554743D01*
X128545817Y-83571140D01*
X128632805Y-83624907D01*
X128706361Y-83696072D01*
X128762678Y-83780851D01*
X128768468Y-83792534D01*
X128803977Y-83866937D01*
X128874394Y-83866937D01*
X128874394Y-83482159D01*
X128803977Y-83482159D01*
X128803561Y-83602454D01*
X128802965Y-83656014D01*
X128801332Y-83688979D01*
X128798225Y-83704216D01*
X128793205Y-83704595D01*
X128788891Y-83698542D01*
X128729139Y-83619128D01*
X128652533Y-83552080D01*
X128564065Y-83501170D01*
X128495092Y-83476427D01*
X128414389Y-83461982D01*
X128326937Y-83458757D01*
X128240819Y-83466308D01*
G36*
X129693391Y-83469284D02*
X129583988Y-83500559D01*
X129486028Y-83551740D01*
X129400468Y-83622052D01*
X129328264Y-83710724D01*
X129270376Y-83816981D01*
X129230715Y-83929130D01*
X129219515Y-83987045D01*
X129212254Y-84061208D01*
X129208933Y-84144729D01*
X129209549Y-84230717D01*
X129214101Y-84312283D01*
X129222588Y-84382535D01*
X129230802Y-84421044D01*
X129274539Y-84542456D01*
X129334199Y-84647304D01*
X129409219Y-84734978D01*
X129499035Y-84804871D01*
X129603084Y-84856374D01*
X129648170Y-84871574D01*
X129722813Y-84886055D01*
X129808923Y-84890674D01*
X129896764Y-84885646D01*
X129976605Y-84871187D01*
X130001327Y-84863778D01*
X130108904Y-84815428D01*
X130201730Y-84748907D01*
X130279542Y-84664511D01*
X130342075Y-84562537D01*
X130389066Y-84443281D01*
X130395847Y-84420028D01*
X130407020Y-84362253D01*
X130414276Y-84288238D01*
X130417614Y-84204887D01*
X130417410Y-84174587D01*
X130344580Y-84174587D01*
X130336477Y-84310850D01*
X130311558Y-84431283D01*
X130269535Y-84536722D01*
X130210121Y-84628002D01*
X130174756Y-84667626D01*
X130100377Y-84732675D01*
X130022847Y-84777987D01*
X129937690Y-84805250D01*
X129840425Y-84816147D01*
X129781060Y-84815812D01*
X129724100Y-84812509D01*
X129681602Y-84806439D01*
X129644564Y-84795556D01*
X129603987Y-84777812D01*
X129595293Y-84773575D01*
X129506768Y-84717220D01*
X129429881Y-84642230D01*
X129366815Y-84551453D01*
X129319752Y-84447737D01*
X129302970Y-84392173D01*
X129293436Y-84337463D01*
X129287479Y-84267102D01*
X129285097Y-84188357D01*
X129286288Y-84108496D01*
X129291050Y-84034786D01*
X129299381Y-83974494D01*
X129303093Y-83958084D01*
X129337525Y-83861267D01*
X129387451Y-83769544D01*
X129448499Y-83690431D01*
X129472993Y-83665896D01*
X129558419Y-83599806D01*
X129648826Y-83556115D01*
X129746862Y-83533892D01*
X129853470Y-83532085D01*
X129942833Y-83544409D01*
X130018708Y-83569705D01*
X130087784Y-83611089D01*
X130156749Y-83671674D01*
X130159748Y-83674691D01*
X130227825Y-83752995D01*
X130278790Y-83834759D01*
X130314160Y-83924087D01*
X130335452Y-84025078D01*
X130344181Y-84141835D01*
X130344580Y-84174587D01*
X130417410Y-84174587D01*
X130417035Y-84119102D01*
X130412539Y-84037789D01*
X130404125Y-83967848D01*
X130395843Y-83929130D01*
X130351911Y-83807437D01*
X130292788Y-83702621D01*
X130219431Y-83615456D01*
X130132796Y-83546714D01*
X130033842Y-83497169D01*
X129923526Y-83467594D01*
X129813279Y-83458687D01*
X129693391Y-83469284D01*
X129693391Y-83469284D01*
G37*
X129693391Y-83469284D02*
X129583988Y-83500559D01*
X129486028Y-83551740D01*
X129400468Y-83622052D01*
X129328264Y-83710724D01*
X129270376Y-83816981D01*
X129230715Y-83929130D01*
X129219515Y-83987045D01*
X129212254Y-84061208D01*
X129208933Y-84144729D01*
X129209549Y-84230717D01*
X129214101Y-84312283D01*
X129222588Y-84382535D01*
X129230802Y-84421044D01*
X129274539Y-84542456D01*
X129334199Y-84647304D01*
X129409219Y-84734978D01*
X129499035Y-84804871D01*
X129603084Y-84856374D01*
X129648170Y-84871574D01*
X129722813Y-84886055D01*
X129808923Y-84890674D01*
X129896764Y-84885646D01*
X129976605Y-84871187D01*
X130001327Y-84863778D01*
X130108904Y-84815428D01*
X130201730Y-84748907D01*
X130279542Y-84664511D01*
X130342075Y-84562537D01*
X130389066Y-84443281D01*
X130395847Y-84420028D01*
X130407020Y-84362253D01*
X130414276Y-84288238D01*
X130417614Y-84204887D01*
X130417410Y-84174587D01*
X130344580Y-84174587D01*
X130336477Y-84310850D01*
X130311558Y-84431283D01*
X130269535Y-84536722D01*
X130210121Y-84628002D01*
X130174756Y-84667626D01*
X130100377Y-84732675D01*
X130022847Y-84777987D01*
X129937690Y-84805250D01*
X129840425Y-84816147D01*
X129781060Y-84815812D01*
X129724100Y-84812509D01*
X129681602Y-84806439D01*
X129644564Y-84795556D01*
X129603987Y-84777812D01*
X129595293Y-84773575D01*
X129506768Y-84717220D01*
X129429881Y-84642230D01*
X129366815Y-84551453D01*
X129319752Y-84447737D01*
X129302970Y-84392173D01*
X129293436Y-84337463D01*
X129287479Y-84267102D01*
X129285097Y-84188357D01*
X129286288Y-84108496D01*
X129291050Y-84034786D01*
X129299381Y-83974494D01*
X129303093Y-83958084D01*
X129337525Y-83861267D01*
X129387451Y-83769544D01*
X129448499Y-83690431D01*
X129472993Y-83665896D01*
X129558419Y-83599806D01*
X129648826Y-83556115D01*
X129746862Y-83533892D01*
X129853470Y-83532085D01*
X129942833Y-83544409D01*
X130018708Y-83569705D01*
X130087784Y-83611089D01*
X130156749Y-83671674D01*
X130159748Y-83674691D01*
X130227825Y-83752995D01*
X130278790Y-83834759D01*
X130314160Y-83924087D01*
X130335452Y-84025078D01*
X130344181Y-84141835D01*
X130344580Y-84174587D01*
X130417410Y-84174587D01*
X130417035Y-84119102D01*
X130412539Y-84037789D01*
X130404125Y-83967848D01*
X130395843Y-83929130D01*
X130351911Y-83807437D01*
X130292788Y-83702621D01*
X130219431Y-83615456D01*
X130132796Y-83546714D01*
X130033842Y-83497169D01*
X129923526Y-83467594D01*
X129813279Y-83458687D01*
X129693391Y-83469284D01*
G36*
X126850349Y-83469015D02*
X126749816Y-83499377D01*
X126661582Y-83548844D01*
X126586518Y-83616486D01*
X126525497Y-83701372D01*
X126479390Y-83802573D01*
X126449070Y-83919157D01*
X126437012Y-84019084D01*
X126429752Y-84127643D01*
X127481170Y-84127643D01*
X127473268Y-84232315D01*
X127453844Y-84363080D01*
X127416666Y-84480073D01*
X127362267Y-84582419D01*
X127291177Y-84669246D01*
X127203929Y-84739679D01*
X127143547Y-84773951D01*
X127106919Y-84791378D01*
X127077294Y-84802874D01*
X127048043Y-84809665D01*
X127012535Y-84812977D01*
X126964139Y-84814036D01*
X126926429Y-84814100D01*
X126866497Y-84813633D01*
X126823399Y-84811576D01*
X126790503Y-84806783D01*
X126761177Y-84798107D01*
X126728788Y-84784405D01*
X126713684Y-84777352D01*
X126664052Y-84749755D01*
X126613767Y-84715229D01*
X126580320Y-84687233D01*
X126548988Y-84658620D01*
X126528376Y-84644645D01*
X126513307Y-84642674D01*
X126502375Y-84647586D01*
X126486353Y-84659754D01*
X126482665Y-84672520D01*
X126492621Y-84691030D01*
X126517528Y-84720432D01*
X126522225Y-84725647D01*
X126600745Y-84796136D01*
X126691209Y-84846777D01*
X126794084Y-84877759D01*
X126909839Y-84889269D01*
X126930377Y-84889308D01*
X126984249Y-84887620D01*
X127034509Y-84884146D01*
X127072706Y-84879531D01*
X127081661Y-84877765D01*
X127168065Y-84846921D01*
X127254146Y-84796959D01*
X127334748Y-84731729D01*
X127404713Y-84655081D01*
X127432844Y-84615610D01*
X127483754Y-84517751D01*
X127520049Y-84406042D01*
X127541472Y-84285201D01*
X127547763Y-84159947D01*
X127540284Y-84057226D01*
X127466066Y-84057226D01*
X126512057Y-84057226D01*
X126518789Y-83968209D01*
X126537463Y-83866113D01*
X126576166Y-83771290D01*
X126632655Y-83687141D01*
X126704686Y-83617067D01*
X126782821Y-83567923D01*
X126816983Y-83552372D01*
X126847453Y-83542622D01*
X126881611Y-83537357D01*
X126926839Y-83535260D01*
X126967530Y-83534972D01*
X127023497Y-83535565D01*
X127063677Y-83538350D01*
X127095746Y-83544832D01*
X127127380Y-83556515D01*
X127163037Y-83573321D01*
X127236819Y-83619994D01*
X127306862Y-83683211D01*
X127366511Y-83756225D01*
X127401075Y-83814682D01*
X127424143Y-83868238D01*
X127444205Y-83926399D01*
X127458859Y-83981166D01*
X127465706Y-84024539D01*
X127465927Y-84030820D01*
X127466066Y-84057226D01*
X127540284Y-84057226D01*
X127538666Y-84034998D01*
X127513921Y-83915075D01*
X127476784Y-83812512D01*
X127417058Y-83705055D01*
X127344176Y-83615928D01*
X127259320Y-83545941D01*
X127163668Y-83495907D01*
X127058400Y-83466636D01*
X126962309Y-83458687D01*
X126850349Y-83469015D01*
X126850349Y-83469015D01*
G37*
X126850349Y-83469015D02*
X126749816Y-83499377D01*
X126661582Y-83548844D01*
X126586518Y-83616486D01*
X126525497Y-83701372D01*
X126479390Y-83802573D01*
X126449070Y-83919157D01*
X126437012Y-84019084D01*
X126429752Y-84127643D01*
X127481170Y-84127643D01*
X127473268Y-84232315D01*
X127453844Y-84363080D01*
X127416666Y-84480073D01*
X127362267Y-84582419D01*
X127291177Y-84669246D01*
X127203929Y-84739679D01*
X127143547Y-84773951D01*
X127106919Y-84791378D01*
X127077294Y-84802874D01*
X127048043Y-84809665D01*
X127012535Y-84812977D01*
X126964139Y-84814036D01*
X126926429Y-84814100D01*
X126866497Y-84813633D01*
X126823399Y-84811576D01*
X126790503Y-84806783D01*
X126761177Y-84798107D01*
X126728788Y-84784405D01*
X126713684Y-84777352D01*
X126664052Y-84749755D01*
X126613767Y-84715229D01*
X126580320Y-84687233D01*
X126548988Y-84658620D01*
X126528376Y-84644645D01*
X126513307Y-84642674D01*
X126502375Y-84647586D01*
X126486353Y-84659754D01*
X126482665Y-84672520D01*
X126492621Y-84691030D01*
X126517528Y-84720432D01*
X126522225Y-84725647D01*
X126600745Y-84796136D01*
X126691209Y-84846777D01*
X126794084Y-84877759D01*
X126909839Y-84889269D01*
X126930377Y-84889308D01*
X126984249Y-84887620D01*
X127034509Y-84884146D01*
X127072706Y-84879531D01*
X127081661Y-84877765D01*
X127168065Y-84846921D01*
X127254146Y-84796959D01*
X127334748Y-84731729D01*
X127404713Y-84655081D01*
X127432844Y-84615610D01*
X127483754Y-84517751D01*
X127520049Y-84406042D01*
X127541472Y-84285201D01*
X127547763Y-84159947D01*
X127540284Y-84057226D01*
X127466066Y-84057226D01*
X126512057Y-84057226D01*
X126518789Y-83968209D01*
X126537463Y-83866113D01*
X126576166Y-83771290D01*
X126632655Y-83687141D01*
X126704686Y-83617067D01*
X126782821Y-83567923D01*
X126816983Y-83552372D01*
X126847453Y-83542622D01*
X126881611Y-83537357D01*
X126926839Y-83535260D01*
X126967530Y-83534972D01*
X127023497Y-83535565D01*
X127063677Y-83538350D01*
X127095746Y-83544832D01*
X127127380Y-83556515D01*
X127163037Y-83573321D01*
X127236819Y-83619994D01*
X127306862Y-83683211D01*
X127366511Y-83756225D01*
X127401075Y-83814682D01*
X127424143Y-83868238D01*
X127444205Y-83926399D01*
X127458859Y-83981166D01*
X127465706Y-84024539D01*
X127465927Y-84030820D01*
X127466066Y-84057226D01*
X127540284Y-84057226D01*
X127538666Y-84034998D01*
X127513921Y-83915075D01*
X127476784Y-83812512D01*
X127417058Y-83705055D01*
X127344176Y-83615928D01*
X127259320Y-83545941D01*
X127163668Y-83495907D01*
X127058400Y-83466636D01*
X126962309Y-83458687D01*
X126850349Y-83469015D01*
G36*
X125483964Y-83465121D02*
X125438118Y-83467370D01*
X125403638Y-83472131D01*
X125374476Y-83480232D01*
X125345198Y-83492224D01*
X125278470Y-83533670D01*
X125218850Y-83591844D01*
X125172575Y-83660014D01*
X125156247Y-83696127D01*
X125144510Y-83731317D01*
X125134718Y-83770218D01*
X125126710Y-83815158D01*
X125120328Y-83868471D01*
X125115409Y-83932484D01*
X125111796Y-84009530D01*
X125109328Y-84101938D01*
X125107845Y-84212039D01*
X125107187Y-84342163D01*
X125107117Y-84411934D01*
X125107117Y-84867015D01*
X125188167Y-84867015D01*
X125191962Y-84330090D01*
X125192949Y-84196434D01*
X125194041Y-84084048D01*
X125195513Y-83990727D01*
X125197637Y-83914270D01*
X125200687Y-83852473D01*
X125204936Y-83803134D01*
X125210658Y-83764050D01*
X125218125Y-83733019D01*
X125227612Y-83707837D01*
X125239392Y-83686302D01*
X125253737Y-83666212D01*
X125270923Y-83645362D01*
X125277958Y-83637128D01*
X125321543Y-83593770D01*
X125368912Y-83563831D01*
X125425182Y-83545416D01*
X125495466Y-83536631D01*
X125553088Y-83535189D01*
X125611080Y-83535902D01*
X125652682Y-83538624D01*
X125684963Y-83544596D01*
X125714991Y-83555059D01*
X125744932Y-83568852D01*
X125829417Y-83622884D01*
X125904546Y-83697534D01*
X125968963Y-83791357D01*
X125989380Y-83829769D01*
X126040134Y-83932164D01*
X126043574Y-84399590D01*
X126047013Y-84867015D01*
X126116419Y-84867015D01*
X126116419Y-83482159D01*
X126046002Y-83482159D01*
X126045456Y-83637662D01*
X126044909Y-83793165D01*
X126014688Y-83735052D01*
X125971260Y-83669596D01*
X125911870Y-83605071D01*
X125843367Y-83547934D01*
X125772601Y-83504644D01*
X125767876Y-83502364D01*
X125732494Y-83486220D01*
X125703193Y-83475471D01*
X125673593Y-83469025D01*
X125637313Y-83465788D01*
X125587972Y-83464667D01*
X125547219Y-83464555D01*
X125483964Y-83465121D01*
X125483964Y-83465121D01*
G37*
X125483964Y-83465121D02*
X125438118Y-83467370D01*
X125403638Y-83472131D01*
X125374476Y-83480232D01*
X125345198Y-83492224D01*
X125278470Y-83533670D01*
X125218850Y-83591844D01*
X125172575Y-83660014D01*
X125156247Y-83696127D01*
X125144510Y-83731317D01*
X125134718Y-83770218D01*
X125126710Y-83815158D01*
X125120328Y-83868471D01*
X125115409Y-83932484D01*
X125111796Y-84009530D01*
X125109328Y-84101938D01*
X125107845Y-84212039D01*
X125107187Y-84342163D01*
X125107117Y-84411934D01*
X125107117Y-84867015D01*
X125188167Y-84867015D01*
X125191962Y-84330090D01*
X125192949Y-84196434D01*
X125194041Y-84084048D01*
X125195513Y-83990727D01*
X125197637Y-83914270D01*
X125200687Y-83852473D01*
X125204936Y-83803134D01*
X125210658Y-83764050D01*
X125218125Y-83733019D01*
X125227612Y-83707837D01*
X125239392Y-83686302D01*
X125253737Y-83666212D01*
X125270923Y-83645362D01*
X125277958Y-83637128D01*
X125321543Y-83593770D01*
X125368912Y-83563831D01*
X125425182Y-83545416D01*
X125495466Y-83536631D01*
X125553088Y-83535189D01*
X125611080Y-83535902D01*
X125652682Y-83538624D01*
X125684963Y-83544596D01*
X125714991Y-83555059D01*
X125744932Y-83568852D01*
X125829417Y-83622884D01*
X125904546Y-83697534D01*
X125968963Y-83791357D01*
X125989380Y-83829769D01*
X126040134Y-83932164D01*
X126043574Y-84399590D01*
X126047013Y-84867015D01*
X126116419Y-84867015D01*
X126116419Y-83482159D01*
X126046002Y-83482159D01*
X126045456Y-83637662D01*
X126044909Y-83793165D01*
X126014688Y-83735052D01*
X125971260Y-83669596D01*
X125911870Y-83605071D01*
X125843367Y-83547934D01*
X125772601Y-83504644D01*
X125767876Y-83502364D01*
X125732494Y-83486220D01*
X125703193Y-83475471D01*
X125673593Y-83469025D01*
X125637313Y-83465788D01*
X125587972Y-83464667D01*
X125547219Y-83464555D01*
X125483964Y-83465121D01*
G36*
X135687595Y-86853034D02*
X135617571Y-86861737D01*
X135592315Y-86867792D01*
X135485543Y-86907675D01*
X135392096Y-86962743D01*
X135305270Y-87037003D01*
X135299532Y-87042755D01*
X135219143Y-87137551D01*
X135161045Y-87237703D01*
X135124245Y-87345603D01*
X135107750Y-87463645D01*
X135106591Y-87507629D01*
X135116288Y-87630214D01*
X135146012Y-87741580D01*
X135196710Y-87844004D01*
X135269328Y-87939764D01*
X135299532Y-87971561D01*
X135393908Y-88052347D01*
X135493880Y-88111057D01*
X135593778Y-88146879D01*
X135650805Y-88156930D01*
X135721287Y-88162348D01*
X135796748Y-88163124D01*
X135868711Y-88159250D01*
X135928697Y-88150716D01*
X135943127Y-88147236D01*
X136051472Y-88105688D01*
X136152029Y-88044257D01*
X136241521Y-87966092D01*
X136316674Y-87874343D01*
X136374214Y-87772160D01*
X136398160Y-87709560D01*
X136415162Y-87633963D01*
X136423703Y-87546444D01*
X136423636Y-87456204D01*
X136414813Y-87372445D01*
X136404280Y-87325720D01*
X136359889Y-87214082D01*
X136296048Y-87111950D01*
X136215565Y-87022337D01*
X136121247Y-86948256D01*
X136015902Y-86892721D01*
X135992316Y-86883579D01*
X135928717Y-86866782D01*
X135851305Y-86855878D01*
X135768219Y-86851188D01*
X135687595Y-86853034D01*
X135687595Y-86853034D01*
G37*
X135687595Y-86853034D02*
X135617571Y-86861737D01*
X135592315Y-86867792D01*
X135485543Y-86907675D01*
X135392096Y-86962743D01*
X135305270Y-87037003D01*
X135299532Y-87042755D01*
X135219143Y-87137551D01*
X135161045Y-87237703D01*
X135124245Y-87345603D01*
X135107750Y-87463645D01*
X135106591Y-87507629D01*
X135116288Y-87630214D01*
X135146012Y-87741580D01*
X135196710Y-87844004D01*
X135269328Y-87939764D01*
X135299532Y-87971561D01*
X135393908Y-88052347D01*
X135493880Y-88111057D01*
X135593778Y-88146879D01*
X135650805Y-88156930D01*
X135721287Y-88162348D01*
X135796748Y-88163124D01*
X135868711Y-88159250D01*
X135928697Y-88150716D01*
X135943127Y-88147236D01*
X136051472Y-88105688D01*
X136152029Y-88044257D01*
X136241521Y-87966092D01*
X136316674Y-87874343D01*
X136374214Y-87772160D01*
X136398160Y-87709560D01*
X136415162Y-87633963D01*
X136423703Y-87546444D01*
X136423636Y-87456204D01*
X136414813Y-87372445D01*
X136404280Y-87325720D01*
X136359889Y-87214082D01*
X136296048Y-87111950D01*
X136215565Y-87022337D01*
X136121247Y-86948256D01*
X136015902Y-86892721D01*
X135992316Y-86883579D01*
X135928717Y-86866782D01*
X135851305Y-86855878D01*
X135768219Y-86851188D01*
X135687595Y-86853034D01*
G36*
X133250859Y-86854612D02*
X133189409Y-86863122D01*
X133174592Y-86866599D01*
X133061898Y-86908360D01*
X132959137Y-86969719D01*
X132868897Y-87048093D01*
X132793768Y-87140900D01*
X132736340Y-87245557D01*
X132705277Y-87334592D01*
X132695755Y-87388457D01*
X132690541Y-87456649D01*
X132689648Y-87530602D01*
X132693088Y-87601753D01*
X132700871Y-87661537D01*
X132704804Y-87678872D01*
X132747075Y-87793424D01*
X132808950Y-87896571D01*
X132888593Y-87986468D01*
X132984169Y-88061267D01*
X133093844Y-88119124D01*
X133168989Y-88145936D01*
X133228741Y-88157784D01*
X133302320Y-88163719D01*
X133381139Y-88163816D01*
X133456614Y-88158147D01*
X133520160Y-88146786D01*
X133533943Y-88142821D01*
X133648106Y-88094712D01*
X133750442Y-88028331D01*
X133838682Y-87946026D01*
X133910556Y-87850147D01*
X133963796Y-87743041D01*
X133985578Y-87675417D01*
X133994025Y-87630360D01*
X134000228Y-87573205D01*
X134003005Y-87515302D01*
X134003054Y-87507629D01*
X134000862Y-87450546D01*
X133995076Y-87392589D01*
X133986877Y-87345108D01*
X133985578Y-87339841D01*
X133944623Y-87227949D01*
X133883727Y-87125477D01*
X133805388Y-87034965D01*
X133712108Y-86958957D01*
X133606386Y-86899995D01*
X133522679Y-86869145D01*
X133467891Y-86858350D01*
X133398635Y-86852288D01*
X133323446Y-86851021D01*
X133250859Y-86854612D01*
X133250859Y-86854612D01*
G37*
X133250859Y-86854612D02*
X133189409Y-86863122D01*
X133174592Y-86866599D01*
X133061898Y-86908360D01*
X132959137Y-86969719D01*
X132868897Y-87048093D01*
X132793768Y-87140900D01*
X132736340Y-87245557D01*
X132705277Y-87334592D01*
X132695755Y-87388457D01*
X132690541Y-87456649D01*
X132689648Y-87530602D01*
X132693088Y-87601753D01*
X132700871Y-87661537D01*
X132704804Y-87678872D01*
X132747075Y-87793424D01*
X132808950Y-87896571D01*
X132888593Y-87986468D01*
X132984169Y-88061267D01*
X133093844Y-88119124D01*
X133168989Y-88145936D01*
X133228741Y-88157784D01*
X133302320Y-88163719D01*
X133381139Y-88163816D01*
X133456614Y-88158147D01*
X133520160Y-88146786D01*
X133533943Y-88142821D01*
X133648106Y-88094712D01*
X133750442Y-88028331D01*
X133838682Y-87946026D01*
X133910556Y-87850147D01*
X133963796Y-87743041D01*
X133985578Y-87675417D01*
X133994025Y-87630360D01*
X134000228Y-87573205D01*
X134003005Y-87515302D01*
X134003054Y-87507629D01*
X134000862Y-87450546D01*
X133995076Y-87392589D01*
X133986877Y-87345108D01*
X133985578Y-87339841D01*
X133944623Y-87227949D01*
X133883727Y-87125477D01*
X133805388Y-87034965D01*
X133712108Y-86958957D01*
X133606386Y-86899995D01*
X133522679Y-86869145D01*
X133467891Y-86858350D01*
X133398635Y-86852288D01*
X133323446Y-86851021D01*
X133250859Y-86854612D01*
G36*
X160424197Y-102342640D02*
X160255324Y-103238427D01*
X159632204Y-103495298D01*
X159009084Y-103752168D01*
X158261547Y-103243849D01*
X158052198Y-103102316D01*
X157862957Y-102975945D01*
X157702657Y-102870507D01*
X157580126Y-102791770D01*
X157504198Y-102745505D01*
X157483520Y-102735529D01*
X157446269Y-102761186D01*
X157366668Y-102832115D01*
X157253639Y-102939257D01*
X157116105Y-103073550D01*
X156962988Y-103225934D01*
X156803211Y-103387347D01*
X156645695Y-103548730D01*
X156499363Y-103701022D01*
X156373137Y-103835162D01*
X156275940Y-103942089D01*
X156216693Y-104012742D01*
X156202529Y-104036388D01*
X156222913Y-104079979D01*
X156280059Y-104175481D01*
X156367959Y-104313550D01*
X156480604Y-104484845D01*
X156611987Y-104680025D01*
X156688118Y-104791352D01*
X156826882Y-104994633D01*
X156950189Y-105178073D01*
X157052055Y-105332542D01*
X157126499Y-105448909D01*
X157167539Y-105518042D01*
X157173706Y-105532570D01*
X157159726Y-105573860D01*
X157121618Y-105670092D01*
X157065133Y-105807734D01*
X156996020Y-105973258D01*
X156920030Y-106153132D01*
X156842911Y-106333828D01*
X156770415Y-106501814D01*
X156708291Y-106643560D01*
X156662288Y-106745537D01*
X156638157Y-106794214D01*
X156636733Y-106796130D01*
X156598842Y-106805425D01*
X156497931Y-106826160D01*
X156344460Y-106856298D01*
X156148888Y-106893801D01*
X155921675Y-106936629D01*
X155789109Y-106961326D01*
X155546321Y-107007553D01*
X155327026Y-107051540D01*
X155142319Y-107090881D01*
X155003295Y-107123169D01*
X154921048Y-107145997D01*
X154904515Y-107153240D01*
X154888322Y-107202261D01*
X154875256Y-107312977D01*
X154865309Y-107472438D01*
X154858472Y-107667700D01*
X154854736Y-107885814D01*
X154854093Y-108113835D01*
X154856532Y-108338815D01*
X154862047Y-108547809D01*
X154870626Y-108727868D01*
X154882263Y-108866047D01*
X154896948Y-108949398D01*
X154905755Y-108966750D01*
X154958401Y-108987548D01*
X155069957Y-109017282D01*
X155225665Y-109052459D01*
X155410771Y-109089586D01*
X155475387Y-109101597D01*
X155786929Y-109158662D01*
X156033024Y-109204618D01*
X156221805Y-109241293D01*
X156361402Y-109270513D01*
X156459948Y-109294104D01*
X156525574Y-109313892D01*
X156566411Y-109331706D01*
X156590591Y-109349370D01*
X156593974Y-109352861D01*
X156627745Y-109409100D01*
X156679263Y-109518547D01*
X156743383Y-109667800D01*
X156814961Y-109843459D01*
X156888854Y-110032121D01*
X156959917Y-110220385D01*
X157023007Y-110394848D01*
X157072979Y-110542108D01*
X157104688Y-110648764D01*
X157112992Y-110701413D01*
X157112300Y-110703257D01*
X157084164Y-110746292D01*
X157020335Y-110840978D01*
X156927520Y-110977460D01*
X156812427Y-111145882D01*
X156681763Y-111336390D01*
X156644552Y-111390529D01*
X156511871Y-111586804D01*
X156395117Y-111765886D01*
X156300651Y-111917492D01*
X156234832Y-112031338D01*
X156204022Y-112097141D01*
X156202529Y-112105225D01*
X156228416Y-112147715D01*
X156299946Y-112231891D01*
X156407924Y-112348705D01*
X156543154Y-112489110D01*
X156696442Y-112644061D01*
X156858591Y-112804509D01*
X157020407Y-112961409D01*
X157172694Y-113105713D01*
X157306257Y-113228376D01*
X157411900Y-113320350D01*
X157480428Y-113372589D01*
X157499386Y-113381118D01*
X157543513Y-113361029D01*
X157633858Y-113306849D01*
X157755705Y-113227704D01*
X157849454Y-113164001D01*
X158019322Y-113047110D01*
X158220488Y-112909476D01*
X158422267Y-112772063D01*
X158530750Y-112698519D01*
X158897942Y-112450155D01*
X159206174Y-112616813D01*
X159346596Y-112689822D01*
X159466004Y-112746571D01*
X159546798Y-112778937D01*
X159567364Y-112783441D01*
X159592094Y-112750189D01*
X159640882Y-112656224D01*
X159710087Y-112510213D01*
X159796065Y-112320824D01*
X159895176Y-112096724D01*
X160003776Y-111846581D01*
X160118225Y-111579063D01*
X160234880Y-111302836D01*
X160350099Y-111026568D01*
X160460240Y-110758927D01*
X160561661Y-110508580D01*
X160650720Y-110284195D01*
X160723775Y-110094439D01*
X160777184Y-109947980D01*
X160807305Y-109853485D01*
X160812149Y-109821031D01*
X160773755Y-109779636D01*
X160689692Y-109712438D01*
X160577533Y-109633400D01*
X160568119Y-109627147D01*
X160278232Y-109395103D01*
X160044488Y-109124386D01*
X159868913Y-108823653D01*
X159753531Y-108501561D01*
X159700370Y-108166765D01*
X159711453Y-107827922D01*
X159788808Y-107493688D01*
X159934460Y-107172719D01*
X159977312Y-107102495D01*
X160200198Y-106818927D01*
X160463509Y-106591218D01*
X160758135Y-106420551D01*
X161074959Y-106308112D01*
X161404870Y-106255083D01*
X161738754Y-106262651D01*
X162067497Y-106331998D01*
X162381986Y-106464309D01*
X162673107Y-106660768D01*
X162763160Y-106740506D01*
X162992347Y-106990108D01*
X163159354Y-107252868D01*
X163273915Y-107547399D01*
X163337719Y-107839075D01*
X163353470Y-108167012D01*
X163300949Y-108496577D01*
X163185490Y-108816630D01*
X163012429Y-109116032D01*
X162787101Y-109383643D01*
X162514840Y-109608325D01*
X162479058Y-109632008D01*
X162365698Y-109709568D01*
X162279522Y-109776768D01*
X162238323Y-109819675D01*
X162237724Y-109821031D01*
X162246569Y-109867446D01*
X162281631Y-109972786D01*
X162339267Y-110128388D01*
X162415834Y-110325584D01*
X162507686Y-110555710D01*
X162611183Y-110810101D01*
X162722679Y-111080090D01*
X162838532Y-111357012D01*
X162955097Y-111632201D01*
X163068733Y-111896993D01*
X163175794Y-112142721D01*
X163272638Y-112360721D01*
X163355621Y-112542326D01*
X163421099Y-112678871D01*
X163465431Y-112761690D01*
X163483283Y-112783441D01*
X163537834Y-112766504D01*
X163639905Y-112721077D01*
X163771895Y-112655280D01*
X163844474Y-112616813D01*
X164152705Y-112450155D01*
X164519897Y-112698519D01*
X164707340Y-112825754D01*
X164912557Y-112965773D01*
X165104867Y-113097612D01*
X165201193Y-113164001D01*
X165336673Y-113254976D01*
X165451393Y-113327071D01*
X165530388Y-113371154D01*
X165556046Y-113380473D01*
X165593391Y-113355334D01*
X165676042Y-113285154D01*
X165795985Y-113177220D01*
X165945209Y-113038818D01*
X166115699Y-112877235D01*
X166223526Y-112773488D01*
X166412172Y-112588135D01*
X166575205Y-112422351D01*
X166706032Y-112283227D01*
X166798065Y-112177856D01*
X166844713Y-112113329D01*
X166849188Y-112100234D01*
X166828420Y-112050425D01*
X166771031Y-111949713D01*
X166683387Y-111808295D01*
X166571854Y-111636367D01*
X166442797Y-111444124D01*
X166406096Y-111390529D01*
X166272368Y-111195733D01*
X166152393Y-111020353D01*
X166052879Y-110874243D01*
X165980533Y-110767258D01*
X165942064Y-110709255D01*
X165938347Y-110703257D01*
X165943905Y-110657032D01*
X165973407Y-110555398D01*
X166021709Y-110411758D01*
X166083667Y-110239514D01*
X166154137Y-110052066D01*
X166227975Y-109862818D01*
X166300037Y-109685171D01*
X166365178Y-109532527D01*
X166418255Y-109418288D01*
X166454123Y-109355856D01*
X166456673Y-109352861D01*
X166478606Y-109335019D01*
X166515652Y-109317374D01*
X166575941Y-109298101D01*
X166667604Y-109275374D01*
X166798774Y-109247364D01*
X166977582Y-109212247D01*
X167212158Y-109168195D01*
X167510635Y-109113382D01*
X167575260Y-109101597D01*
X167766794Y-109064591D01*
X167933769Y-109028389D01*
X168061432Y-108996485D01*
X168135024Y-108972372D01*
X168144892Y-108966750D01*
X168161153Y-108916910D01*
X168174370Y-108805532D01*
X168184536Y-108645563D01*
X168191640Y-108449950D01*
X168195674Y-108231640D01*
X168196630Y-108003579D01*
X168194498Y-107778714D01*
X168189269Y-107569991D01*
X168180935Y-107390358D01*
X168169487Y-107252762D01*
X168154916Y-107170148D01*
X168146132Y-107153240D01*
X168097230Y-107136184D01*
X167985873Y-107108436D01*
X167823156Y-107072403D01*
X167620174Y-107030493D01*
X167388021Y-106985111D01*
X167261538Y-106961326D01*
X167021555Y-106916465D01*
X166807549Y-106875825D01*
X166629978Y-106841446D01*
X166499302Y-106815365D01*
X166425982Y-106799621D01*
X166413915Y-106796130D01*
X166393519Y-106756779D01*
X166350406Y-106661993D01*
X166290321Y-106525315D01*
X166219013Y-106360286D01*
X166142227Y-106180447D01*
X166065710Y-105999340D01*
X165995210Y-105830507D01*
X165936473Y-105687488D01*
X165895246Y-105583826D01*
X165877276Y-105533061D01*
X165876941Y-105530842D01*
X165897313Y-105490796D01*
X165954427Y-105398639D01*
X166042279Y-105263533D01*
X166154867Y-105094635D01*
X166286189Y-104901105D01*
X166362529Y-104789941D01*
X166501636Y-104586116D01*
X166625188Y-104401063D01*
X166727158Y-104244146D01*
X166801517Y-104124724D01*
X166842237Y-104052160D01*
X166848118Y-104035893D01*
X166822837Y-103998030D01*
X166752948Y-103917186D01*
X166647377Y-103802419D01*
X166515052Y-103662785D01*
X166364901Y-103507342D01*
X166205852Y-103345146D01*
X166046833Y-103185254D01*
X165896771Y-103036724D01*
X165764594Y-102908613D01*
X165659230Y-102809977D01*
X165589607Y-102749873D01*
X165566315Y-102735529D01*
X165528390Y-102755699D01*
X165437683Y-102812363D01*
X165303011Y-102899753D01*
X165133195Y-103012100D01*
X164937054Y-103143638D01*
X164789100Y-103243849D01*
X164041564Y-103752168D01*
X163418444Y-103495298D01*
X162795324Y-103238427D01*
X162457576Y-101446853D01*
X160593071Y-101446853D01*
X160424197Y-102342640D01*
X160424197Y-102342640D01*
G37*
X160424197Y-102342640D02*
X160255324Y-103238427D01*
X159632204Y-103495298D01*
X159009084Y-103752168D01*
X158261547Y-103243849D01*
X158052198Y-103102316D01*
X157862957Y-102975945D01*
X157702657Y-102870507D01*
X157580126Y-102791770D01*
X157504198Y-102745505D01*
X157483520Y-102735529D01*
X157446269Y-102761186D01*
X157366668Y-102832115D01*
X157253639Y-102939257D01*
X157116105Y-103073550D01*
X156962988Y-103225934D01*
X156803211Y-103387347D01*
X156645695Y-103548730D01*
X156499363Y-103701022D01*
X156373137Y-103835162D01*
X156275940Y-103942089D01*
X156216693Y-104012742D01*
X156202529Y-104036388D01*
X156222913Y-104079979D01*
X156280059Y-104175481D01*
X156367959Y-104313550D01*
X156480604Y-104484845D01*
X156611987Y-104680025D01*
X156688118Y-104791352D01*
X156826882Y-104994633D01*
X156950189Y-105178073D01*
X157052055Y-105332542D01*
X157126499Y-105448909D01*
X157167539Y-105518042D01*
X157173706Y-105532570D01*
X157159726Y-105573860D01*
X157121618Y-105670092D01*
X157065133Y-105807734D01*
X156996020Y-105973258D01*
X156920030Y-106153132D01*
X156842911Y-106333828D01*
X156770415Y-106501814D01*
X156708291Y-106643560D01*
X156662288Y-106745537D01*
X156638157Y-106794214D01*
X156636733Y-106796130D01*
X156598842Y-106805425D01*
X156497931Y-106826160D01*
X156344460Y-106856298D01*
X156148888Y-106893801D01*
X155921675Y-106936629D01*
X155789109Y-106961326D01*
X155546321Y-107007553D01*
X155327026Y-107051540D01*
X155142319Y-107090881D01*
X155003295Y-107123169D01*
X154921048Y-107145997D01*
X154904515Y-107153240D01*
X154888322Y-107202261D01*
X154875256Y-107312977D01*
X154865309Y-107472438D01*
X154858472Y-107667700D01*
X154854736Y-107885814D01*
X154854093Y-108113835D01*
X154856532Y-108338815D01*
X154862047Y-108547809D01*
X154870626Y-108727868D01*
X154882263Y-108866047D01*
X154896948Y-108949398D01*
X154905755Y-108966750D01*
X154958401Y-108987548D01*
X155069957Y-109017282D01*
X155225665Y-109052459D01*
X155410771Y-109089586D01*
X155475387Y-109101597D01*
X155786929Y-109158662D01*
X156033024Y-109204618D01*
X156221805Y-109241293D01*
X156361402Y-109270513D01*
X156459948Y-109294104D01*
X156525574Y-109313892D01*
X156566411Y-109331706D01*
X156590591Y-109349370D01*
X156593974Y-109352861D01*
X156627745Y-109409100D01*
X156679263Y-109518547D01*
X156743383Y-109667800D01*
X156814961Y-109843459D01*
X156888854Y-110032121D01*
X156959917Y-110220385D01*
X157023007Y-110394848D01*
X157072979Y-110542108D01*
X157104688Y-110648764D01*
X157112992Y-110701413D01*
X157112300Y-110703257D01*
X157084164Y-110746292D01*
X157020335Y-110840978D01*
X156927520Y-110977460D01*
X156812427Y-111145882D01*
X156681763Y-111336390D01*
X156644552Y-111390529D01*
X156511871Y-111586804D01*
X156395117Y-111765886D01*
X156300651Y-111917492D01*
X156234832Y-112031338D01*
X156204022Y-112097141D01*
X156202529Y-112105225D01*
X156228416Y-112147715D01*
X156299946Y-112231891D01*
X156407924Y-112348705D01*
X156543154Y-112489110D01*
X156696442Y-112644061D01*
X156858591Y-112804509D01*
X157020407Y-112961409D01*
X157172694Y-113105713D01*
X157306257Y-113228376D01*
X157411900Y-113320350D01*
X157480428Y-113372589D01*
X157499386Y-113381118D01*
X157543513Y-113361029D01*
X157633858Y-113306849D01*
X157755705Y-113227704D01*
X157849454Y-113164001D01*
X158019322Y-113047110D01*
X158220488Y-112909476D01*
X158422267Y-112772063D01*
X158530750Y-112698519D01*
X158897942Y-112450155D01*
X159206174Y-112616813D01*
X159346596Y-112689822D01*
X159466004Y-112746571D01*
X159546798Y-112778937D01*
X159567364Y-112783441D01*
X159592094Y-112750189D01*
X159640882Y-112656224D01*
X159710087Y-112510213D01*
X159796065Y-112320824D01*
X159895176Y-112096724D01*
X160003776Y-111846581D01*
X160118225Y-111579063D01*
X160234880Y-111302836D01*
X160350099Y-111026568D01*
X160460240Y-110758927D01*
X160561661Y-110508580D01*
X160650720Y-110284195D01*
X160723775Y-110094439D01*
X160777184Y-109947980D01*
X160807305Y-109853485D01*
X160812149Y-109821031D01*
X160773755Y-109779636D01*
X160689692Y-109712438D01*
X160577533Y-109633400D01*
X160568119Y-109627147D01*
X160278232Y-109395103D01*
X160044488Y-109124386D01*
X159868913Y-108823653D01*
X159753531Y-108501561D01*
X159700370Y-108166765D01*
X159711453Y-107827922D01*
X159788808Y-107493688D01*
X159934460Y-107172719D01*
X159977312Y-107102495D01*
X160200198Y-106818927D01*
X160463509Y-106591218D01*
X160758135Y-106420551D01*
X161074959Y-106308112D01*
X161404870Y-106255083D01*
X161738754Y-106262651D01*
X162067497Y-106331998D01*
X162381986Y-106464309D01*
X162673107Y-106660768D01*
X162763160Y-106740506D01*
X162992347Y-106990108D01*
X163159354Y-107252868D01*
X163273915Y-107547399D01*
X163337719Y-107839075D01*
X163353470Y-108167012D01*
X163300949Y-108496577D01*
X163185490Y-108816630D01*
X163012429Y-109116032D01*
X162787101Y-109383643D01*
X162514840Y-109608325D01*
X162479058Y-109632008D01*
X162365698Y-109709568D01*
X162279522Y-109776768D01*
X162238323Y-109819675D01*
X162237724Y-109821031D01*
X162246569Y-109867446D01*
X162281631Y-109972786D01*
X162339267Y-110128388D01*
X162415834Y-110325584D01*
X162507686Y-110555710D01*
X162611183Y-110810101D01*
X162722679Y-111080090D01*
X162838532Y-111357012D01*
X162955097Y-111632201D01*
X163068733Y-111896993D01*
X163175794Y-112142721D01*
X163272638Y-112360721D01*
X163355621Y-112542326D01*
X163421099Y-112678871D01*
X163465431Y-112761690D01*
X163483283Y-112783441D01*
X163537834Y-112766504D01*
X163639905Y-112721077D01*
X163771895Y-112655280D01*
X163844474Y-112616813D01*
X164152705Y-112450155D01*
X164519897Y-112698519D01*
X164707340Y-112825754D01*
X164912557Y-112965773D01*
X165104867Y-113097612D01*
X165201193Y-113164001D01*
X165336673Y-113254976D01*
X165451393Y-113327071D01*
X165530388Y-113371154D01*
X165556046Y-113380473D01*
X165593391Y-113355334D01*
X165676042Y-113285154D01*
X165795985Y-113177220D01*
X165945209Y-113038818D01*
X166115699Y-112877235D01*
X166223526Y-112773488D01*
X166412172Y-112588135D01*
X166575205Y-112422351D01*
X166706032Y-112283227D01*
X166798065Y-112177856D01*
X166844713Y-112113329D01*
X166849188Y-112100234D01*
X166828420Y-112050425D01*
X166771031Y-111949713D01*
X166683387Y-111808295D01*
X166571854Y-111636367D01*
X166442797Y-111444124D01*
X166406096Y-111390529D01*
X166272368Y-111195733D01*
X166152393Y-111020353D01*
X166052879Y-110874243D01*
X165980533Y-110767258D01*
X165942064Y-110709255D01*
X165938347Y-110703257D01*
X165943905Y-110657032D01*
X165973407Y-110555398D01*
X166021709Y-110411758D01*
X166083667Y-110239514D01*
X166154137Y-110052066D01*
X166227975Y-109862818D01*
X166300037Y-109685171D01*
X166365178Y-109532527D01*
X166418255Y-109418288D01*
X166454123Y-109355856D01*
X166456673Y-109352861D01*
X166478606Y-109335019D01*
X166515652Y-109317374D01*
X166575941Y-109298101D01*
X166667604Y-109275374D01*
X166798774Y-109247364D01*
X166977582Y-109212247D01*
X167212158Y-109168195D01*
X167510635Y-109113382D01*
X167575260Y-109101597D01*
X167766794Y-109064591D01*
X167933769Y-109028389D01*
X168061432Y-108996485D01*
X168135024Y-108972372D01*
X168144892Y-108966750D01*
X168161153Y-108916910D01*
X168174370Y-108805532D01*
X168184536Y-108645563D01*
X168191640Y-108449950D01*
X168195674Y-108231640D01*
X168196630Y-108003579D01*
X168194498Y-107778714D01*
X168189269Y-107569991D01*
X168180935Y-107390358D01*
X168169487Y-107252762D01*
X168154916Y-107170148D01*
X168146132Y-107153240D01*
X168097230Y-107136184D01*
X167985873Y-107108436D01*
X167823156Y-107072403D01*
X167620174Y-107030493D01*
X167388021Y-106985111D01*
X167261538Y-106961326D01*
X167021555Y-106916465D01*
X166807549Y-106875825D01*
X166629978Y-106841446D01*
X166499302Y-106815365D01*
X166425982Y-106799621D01*
X166413915Y-106796130D01*
X166393519Y-106756779D01*
X166350406Y-106661993D01*
X166290321Y-106525315D01*
X166219013Y-106360286D01*
X166142227Y-106180447D01*
X166065710Y-105999340D01*
X165995210Y-105830507D01*
X165936473Y-105687488D01*
X165895246Y-105583826D01*
X165877276Y-105533061D01*
X165876941Y-105530842D01*
X165897313Y-105490796D01*
X165954427Y-105398639D01*
X166042279Y-105263533D01*
X166154867Y-105094635D01*
X166286189Y-104901105D01*
X166362529Y-104789941D01*
X166501636Y-104586116D01*
X166625188Y-104401063D01*
X166727158Y-104244146D01*
X166801517Y-104124724D01*
X166842237Y-104052160D01*
X166848118Y-104035893D01*
X166822837Y-103998030D01*
X166752948Y-103917186D01*
X166647377Y-103802419D01*
X166515052Y-103662785D01*
X166364901Y-103507342D01*
X166205852Y-103345146D01*
X166046833Y-103185254D01*
X165896771Y-103036724D01*
X165764594Y-102908613D01*
X165659230Y-102809977D01*
X165589607Y-102749873D01*
X165566315Y-102735529D01*
X165528390Y-102755699D01*
X165437683Y-102812363D01*
X165303011Y-102899753D01*
X165133195Y-103012100D01*
X164937054Y-103143638D01*
X164789100Y-103243849D01*
X164041564Y-103752168D01*
X163418444Y-103495298D01*
X162795324Y-103238427D01*
X162457576Y-101446853D01*
X160593071Y-101446853D01*
X160424197Y-102342640D01*
M02*
