G04 #@! TF.GenerationSoftware,KiCad,Pcbnew,(2016-12-16 revision f631ae2)-makepkg*
G04 #@! TF.CreationDate,2017-02-21T16:59:48-05:00*
G04 #@! TF.ProjectId,orc-esp1,6F72632D657370312E6B696361645F70,1*
G04 #@! TF.FileFunction,Soldermask,Bot*
G04 #@! TF.FilePolarity,Negative*
%FSLAX46Y46*%
G04 Gerber Fmt 4.6, Leading zero omitted, Abs format (unit mm)*
G04 Created by KiCad (PCBNEW (2016-12-16 revision f631ae2)-makepkg) date 02/21/17 16:59:48*
%MOMM*%
%LPD*%
G01*
G04 APERTURE LIST*
%ADD10C,0.100000*%
%ADD11R,4.900000X3.900120*%
%ADD12C,3.900120*%
%ADD13R,2.100000X2.100000*%
%ADD14O,2.100000X2.100000*%
%ADD15C,2.400000*%
%ADD16O,2.432000X2.127200*%
%ADD17R,2.432000X2.127200*%
%ADD18R,2.432000X2.432000*%
%ADD19O,2.432000X2.432000*%
%ADD20O,2.127200X2.432000*%
%ADD21R,2.127200X2.432000*%
%ADD22C,2.200000*%
G04 APERTURE END LIST*
D10*
D11*
X113205260Y-97409000D03*
X110205520Y-92710000D03*
X116205000Y-92710000D03*
D12*
X108966000Y-138684000D03*
D13*
X167005000Y-139700000D03*
X164465000Y-139700000D03*
X161925000Y-139700000D03*
X159385000Y-139700000D03*
X156845000Y-139700000D03*
X154305000Y-139700000D03*
X151765000Y-139700000D03*
X149225000Y-139700000D03*
X146685000Y-139700000D03*
X144145000Y-139700000D03*
X167005000Y-137160000D03*
X164465000Y-137160000D03*
X161925000Y-137160000D03*
X159385000Y-137160000D03*
X156845000Y-137160000D03*
X154305000Y-137160000D03*
X151765000Y-137160000D03*
X149225000Y-137160000D03*
X146685000Y-137160000D03*
X144145000Y-137160000D03*
X167005000Y-134620000D03*
X164465000Y-134620000D03*
X161925000Y-134620000D03*
X159385000Y-134620000D03*
X156845000Y-134620000D03*
X154305000Y-134620000D03*
X151765000Y-134620000D03*
X149225000Y-134620000D03*
X146685000Y-134620000D03*
X144145000Y-134620000D03*
X167005000Y-132080000D03*
X164465000Y-132080000D03*
X161925000Y-132080000D03*
X159385000Y-132080000D03*
X156845000Y-132080000D03*
X154305000Y-132080000D03*
X151765000Y-132080000D03*
X149225000Y-132080000D03*
X146685000Y-132080000D03*
X144145000Y-132080000D03*
X167005000Y-129540000D03*
X164465000Y-129540000D03*
X161925000Y-129540000D03*
X159385000Y-129540000D03*
X156845000Y-129540000D03*
X154305000Y-129540000D03*
X151765000Y-129540000D03*
X149225000Y-129540000D03*
X146685000Y-129540000D03*
X144145000Y-129540000D03*
X167005000Y-127000000D03*
X164465000Y-127000000D03*
X161925000Y-127000000D03*
X159385000Y-127000000D03*
X156845000Y-127000000D03*
X154305000Y-127000000D03*
X151765000Y-127000000D03*
X149225000Y-127000000D03*
X146685000Y-127000000D03*
X144145000Y-127000000D03*
X167005000Y-124460000D03*
X164465000Y-124460000D03*
X161925000Y-124460000D03*
X159385000Y-124460000D03*
X156845000Y-124460000D03*
X154305000Y-124460000D03*
X151765000Y-124460000D03*
X149225000Y-124460000D03*
X146685000Y-124460000D03*
X144145000Y-124460000D03*
X167005000Y-121920000D03*
X164465000Y-121920000D03*
X161925000Y-121920000D03*
X159385000Y-121920000D03*
X156845000Y-121920000D03*
X154305000Y-121920000D03*
X151765000Y-121920000D03*
X149225000Y-121920000D03*
X146685000Y-121920000D03*
X144145000Y-121920000D03*
X167005000Y-119380000D03*
X164465000Y-119380000D03*
X161925000Y-119380000D03*
X159385000Y-119380000D03*
X156845000Y-119380000D03*
X154305000Y-119380000D03*
X151765000Y-119380000D03*
X149225000Y-119380000D03*
X146685000Y-119380000D03*
X144145000Y-119380000D03*
D14*
X110490000Y-123190000D03*
D13*
X107950000Y-123190000D03*
D14*
X161290000Y-81915000D03*
X161290000Y-84455000D03*
X161290000Y-86995000D03*
X161290000Y-89535000D03*
X161290000Y-92075000D03*
D13*
X161290000Y-94615000D03*
D15*
X156210000Y-80010000D03*
X156210000Y-84510000D03*
X149710000Y-80010000D03*
X149710000Y-84510000D03*
X109070000Y-84455000D03*
X109070000Y-79955000D03*
X115570000Y-84455000D03*
X115570000Y-79955000D03*
D16*
X145415000Y-115570000D03*
X145415000Y-113030000D03*
X145415000Y-110490000D03*
X145415000Y-107950000D03*
X145415000Y-105410000D03*
X145415000Y-102870000D03*
X145415000Y-100330000D03*
X145415000Y-97790000D03*
X145415000Y-95250000D03*
D17*
X145415000Y-92710000D03*
D18*
X149225000Y-115570000D03*
D19*
X151765000Y-115570000D03*
X151765000Y-110490000D03*
D18*
X149225000Y-110490000D03*
X149225000Y-105410000D03*
D19*
X151765000Y-105410000D03*
X151765000Y-102870000D03*
D18*
X149225000Y-102870000D03*
D19*
X151765000Y-113030000D03*
D18*
X149225000Y-113030000D03*
X149225000Y-100330000D03*
D19*
X151765000Y-100330000D03*
X151765000Y-107950000D03*
D18*
X149225000Y-107950000D03*
D20*
X126365000Y-102235000D03*
X128905000Y-102235000D03*
X131445000Y-102235000D03*
X133985000Y-102235000D03*
X136525000Y-102235000D03*
D21*
X139065000Y-102235000D03*
D22*
X135130000Y-137635000D03*
X127130000Y-137635000D03*
M02*
