G04 #@! TF.GenerationSoftware,KiCad,Pcbnew,(2016-12-16 revision f631ae2)-makepkg*
G04 #@! TF.CreationDate,2017-02-21T16:59:48-05:00*
G04 #@! TF.ProjectId,orc-esp1,6F72632D657370312E6B696361645F70,1*
G04 #@! TF.FileFunction,Paste,Top*
G04 #@! TF.FilePolarity,Positive*
%FSLAX46Y46*%
G04 Gerber Fmt 4.6, Leading zero omitted, Abs format (unit mm)*
G04 Created by KiCad (PCBNEW (2016-12-16 revision f631ae2)-makepkg) date 02/21/17 16:59:48*
%MOMM*%
%LPD*%
G01*
G04 APERTURE LIST*
%ADD10C,0.100000*%
%ADD11R,1.350000X0.400000*%
%ADD12R,1.550000X1.000000*%
%ADD13R,2.000000X1.000000*%
%ADD14R,1.000000X2.000000*%
%ADD15R,2.000000X1.500000*%
%ADD16R,2.000000X3.800000*%
%ADD17R,1.200000X0.750000*%
%ADD18R,0.750000X1.200000*%
%ADD19R,2.500000X3.200000*%
%ADD20R,3.500120X2.301240*%
%ADD21R,2.301240X3.500120*%
%ADD22R,0.797560X0.797560*%
%ADD23R,1.200000X0.900000*%
%ADD24R,0.900000X1.200000*%
%ADD25R,1.700000X2.000000*%
%ADD26R,2.000000X1.700000*%
%ADD27C,0.470000*%
%ADD28R,0.650000X1.200000*%
%ADD29R,0.650000X1.800000*%
G04 APERTURE END LIST*
D10*
D11*
X109220000Y-129480000D03*
X109220000Y-130130000D03*
X109220000Y-130780000D03*
X109220000Y-131430000D03*
X109220000Y-132080000D03*
D12*
X106520000Y-127280000D03*
X106520000Y-134280000D03*
D13*
X140025179Y-80010000D03*
X140025179Y-82010000D03*
X140025179Y-84010000D03*
X140025179Y-86010000D03*
X140025179Y-88010000D03*
X140025179Y-90010000D03*
X140025179Y-92010000D03*
X140025179Y-94010000D03*
X125025179Y-94010000D03*
X125025179Y-92010000D03*
X125025179Y-90010000D03*
X125025179Y-88010000D03*
X125025179Y-86010000D03*
X125025179Y-84010000D03*
X125025179Y-82010000D03*
X125025179Y-80010000D03*
D14*
X127525179Y-95510000D03*
X129525179Y-95510000D03*
X131525179Y-95510000D03*
X133525179Y-95510000D03*
X135525179Y-95510000D03*
X137525179Y-95510000D03*
D15*
X114250000Y-117870000D03*
X114250000Y-113270000D03*
X114250000Y-115570000D03*
D16*
X107950000Y-115570000D03*
D17*
X130678000Y-123698000D03*
X128778000Y-123698000D03*
D18*
X120650000Y-96515000D03*
X120650000Y-94615000D03*
D19*
X119380000Y-117076000D03*
X119380000Y-112776000D03*
D20*
X114614960Y-123825000D03*
X120015000Y-123825000D03*
D21*
X114300000Y-108905040D03*
X114300000Y-103505000D03*
D20*
X114935000Y-133985000D03*
X120335040Y-133985000D03*
D22*
X119735600Y-138430000D03*
X118237000Y-138430000D03*
X107950000Y-102349300D03*
X107950000Y-100850700D03*
X119862600Y-128270000D03*
X118364000Y-128270000D03*
X160655000Y-115570000D03*
X162153600Y-115570000D03*
X162153600Y-113030000D03*
X160655000Y-113030000D03*
X160655000Y-107950000D03*
X162153600Y-107950000D03*
X162153600Y-105410000D03*
X160655000Y-105410000D03*
X160655000Y-102870000D03*
X162153600Y-102870000D03*
X162153600Y-100330000D03*
X160655000Y-100330000D03*
X165100000Y-90398600D03*
X165100000Y-88900000D03*
X165100000Y-86995000D03*
X165100000Y-85496400D03*
X120650000Y-104254300D03*
X120650000Y-102755700D03*
X162153600Y-110490000D03*
X160655000Y-110490000D03*
D23*
X157775000Y-105410000D03*
X155575000Y-105410000D03*
X155575000Y-102870000D03*
X157775000Y-102870000D03*
X157775000Y-100330000D03*
X155575000Y-100330000D03*
D24*
X165100000Y-94910000D03*
X165100000Y-92710000D03*
X165100000Y-83185000D03*
X165100000Y-80985000D03*
X120650000Y-108880000D03*
X120650000Y-106680000D03*
X130810000Y-117645000D03*
X130810000Y-119845000D03*
X125730000Y-119845000D03*
X125730000Y-117645000D03*
X138430000Y-117645000D03*
X138430000Y-119845000D03*
D23*
X155575000Y-110490000D03*
X157775000Y-110490000D03*
X157775000Y-107950000D03*
X155575000Y-107950000D03*
X155575000Y-115570000D03*
X157775000Y-115570000D03*
X157775000Y-113030000D03*
X155575000Y-113030000D03*
X113835000Y-138430000D03*
X116035000Y-138430000D03*
D24*
X128270000Y-117645000D03*
X128270000Y-119845000D03*
X133350000Y-119845000D03*
X133350000Y-117645000D03*
X120650000Y-89070000D03*
X120650000Y-91270000D03*
X156210000Y-92880000D03*
X156210000Y-95080000D03*
X156210000Y-87970000D03*
X156210000Y-90170000D03*
X135890000Y-119845000D03*
X135890000Y-117645000D03*
D23*
X107950000Y-105410000D03*
X110150000Y-105410000D03*
X113835000Y-128270000D03*
X116035000Y-128270000D03*
D25*
X120650000Y-85955000D03*
X120650000Y-82955000D03*
X132080000Y-111125000D03*
X132080000Y-114125000D03*
X125730000Y-114125000D03*
X125730000Y-111125000D03*
X138430000Y-111125000D03*
X138430000Y-114125000D03*
X141605000Y-114125000D03*
X141605000Y-111125000D03*
X128905000Y-111125000D03*
X128905000Y-114125000D03*
X135255000Y-114125000D03*
X135255000Y-111125000D03*
D26*
X152860000Y-88265000D03*
X149860000Y-88265000D03*
X149860000Y-91440000D03*
X152860000Y-91440000D03*
X149860000Y-94615000D03*
X152860000Y-94615000D03*
D10*
G36*
X125409017Y-126185566D02*
X125420423Y-126187258D01*
X125431608Y-126190060D01*
X125442465Y-126193944D01*
X125452889Y-126198874D01*
X125462780Y-126204802D01*
X125472041Y-126211671D01*
X125480585Y-126219415D01*
X125488329Y-126227959D01*
X125495198Y-126237220D01*
X125501126Y-126247111D01*
X125506056Y-126257535D01*
X125509940Y-126268392D01*
X125512742Y-126279577D01*
X125514434Y-126290983D01*
X125515000Y-126302500D01*
X125515000Y-127367500D01*
X125514434Y-127379017D01*
X125512742Y-127390423D01*
X125509940Y-127401608D01*
X125506056Y-127412465D01*
X125501126Y-127422889D01*
X125495198Y-127432780D01*
X125488329Y-127442041D01*
X125480585Y-127450585D01*
X125472041Y-127458329D01*
X125462780Y-127465198D01*
X125452889Y-127471126D01*
X125442465Y-127476056D01*
X125431608Y-127479940D01*
X125420423Y-127482742D01*
X125409017Y-127484434D01*
X125397500Y-127485000D01*
X125162500Y-127485000D01*
X125150983Y-127484434D01*
X125139577Y-127482742D01*
X125128392Y-127479940D01*
X125117535Y-127476056D01*
X125107111Y-127471126D01*
X125097220Y-127465198D01*
X125087959Y-127458329D01*
X125079415Y-127450585D01*
X125071671Y-127442041D01*
X125064802Y-127432780D01*
X125058874Y-127422889D01*
X125053944Y-127412465D01*
X125050060Y-127401608D01*
X125047258Y-127390423D01*
X125045566Y-127379017D01*
X125045000Y-127367500D01*
X125045000Y-126302500D01*
X125045566Y-126290983D01*
X125047258Y-126279577D01*
X125050060Y-126268392D01*
X125053944Y-126257535D01*
X125058874Y-126247111D01*
X125064802Y-126237220D01*
X125071671Y-126227959D01*
X125079415Y-126219415D01*
X125087959Y-126211671D01*
X125097220Y-126204802D01*
X125107111Y-126198874D01*
X125117535Y-126193944D01*
X125128392Y-126190060D01*
X125139577Y-126187258D01*
X125150983Y-126185566D01*
X125162500Y-126185000D01*
X125397500Y-126185000D01*
X125409017Y-126185566D01*
X125409017Y-126185566D01*
G37*
D27*
X125280000Y-126835000D03*
D28*
X124280000Y-127635000D03*
X138980000Y-127635000D03*
D29*
X124280000Y-137235000D03*
X139880000Y-137235000D03*
D10*
G36*
X126509017Y-126185566D02*
X126520423Y-126187258D01*
X126531608Y-126190060D01*
X126542465Y-126193944D01*
X126552889Y-126198874D01*
X126562780Y-126204802D01*
X126572041Y-126211671D01*
X126580585Y-126219415D01*
X126588329Y-126227959D01*
X126595198Y-126237220D01*
X126601126Y-126247111D01*
X126606056Y-126257535D01*
X126609940Y-126268392D01*
X126612742Y-126279577D01*
X126614434Y-126290983D01*
X126615000Y-126302500D01*
X126615000Y-127367500D01*
X126614434Y-127379017D01*
X126612742Y-127390423D01*
X126609940Y-127401608D01*
X126606056Y-127412465D01*
X126601126Y-127422889D01*
X126595198Y-127432780D01*
X126588329Y-127442041D01*
X126580585Y-127450585D01*
X126572041Y-127458329D01*
X126562780Y-127465198D01*
X126552889Y-127471126D01*
X126542465Y-127476056D01*
X126531608Y-127479940D01*
X126520423Y-127482742D01*
X126509017Y-127484434D01*
X126497500Y-127485000D01*
X126262500Y-127485000D01*
X126250983Y-127484434D01*
X126239577Y-127482742D01*
X126228392Y-127479940D01*
X126217535Y-127476056D01*
X126207111Y-127471126D01*
X126197220Y-127465198D01*
X126187959Y-127458329D01*
X126179415Y-127450585D01*
X126171671Y-127442041D01*
X126164802Y-127432780D01*
X126158874Y-127422889D01*
X126153944Y-127412465D01*
X126150060Y-127401608D01*
X126147258Y-127390423D01*
X126145566Y-127379017D01*
X126145000Y-127367500D01*
X126145000Y-126302500D01*
X126145566Y-126290983D01*
X126147258Y-126279577D01*
X126150060Y-126268392D01*
X126153944Y-126257535D01*
X126158874Y-126247111D01*
X126164802Y-126237220D01*
X126171671Y-126227959D01*
X126179415Y-126219415D01*
X126187959Y-126211671D01*
X126197220Y-126204802D01*
X126207111Y-126198874D01*
X126217535Y-126193944D01*
X126228392Y-126190060D01*
X126239577Y-126187258D01*
X126250983Y-126185566D01*
X126262500Y-126185000D01*
X126497500Y-126185000D01*
X126509017Y-126185566D01*
X126509017Y-126185566D01*
G37*
D27*
X126380000Y-126835000D03*
D10*
G36*
X127609017Y-126185566D02*
X127620423Y-126187258D01*
X127631608Y-126190060D01*
X127642465Y-126193944D01*
X127652889Y-126198874D01*
X127662780Y-126204802D01*
X127672041Y-126211671D01*
X127680585Y-126219415D01*
X127688329Y-126227959D01*
X127695198Y-126237220D01*
X127701126Y-126247111D01*
X127706056Y-126257535D01*
X127709940Y-126268392D01*
X127712742Y-126279577D01*
X127714434Y-126290983D01*
X127715000Y-126302500D01*
X127715000Y-127367500D01*
X127714434Y-127379017D01*
X127712742Y-127390423D01*
X127709940Y-127401608D01*
X127706056Y-127412465D01*
X127701126Y-127422889D01*
X127695198Y-127432780D01*
X127688329Y-127442041D01*
X127680585Y-127450585D01*
X127672041Y-127458329D01*
X127662780Y-127465198D01*
X127652889Y-127471126D01*
X127642465Y-127476056D01*
X127631608Y-127479940D01*
X127620423Y-127482742D01*
X127609017Y-127484434D01*
X127597500Y-127485000D01*
X127362500Y-127485000D01*
X127350983Y-127484434D01*
X127339577Y-127482742D01*
X127328392Y-127479940D01*
X127317535Y-127476056D01*
X127307111Y-127471126D01*
X127297220Y-127465198D01*
X127287959Y-127458329D01*
X127279415Y-127450585D01*
X127271671Y-127442041D01*
X127264802Y-127432780D01*
X127258874Y-127422889D01*
X127253944Y-127412465D01*
X127250060Y-127401608D01*
X127247258Y-127390423D01*
X127245566Y-127379017D01*
X127245000Y-127367500D01*
X127245000Y-126302500D01*
X127245566Y-126290983D01*
X127247258Y-126279577D01*
X127250060Y-126268392D01*
X127253944Y-126257535D01*
X127258874Y-126247111D01*
X127264802Y-126237220D01*
X127271671Y-126227959D01*
X127279415Y-126219415D01*
X127287959Y-126211671D01*
X127297220Y-126204802D01*
X127307111Y-126198874D01*
X127317535Y-126193944D01*
X127328392Y-126190060D01*
X127339577Y-126187258D01*
X127350983Y-126185566D01*
X127362500Y-126185000D01*
X127597500Y-126185000D01*
X127609017Y-126185566D01*
X127609017Y-126185566D01*
G37*
D27*
X127480000Y-126835000D03*
D10*
G36*
X128709017Y-126185566D02*
X128720423Y-126187258D01*
X128731608Y-126190060D01*
X128742465Y-126193944D01*
X128752889Y-126198874D01*
X128762780Y-126204802D01*
X128772041Y-126211671D01*
X128780585Y-126219415D01*
X128788329Y-126227959D01*
X128795198Y-126237220D01*
X128801126Y-126247111D01*
X128806056Y-126257535D01*
X128809940Y-126268392D01*
X128812742Y-126279577D01*
X128814434Y-126290983D01*
X128815000Y-126302500D01*
X128815000Y-127367500D01*
X128814434Y-127379017D01*
X128812742Y-127390423D01*
X128809940Y-127401608D01*
X128806056Y-127412465D01*
X128801126Y-127422889D01*
X128795198Y-127432780D01*
X128788329Y-127442041D01*
X128780585Y-127450585D01*
X128772041Y-127458329D01*
X128762780Y-127465198D01*
X128752889Y-127471126D01*
X128742465Y-127476056D01*
X128731608Y-127479940D01*
X128720423Y-127482742D01*
X128709017Y-127484434D01*
X128697500Y-127485000D01*
X128462500Y-127485000D01*
X128450983Y-127484434D01*
X128439577Y-127482742D01*
X128428392Y-127479940D01*
X128417535Y-127476056D01*
X128407111Y-127471126D01*
X128397220Y-127465198D01*
X128387959Y-127458329D01*
X128379415Y-127450585D01*
X128371671Y-127442041D01*
X128364802Y-127432780D01*
X128358874Y-127422889D01*
X128353944Y-127412465D01*
X128350060Y-127401608D01*
X128347258Y-127390423D01*
X128345566Y-127379017D01*
X128345000Y-127367500D01*
X128345000Y-126302500D01*
X128345566Y-126290983D01*
X128347258Y-126279577D01*
X128350060Y-126268392D01*
X128353944Y-126257535D01*
X128358874Y-126247111D01*
X128364802Y-126237220D01*
X128371671Y-126227959D01*
X128379415Y-126219415D01*
X128387959Y-126211671D01*
X128397220Y-126204802D01*
X128407111Y-126198874D01*
X128417535Y-126193944D01*
X128428392Y-126190060D01*
X128439577Y-126187258D01*
X128450983Y-126185566D01*
X128462500Y-126185000D01*
X128697500Y-126185000D01*
X128709017Y-126185566D01*
X128709017Y-126185566D01*
G37*
D27*
X128580000Y-126835000D03*
D10*
G36*
X129809017Y-126185566D02*
X129820423Y-126187258D01*
X129831608Y-126190060D01*
X129842465Y-126193944D01*
X129852889Y-126198874D01*
X129862780Y-126204802D01*
X129872041Y-126211671D01*
X129880585Y-126219415D01*
X129888329Y-126227959D01*
X129895198Y-126237220D01*
X129901126Y-126247111D01*
X129906056Y-126257535D01*
X129909940Y-126268392D01*
X129912742Y-126279577D01*
X129914434Y-126290983D01*
X129915000Y-126302500D01*
X129915000Y-127367500D01*
X129914434Y-127379017D01*
X129912742Y-127390423D01*
X129909940Y-127401608D01*
X129906056Y-127412465D01*
X129901126Y-127422889D01*
X129895198Y-127432780D01*
X129888329Y-127442041D01*
X129880585Y-127450585D01*
X129872041Y-127458329D01*
X129862780Y-127465198D01*
X129852889Y-127471126D01*
X129842465Y-127476056D01*
X129831608Y-127479940D01*
X129820423Y-127482742D01*
X129809017Y-127484434D01*
X129797500Y-127485000D01*
X129562500Y-127485000D01*
X129550983Y-127484434D01*
X129539577Y-127482742D01*
X129528392Y-127479940D01*
X129517535Y-127476056D01*
X129507111Y-127471126D01*
X129497220Y-127465198D01*
X129487959Y-127458329D01*
X129479415Y-127450585D01*
X129471671Y-127442041D01*
X129464802Y-127432780D01*
X129458874Y-127422889D01*
X129453944Y-127412465D01*
X129450060Y-127401608D01*
X129447258Y-127390423D01*
X129445566Y-127379017D01*
X129445000Y-127367500D01*
X129445000Y-126302500D01*
X129445566Y-126290983D01*
X129447258Y-126279577D01*
X129450060Y-126268392D01*
X129453944Y-126257535D01*
X129458874Y-126247111D01*
X129464802Y-126237220D01*
X129471671Y-126227959D01*
X129479415Y-126219415D01*
X129487959Y-126211671D01*
X129497220Y-126204802D01*
X129507111Y-126198874D01*
X129517535Y-126193944D01*
X129528392Y-126190060D01*
X129539577Y-126187258D01*
X129550983Y-126185566D01*
X129562500Y-126185000D01*
X129797500Y-126185000D01*
X129809017Y-126185566D01*
X129809017Y-126185566D01*
G37*
D27*
X129680000Y-126835000D03*
D10*
G36*
X130909017Y-126185566D02*
X130920423Y-126187258D01*
X130931608Y-126190060D01*
X130942465Y-126193944D01*
X130952889Y-126198874D01*
X130962780Y-126204802D01*
X130972041Y-126211671D01*
X130980585Y-126219415D01*
X130988329Y-126227959D01*
X130995198Y-126237220D01*
X131001126Y-126247111D01*
X131006056Y-126257535D01*
X131009940Y-126268392D01*
X131012742Y-126279577D01*
X131014434Y-126290983D01*
X131015000Y-126302500D01*
X131015000Y-127367500D01*
X131014434Y-127379017D01*
X131012742Y-127390423D01*
X131009940Y-127401608D01*
X131006056Y-127412465D01*
X131001126Y-127422889D01*
X130995198Y-127432780D01*
X130988329Y-127442041D01*
X130980585Y-127450585D01*
X130972041Y-127458329D01*
X130962780Y-127465198D01*
X130952889Y-127471126D01*
X130942465Y-127476056D01*
X130931608Y-127479940D01*
X130920423Y-127482742D01*
X130909017Y-127484434D01*
X130897500Y-127485000D01*
X130662500Y-127485000D01*
X130650983Y-127484434D01*
X130639577Y-127482742D01*
X130628392Y-127479940D01*
X130617535Y-127476056D01*
X130607111Y-127471126D01*
X130597220Y-127465198D01*
X130587959Y-127458329D01*
X130579415Y-127450585D01*
X130571671Y-127442041D01*
X130564802Y-127432780D01*
X130558874Y-127422889D01*
X130553944Y-127412465D01*
X130550060Y-127401608D01*
X130547258Y-127390423D01*
X130545566Y-127379017D01*
X130545000Y-127367500D01*
X130545000Y-126302500D01*
X130545566Y-126290983D01*
X130547258Y-126279577D01*
X130550060Y-126268392D01*
X130553944Y-126257535D01*
X130558874Y-126247111D01*
X130564802Y-126237220D01*
X130571671Y-126227959D01*
X130579415Y-126219415D01*
X130587959Y-126211671D01*
X130597220Y-126204802D01*
X130607111Y-126198874D01*
X130617535Y-126193944D01*
X130628392Y-126190060D01*
X130639577Y-126187258D01*
X130650983Y-126185566D01*
X130662500Y-126185000D01*
X130897500Y-126185000D01*
X130909017Y-126185566D01*
X130909017Y-126185566D01*
G37*
D27*
X130780000Y-126835000D03*
D10*
G36*
X132009017Y-126185566D02*
X132020423Y-126187258D01*
X132031608Y-126190060D01*
X132042465Y-126193944D01*
X132052889Y-126198874D01*
X132062780Y-126204802D01*
X132072041Y-126211671D01*
X132080585Y-126219415D01*
X132088329Y-126227959D01*
X132095198Y-126237220D01*
X132101126Y-126247111D01*
X132106056Y-126257535D01*
X132109940Y-126268392D01*
X132112742Y-126279577D01*
X132114434Y-126290983D01*
X132115000Y-126302500D01*
X132115000Y-127367500D01*
X132114434Y-127379017D01*
X132112742Y-127390423D01*
X132109940Y-127401608D01*
X132106056Y-127412465D01*
X132101126Y-127422889D01*
X132095198Y-127432780D01*
X132088329Y-127442041D01*
X132080585Y-127450585D01*
X132072041Y-127458329D01*
X132062780Y-127465198D01*
X132052889Y-127471126D01*
X132042465Y-127476056D01*
X132031608Y-127479940D01*
X132020423Y-127482742D01*
X132009017Y-127484434D01*
X131997500Y-127485000D01*
X131762500Y-127485000D01*
X131750983Y-127484434D01*
X131739577Y-127482742D01*
X131728392Y-127479940D01*
X131717535Y-127476056D01*
X131707111Y-127471126D01*
X131697220Y-127465198D01*
X131687959Y-127458329D01*
X131679415Y-127450585D01*
X131671671Y-127442041D01*
X131664802Y-127432780D01*
X131658874Y-127422889D01*
X131653944Y-127412465D01*
X131650060Y-127401608D01*
X131647258Y-127390423D01*
X131645566Y-127379017D01*
X131645000Y-127367500D01*
X131645000Y-126302500D01*
X131645566Y-126290983D01*
X131647258Y-126279577D01*
X131650060Y-126268392D01*
X131653944Y-126257535D01*
X131658874Y-126247111D01*
X131664802Y-126237220D01*
X131671671Y-126227959D01*
X131679415Y-126219415D01*
X131687959Y-126211671D01*
X131697220Y-126204802D01*
X131707111Y-126198874D01*
X131717535Y-126193944D01*
X131728392Y-126190060D01*
X131739577Y-126187258D01*
X131750983Y-126185566D01*
X131762500Y-126185000D01*
X131997500Y-126185000D01*
X132009017Y-126185566D01*
X132009017Y-126185566D01*
G37*
D27*
X131880000Y-126835000D03*
D10*
G36*
X133109017Y-126185566D02*
X133120423Y-126187258D01*
X133131608Y-126190060D01*
X133142465Y-126193944D01*
X133152889Y-126198874D01*
X133162780Y-126204802D01*
X133172041Y-126211671D01*
X133180585Y-126219415D01*
X133188329Y-126227959D01*
X133195198Y-126237220D01*
X133201126Y-126247111D01*
X133206056Y-126257535D01*
X133209940Y-126268392D01*
X133212742Y-126279577D01*
X133214434Y-126290983D01*
X133215000Y-126302500D01*
X133215000Y-127367500D01*
X133214434Y-127379017D01*
X133212742Y-127390423D01*
X133209940Y-127401608D01*
X133206056Y-127412465D01*
X133201126Y-127422889D01*
X133195198Y-127432780D01*
X133188329Y-127442041D01*
X133180585Y-127450585D01*
X133172041Y-127458329D01*
X133162780Y-127465198D01*
X133152889Y-127471126D01*
X133142465Y-127476056D01*
X133131608Y-127479940D01*
X133120423Y-127482742D01*
X133109017Y-127484434D01*
X133097500Y-127485000D01*
X132862500Y-127485000D01*
X132850983Y-127484434D01*
X132839577Y-127482742D01*
X132828392Y-127479940D01*
X132817535Y-127476056D01*
X132807111Y-127471126D01*
X132797220Y-127465198D01*
X132787959Y-127458329D01*
X132779415Y-127450585D01*
X132771671Y-127442041D01*
X132764802Y-127432780D01*
X132758874Y-127422889D01*
X132753944Y-127412465D01*
X132750060Y-127401608D01*
X132747258Y-127390423D01*
X132745566Y-127379017D01*
X132745000Y-127367500D01*
X132745000Y-126302500D01*
X132745566Y-126290983D01*
X132747258Y-126279577D01*
X132750060Y-126268392D01*
X132753944Y-126257535D01*
X132758874Y-126247111D01*
X132764802Y-126237220D01*
X132771671Y-126227959D01*
X132779415Y-126219415D01*
X132787959Y-126211671D01*
X132797220Y-126204802D01*
X132807111Y-126198874D01*
X132817535Y-126193944D01*
X132828392Y-126190060D01*
X132839577Y-126187258D01*
X132850983Y-126185566D01*
X132862500Y-126185000D01*
X133097500Y-126185000D01*
X133109017Y-126185566D01*
X133109017Y-126185566D01*
G37*
D27*
X132980000Y-126835000D03*
D10*
G36*
X134209017Y-126185566D02*
X134220423Y-126187258D01*
X134231608Y-126190060D01*
X134242465Y-126193944D01*
X134252889Y-126198874D01*
X134262780Y-126204802D01*
X134272041Y-126211671D01*
X134280585Y-126219415D01*
X134288329Y-126227959D01*
X134295198Y-126237220D01*
X134301126Y-126247111D01*
X134306056Y-126257535D01*
X134309940Y-126268392D01*
X134312742Y-126279577D01*
X134314434Y-126290983D01*
X134315000Y-126302500D01*
X134315000Y-127367500D01*
X134314434Y-127379017D01*
X134312742Y-127390423D01*
X134309940Y-127401608D01*
X134306056Y-127412465D01*
X134301126Y-127422889D01*
X134295198Y-127432780D01*
X134288329Y-127442041D01*
X134280585Y-127450585D01*
X134272041Y-127458329D01*
X134262780Y-127465198D01*
X134252889Y-127471126D01*
X134242465Y-127476056D01*
X134231608Y-127479940D01*
X134220423Y-127482742D01*
X134209017Y-127484434D01*
X134197500Y-127485000D01*
X133962500Y-127485000D01*
X133950983Y-127484434D01*
X133939577Y-127482742D01*
X133928392Y-127479940D01*
X133917535Y-127476056D01*
X133907111Y-127471126D01*
X133897220Y-127465198D01*
X133887959Y-127458329D01*
X133879415Y-127450585D01*
X133871671Y-127442041D01*
X133864802Y-127432780D01*
X133858874Y-127422889D01*
X133853944Y-127412465D01*
X133850060Y-127401608D01*
X133847258Y-127390423D01*
X133845566Y-127379017D01*
X133845000Y-127367500D01*
X133845000Y-126302500D01*
X133845566Y-126290983D01*
X133847258Y-126279577D01*
X133850060Y-126268392D01*
X133853944Y-126257535D01*
X133858874Y-126247111D01*
X133864802Y-126237220D01*
X133871671Y-126227959D01*
X133879415Y-126219415D01*
X133887959Y-126211671D01*
X133897220Y-126204802D01*
X133907111Y-126198874D01*
X133917535Y-126193944D01*
X133928392Y-126190060D01*
X133939577Y-126187258D01*
X133950983Y-126185566D01*
X133962500Y-126185000D01*
X134197500Y-126185000D01*
X134209017Y-126185566D01*
X134209017Y-126185566D01*
G37*
D27*
X134080000Y-126835000D03*
M02*
