G04 #@! TF.GenerationSoftware,KiCad,Pcbnew,(2016-12-16 revision f631ae2)-makepkg*
G04 #@! TF.CreationDate,2017-02-21T16:59:48-05:00*
G04 #@! TF.ProjectId,orc-esp1,6F72632D657370312E6B696361645F70,1*
G04 #@! TF.FileFunction,Copper,L2,Bot,Signal*
G04 #@! TF.FilePolarity,Positive*
%FSLAX46Y46*%
G04 Gerber Fmt 4.6, Leading zero omitted, Abs format (unit mm)*
G04 Created by KiCad (PCBNEW (2016-12-16 revision f631ae2)-makepkg) date 02/21/17 16:59:48*
%MOMM*%
%LPD*%
G01*
G04 APERTURE LIST*
%ADD10C,0.100000*%
%ADD11R,4.500000X3.500120*%
%ADD12C,3.500120*%
%ADD13R,1.700000X1.700000*%
%ADD14O,1.700000X1.700000*%
%ADD15C,2.000000*%
%ADD16O,2.032000X1.727200*%
%ADD17R,2.032000X1.727200*%
%ADD18R,2.032000X2.032000*%
%ADD19O,2.032000X2.032000*%
%ADD20O,1.727200X2.032000*%
%ADD21R,1.727200X2.032000*%
%ADD22C,0.685800*%
%ADD23C,0.254000*%
G04 APERTURE END LIST*
D10*
D11*
X113205260Y-97409000D03*
X110205520Y-92710000D03*
X116205000Y-92710000D03*
D12*
X108966000Y-138684000D03*
D13*
X167005000Y-139700000D03*
X164465000Y-139700000D03*
X161925000Y-139700000D03*
X159385000Y-139700000D03*
X156845000Y-139700000D03*
X154305000Y-139700000D03*
X151765000Y-139700000D03*
X149225000Y-139700000D03*
X146685000Y-139700000D03*
X144145000Y-139700000D03*
X167005000Y-137160000D03*
X164465000Y-137160000D03*
X161925000Y-137160000D03*
X159385000Y-137160000D03*
X156845000Y-137160000D03*
X154305000Y-137160000D03*
X151765000Y-137160000D03*
X149225000Y-137160000D03*
X146685000Y-137160000D03*
X144145000Y-137160000D03*
X167005000Y-134620000D03*
X164465000Y-134620000D03*
X161925000Y-134620000D03*
X159385000Y-134620000D03*
X156845000Y-134620000D03*
X154305000Y-134620000D03*
X151765000Y-134620000D03*
X149225000Y-134620000D03*
X146685000Y-134620000D03*
X144145000Y-134620000D03*
X167005000Y-132080000D03*
X164465000Y-132080000D03*
X161925000Y-132080000D03*
X159385000Y-132080000D03*
X156845000Y-132080000D03*
X154305000Y-132080000D03*
X151765000Y-132080000D03*
X149225000Y-132080000D03*
X146685000Y-132080000D03*
X144145000Y-132080000D03*
X167005000Y-129540000D03*
X164465000Y-129540000D03*
X161925000Y-129540000D03*
X159385000Y-129540000D03*
X156845000Y-129540000D03*
X154305000Y-129540000D03*
X151765000Y-129540000D03*
X149225000Y-129540000D03*
X146685000Y-129540000D03*
X144145000Y-129540000D03*
X167005000Y-127000000D03*
X164465000Y-127000000D03*
X161925000Y-127000000D03*
X159385000Y-127000000D03*
X156845000Y-127000000D03*
X154305000Y-127000000D03*
X151765000Y-127000000D03*
X149225000Y-127000000D03*
X146685000Y-127000000D03*
X144145000Y-127000000D03*
X167005000Y-124460000D03*
X164465000Y-124460000D03*
X161925000Y-124460000D03*
X159385000Y-124460000D03*
X156845000Y-124460000D03*
X154305000Y-124460000D03*
X151765000Y-124460000D03*
X149225000Y-124460000D03*
X146685000Y-124460000D03*
X144145000Y-124460000D03*
X167005000Y-121920000D03*
X164465000Y-121920000D03*
X161925000Y-121920000D03*
X159385000Y-121920000D03*
X156845000Y-121920000D03*
X154305000Y-121920000D03*
X151765000Y-121920000D03*
X149225000Y-121920000D03*
X146685000Y-121920000D03*
X144145000Y-121920000D03*
X167005000Y-119380000D03*
X164465000Y-119380000D03*
X161925000Y-119380000D03*
X159385000Y-119380000D03*
X156845000Y-119380000D03*
X154305000Y-119380000D03*
X151765000Y-119380000D03*
X149225000Y-119380000D03*
X146685000Y-119380000D03*
X144145000Y-119380000D03*
D14*
X110490000Y-123190000D03*
D13*
X107950000Y-123190000D03*
D14*
X161290000Y-81915000D03*
X161290000Y-84455000D03*
X161290000Y-86995000D03*
X161290000Y-89535000D03*
X161290000Y-92075000D03*
D13*
X161290000Y-94615000D03*
D15*
X156210000Y-80010000D03*
X156210000Y-84510000D03*
X149710000Y-80010000D03*
X149710000Y-84510000D03*
X109070000Y-84455000D03*
X109070000Y-79955000D03*
X115570000Y-84455000D03*
X115570000Y-79955000D03*
D16*
X145415000Y-115570000D03*
X145415000Y-113030000D03*
X145415000Y-110490000D03*
X145415000Y-107950000D03*
X145415000Y-105410000D03*
X145415000Y-102870000D03*
X145415000Y-100330000D03*
X145415000Y-97790000D03*
X145415000Y-95250000D03*
D17*
X145415000Y-92710000D03*
D18*
X149225000Y-115570000D03*
D19*
X151765000Y-115570000D03*
X151765000Y-110490000D03*
D18*
X149225000Y-110490000D03*
X149225000Y-105410000D03*
D19*
X151765000Y-105410000D03*
X151765000Y-102870000D03*
D18*
X149225000Y-102870000D03*
D19*
X151765000Y-113030000D03*
D18*
X149225000Y-113030000D03*
X149225000Y-100330000D03*
D19*
X151765000Y-100330000D03*
X151765000Y-107950000D03*
D18*
X149225000Y-107950000D03*
D20*
X126365000Y-102235000D03*
X128905000Y-102235000D03*
X131445000Y-102235000D03*
X133985000Y-102235000D03*
X136525000Y-102235000D03*
D21*
X139065000Y-102235000D03*
D15*
X135130000Y-137635000D03*
X127130000Y-137635000D03*
D22*
X129667000Y-125095000D03*
X130810000Y-121666000D03*
X147786804Y-98891804D03*
X147320000Y-111887000D03*
X131445000Y-108585000D03*
X141605000Y-108585000D03*
X136761099Y-104538901D03*
X125730000Y-104775000D03*
X139206836Y-106984638D03*
X132715000Y-107315000D03*
X121920000Y-92710000D03*
X143510000Y-115570000D03*
X122936000Y-91694000D03*
X143383000Y-110490000D03*
X138938000Y-99186992D03*
X127634976Y-90805000D03*
X140716000Y-100075988D03*
X126619000Y-93091000D03*
X142621000Y-97028000D03*
X141986000Y-87502998D03*
X142875000Y-99694980D03*
X143383000Y-86867992D03*
X117094000Y-118618000D03*
X116078000Y-118618000D03*
X117094000Y-117094000D03*
X116078000Y-117094000D03*
X117094000Y-117856000D03*
X116078000Y-117856000D03*
X110490000Y-132080000D03*
X107950000Y-132080000D03*
X120650000Y-97917000D03*
X107950000Y-99568000D03*
X120650000Y-101600000D03*
X119888000Y-129540000D03*
X121031000Y-138430000D03*
X129286000Y-122301000D03*
X139827000Y-127762000D03*
X140716000Y-137287000D03*
X123571000Y-137287000D03*
X125222000Y-125349000D03*
X162179000Y-99187000D03*
X162179000Y-116840000D03*
X152908000Y-96266000D03*
X141732000Y-95123000D03*
X140335000Y-95123000D03*
X141732000Y-93980000D03*
X134997118Y-106302882D03*
X127000000Y-106045000D03*
D23*
X130810000Y-121666000D02*
X130810000Y-123952000D01*
X130810000Y-123952000D02*
X129667000Y-125095000D01*
X147786804Y-111420196D02*
X147786804Y-99376737D01*
X147320000Y-111887000D02*
X147786804Y-111420196D01*
X147786804Y-99376737D02*
X147786804Y-98891804D01*
X141605000Y-108585000D02*
X131445000Y-108585000D01*
X125730000Y-104775000D02*
X136525000Y-104775000D01*
X136525000Y-104775000D02*
X136761099Y-104538901D01*
X132715000Y-107315000D02*
X138876474Y-107315000D01*
X138876474Y-107315000D02*
X139206836Y-106984638D01*
X143510000Y-115570000D02*
X143510000Y-112268000D01*
X127889000Y-110744000D02*
X121920000Y-104775000D01*
X143510000Y-112268000D02*
X141986000Y-110744000D01*
X121920000Y-93194933D02*
X121920000Y-92710000D01*
X141986000Y-110744000D02*
X127889000Y-110744000D01*
X121920000Y-104775000D02*
X121920000Y-93194933D01*
X143383000Y-110490000D02*
X143383000Y-110617000D01*
X143383000Y-110617000D02*
X142494000Y-109728000D01*
X142494000Y-109728000D02*
X128143000Y-109728000D01*
X128143000Y-109728000D02*
X122936000Y-104521000D01*
X122936000Y-104521000D02*
X122936000Y-92178933D01*
X122936000Y-92178933D02*
X122936000Y-91694000D01*
X130047992Y-99186992D02*
X138453067Y-99186992D01*
X128524000Y-97663000D02*
X130047992Y-99186992D01*
X128524000Y-91694024D02*
X128524000Y-97663000D01*
X138453067Y-99186992D02*
X138938000Y-99186992D01*
X127634976Y-90805000D02*
X128524000Y-91694024D01*
X140231067Y-100075988D02*
X140716000Y-100075988D01*
X126619000Y-93091000D02*
X126619000Y-98127436D01*
X128567552Y-100075988D02*
X140231067Y-100075988D01*
X126619000Y-98127436D02*
X128567552Y-100075988D01*
X142621000Y-96543067D02*
X142621000Y-97028000D01*
X142621000Y-88137998D02*
X142621000Y-96543067D01*
X141986000Y-87502998D02*
X142621000Y-88137998D01*
X143383000Y-86867992D02*
X143383000Y-99187000D01*
X143383000Y-99187000D02*
X142875000Y-99695000D01*
X142875000Y-99695000D02*
X142875000Y-99694980D01*
X116078000Y-118618000D02*
X117094000Y-118618000D01*
X116078000Y-117094000D02*
X117094000Y-117094000D01*
X116078000Y-117856000D02*
X117094000Y-117856000D01*
X134739236Y-106045000D02*
X134997118Y-106302882D01*
X127000000Y-106045000D02*
X134739236Y-106045000D01*
G36*
X120523000Y-79375000D02*
X120532667Y-79423601D01*
X120560197Y-79464803D01*
X120601399Y-79492333D01*
X120650000Y-79502000D01*
X144780000Y-79502000D01*
X144828601Y-79492333D01*
X144869803Y-79464803D01*
X144897333Y-79423601D01*
X144907000Y-79375000D01*
X144907000Y-78996258D01*
X148875863Y-78996258D01*
X149710000Y-79830395D01*
X150544137Y-78996258D01*
X155375863Y-78996258D01*
X156210000Y-79830395D01*
X157044137Y-78996258D01*
X156931515Y-78800854D01*
X156413874Y-78616783D01*
X155865194Y-78644816D01*
X155488485Y-78800854D01*
X155375863Y-78996258D01*
X150544137Y-78996258D01*
X150431515Y-78800854D01*
X149913874Y-78616783D01*
X149365194Y-78644816D01*
X148988485Y-78800854D01*
X148875863Y-78996258D01*
X144907000Y-78996258D01*
X144907000Y-76656000D01*
X169724000Y-76656000D01*
X169724000Y-117983000D01*
X144526000Y-117983000D01*
X144477399Y-117992667D01*
X144436197Y-118020197D01*
X144408667Y-118061399D01*
X144399000Y-118110000D01*
X144399000Y-118149000D01*
X144367250Y-118149000D01*
X144272000Y-118244250D01*
X144272000Y-119253000D01*
X144292000Y-119253000D01*
X144292000Y-119507000D01*
X144272000Y-119507000D01*
X144272000Y-120515750D01*
X144367250Y-120611000D01*
X144399000Y-120611000D01*
X144399000Y-120689000D01*
X144367250Y-120689000D01*
X144272000Y-120784250D01*
X144272000Y-121793000D01*
X144292000Y-121793000D01*
X144292000Y-122047000D01*
X144272000Y-122047000D01*
X144272000Y-123055750D01*
X144367250Y-123151000D01*
X144399000Y-123151000D01*
X144399000Y-123229000D01*
X144367250Y-123229000D01*
X144272000Y-123324250D01*
X144272000Y-124333000D01*
X144292000Y-124333000D01*
X144292000Y-124587000D01*
X144272000Y-124587000D01*
X144272000Y-125595750D01*
X144367250Y-125691000D01*
X144399000Y-125691000D01*
X144399000Y-125769000D01*
X144367250Y-125769000D01*
X144272000Y-125864250D01*
X144272000Y-126873000D01*
X144292000Y-126873000D01*
X144292000Y-127127000D01*
X144272000Y-127127000D01*
X144272000Y-128135750D01*
X144367250Y-128231000D01*
X144399000Y-128231000D01*
X144399000Y-128309000D01*
X144367250Y-128309000D01*
X144272000Y-128404250D01*
X144272000Y-129413000D01*
X144292000Y-129413000D01*
X144292000Y-129667000D01*
X144272000Y-129667000D01*
X144272000Y-130675750D01*
X144367250Y-130771000D01*
X144399000Y-130771000D01*
X144399000Y-130849000D01*
X144367250Y-130849000D01*
X144272000Y-130944250D01*
X144272000Y-131953000D01*
X144292000Y-131953000D01*
X144292000Y-132207000D01*
X144272000Y-132207000D01*
X144272000Y-133215750D01*
X144367250Y-133311000D01*
X144399000Y-133311000D01*
X144399000Y-133389000D01*
X144367250Y-133389000D01*
X144272000Y-133484250D01*
X144272000Y-134493000D01*
X144292000Y-134493000D01*
X144292000Y-134747000D01*
X144272000Y-134747000D01*
X144272000Y-135755750D01*
X144367250Y-135851000D01*
X144399000Y-135851000D01*
X144399000Y-135929000D01*
X144367250Y-135929000D01*
X144272000Y-136024250D01*
X144272000Y-137033000D01*
X144292000Y-137033000D01*
X144292000Y-137287000D01*
X144272000Y-137287000D01*
X144272000Y-138295750D01*
X144367250Y-138391000D01*
X144399000Y-138391000D01*
X144399000Y-138469000D01*
X144367250Y-138469000D01*
X144272000Y-138564250D01*
X144272000Y-139573000D01*
X144292000Y-139573000D01*
X144292000Y-139827000D01*
X144272000Y-139827000D01*
X144272000Y-140835750D01*
X144367250Y-140931000D01*
X144399000Y-140931000D01*
X144399000Y-141784000D01*
X104596000Y-141784000D01*
X104596000Y-140240112D01*
X107589493Y-140240112D01*
X107793783Y-140513484D01*
X108583126Y-140822811D01*
X109430759Y-140806522D01*
X110138217Y-140513484D01*
X110342507Y-140240112D01*
X108966000Y-138863605D01*
X107589493Y-140240112D01*
X104596000Y-140240112D01*
X104596000Y-138301126D01*
X106827189Y-138301126D01*
X106843478Y-139148759D01*
X107136516Y-139856217D01*
X107409888Y-140060507D01*
X108786395Y-138684000D01*
X109145605Y-138684000D01*
X110522112Y-140060507D01*
X110707121Y-139922250D01*
X142914000Y-139922250D01*
X142914000Y-140625786D01*
X142972004Y-140765820D01*
X143079181Y-140872996D01*
X143219215Y-140931000D01*
X143922750Y-140931000D01*
X144018000Y-140835750D01*
X144018000Y-139827000D01*
X143009250Y-139827000D01*
X142914000Y-139922250D01*
X110707121Y-139922250D01*
X110795484Y-139856217D01*
X111104811Y-139066874D01*
X111088522Y-138219241D01*
X110959807Y-137908493D01*
X125748761Y-137908493D01*
X125958563Y-138416251D01*
X126346705Y-138805072D01*
X126854097Y-139015759D01*
X127403493Y-139016239D01*
X127911251Y-138806437D01*
X128300072Y-138418295D01*
X128510759Y-137910903D01*
X128510761Y-137908493D01*
X133748761Y-137908493D01*
X133958563Y-138416251D01*
X134346705Y-138805072D01*
X134854097Y-139015759D01*
X135403493Y-139016239D01*
X135911251Y-138806437D01*
X135943530Y-138774214D01*
X142914000Y-138774214D01*
X142914000Y-139477750D01*
X143009250Y-139573000D01*
X144018000Y-139573000D01*
X144018000Y-138564250D01*
X143922750Y-138469000D01*
X143219215Y-138469000D01*
X143079181Y-138527004D01*
X142972004Y-138634180D01*
X142914000Y-138774214D01*
X135943530Y-138774214D01*
X136300072Y-138418295D01*
X136510759Y-137910903D01*
X136511220Y-137382250D01*
X142914000Y-137382250D01*
X142914000Y-138085786D01*
X142972004Y-138225820D01*
X143079181Y-138332996D01*
X143219215Y-138391000D01*
X143922750Y-138391000D01*
X144018000Y-138295750D01*
X144018000Y-137287000D01*
X143009250Y-137287000D01*
X142914000Y-137382250D01*
X136511220Y-137382250D01*
X136511239Y-137361507D01*
X136301437Y-136853749D01*
X135913295Y-136464928D01*
X135405903Y-136254241D01*
X134856507Y-136253761D01*
X134348749Y-136463563D01*
X133959928Y-136851705D01*
X133749241Y-137359097D01*
X133748761Y-137908493D01*
X128510761Y-137908493D01*
X128511239Y-137361507D01*
X128301437Y-136853749D01*
X127913295Y-136464928D01*
X127405903Y-136254241D01*
X126856507Y-136253761D01*
X126348749Y-136463563D01*
X125959928Y-136851705D01*
X125749241Y-137359097D01*
X125748761Y-137908493D01*
X110959807Y-137908493D01*
X110795484Y-137511783D01*
X110522112Y-137307493D01*
X109145605Y-138684000D01*
X108786395Y-138684000D01*
X107409888Y-137307493D01*
X107136516Y-137511783D01*
X106827189Y-138301126D01*
X104596000Y-138301126D01*
X104596000Y-137127888D01*
X107589493Y-137127888D01*
X108966000Y-138504395D01*
X110342507Y-137127888D01*
X110138217Y-136854516D01*
X109348874Y-136545189D01*
X108501241Y-136561478D01*
X107793783Y-136854516D01*
X107589493Y-137127888D01*
X104596000Y-137127888D01*
X104596000Y-136234214D01*
X142914000Y-136234214D01*
X142914000Y-136937750D01*
X143009250Y-137033000D01*
X144018000Y-137033000D01*
X144018000Y-136024250D01*
X143922750Y-135929000D01*
X143219215Y-135929000D01*
X143079181Y-135987004D01*
X142972004Y-136094180D01*
X142914000Y-136234214D01*
X104596000Y-136234214D01*
X104596000Y-134842250D01*
X142914000Y-134842250D01*
X142914000Y-135545786D01*
X142972004Y-135685820D01*
X143079181Y-135792996D01*
X143219215Y-135851000D01*
X143922750Y-135851000D01*
X144018000Y-135755750D01*
X144018000Y-134747000D01*
X143009250Y-134747000D01*
X142914000Y-134842250D01*
X104596000Y-134842250D01*
X104596000Y-133694214D01*
X142914000Y-133694214D01*
X142914000Y-134397750D01*
X143009250Y-134493000D01*
X144018000Y-134493000D01*
X144018000Y-133484250D01*
X143922750Y-133389000D01*
X143219215Y-133389000D01*
X143079181Y-133447004D01*
X142972004Y-133554180D01*
X142914000Y-133694214D01*
X104596000Y-133694214D01*
X104596000Y-132935569D01*
X108126324Y-132935569D01*
X108244974Y-133222723D01*
X108464481Y-133442614D01*
X108751428Y-133561764D01*
X109062129Y-133562036D01*
X109349283Y-133443386D01*
X109569174Y-133223879D01*
X109688324Y-132936932D01*
X109688596Y-132626231D01*
X109569946Y-132339077D01*
X109533184Y-132302250D01*
X142914000Y-132302250D01*
X142914000Y-133005786D01*
X142972004Y-133145820D01*
X143079181Y-133252996D01*
X143219215Y-133311000D01*
X143922750Y-133311000D01*
X144018000Y-133215750D01*
X144018000Y-132207000D01*
X143009250Y-132207000D01*
X142914000Y-132302250D01*
X109533184Y-132302250D01*
X109350439Y-132119186D01*
X109063492Y-132000036D01*
X108752791Y-131999764D01*
X108465637Y-132118414D01*
X108245746Y-132337921D01*
X108126596Y-132624868D01*
X108126324Y-132935569D01*
X104596000Y-132935569D01*
X104596000Y-131154214D01*
X142914000Y-131154214D01*
X142914000Y-131857750D01*
X143009250Y-131953000D01*
X144018000Y-131953000D01*
X144018000Y-130944250D01*
X143922750Y-130849000D01*
X143219215Y-130849000D01*
X143079181Y-130907004D01*
X142972004Y-131014180D01*
X142914000Y-131154214D01*
X104596000Y-131154214D01*
X104596000Y-129762250D01*
X142914000Y-129762250D01*
X142914000Y-130465786D01*
X142972004Y-130605820D01*
X143079181Y-130712996D01*
X143219215Y-130771000D01*
X143922750Y-130771000D01*
X144018000Y-130675750D01*
X144018000Y-129667000D01*
X143009250Y-129667000D01*
X142914000Y-129762250D01*
X104596000Y-129762250D01*
X104596000Y-128935569D01*
X108126324Y-128935569D01*
X108244974Y-129222723D01*
X108464481Y-129442614D01*
X108751428Y-129561764D01*
X109062129Y-129562036D01*
X109349283Y-129443386D01*
X109569174Y-129223879D01*
X109688324Y-128936932D01*
X109688596Y-128626231D01*
X109683631Y-128614214D01*
X142914000Y-128614214D01*
X142914000Y-129317750D01*
X143009250Y-129413000D01*
X144018000Y-129413000D01*
X144018000Y-128404250D01*
X143922750Y-128309000D01*
X143219215Y-128309000D01*
X143079181Y-128367004D01*
X142972004Y-128474180D01*
X142914000Y-128614214D01*
X109683631Y-128614214D01*
X109569946Y-128339077D01*
X109350439Y-128119186D01*
X109063492Y-128000036D01*
X108752791Y-127999764D01*
X108465637Y-128118414D01*
X108245746Y-128337921D01*
X108126596Y-128624868D01*
X108126324Y-128935569D01*
X104596000Y-128935569D01*
X104596000Y-127222250D01*
X142914000Y-127222250D01*
X142914000Y-127925786D01*
X142972004Y-128065820D01*
X143079181Y-128172996D01*
X143219215Y-128231000D01*
X143922750Y-128231000D01*
X144018000Y-128135750D01*
X144018000Y-127127000D01*
X143009250Y-127127000D01*
X142914000Y-127222250D01*
X104596000Y-127222250D01*
X104596000Y-126074214D01*
X142914000Y-126074214D01*
X142914000Y-126777750D01*
X143009250Y-126873000D01*
X144018000Y-126873000D01*
X144018000Y-125864250D01*
X143922750Y-125769000D01*
X143219215Y-125769000D01*
X143079181Y-125827004D01*
X142972004Y-125934180D01*
X142914000Y-126074214D01*
X104596000Y-126074214D01*
X104596000Y-125238361D01*
X128942975Y-125238361D01*
X129052950Y-125504521D01*
X129256408Y-125708335D01*
X129522376Y-125818774D01*
X129810361Y-125819025D01*
X130076521Y-125709050D01*
X130280335Y-125505592D01*
X130390774Y-125239624D01*
X130390905Y-125089515D01*
X130798170Y-124682250D01*
X142914000Y-124682250D01*
X142914000Y-125385786D01*
X142972004Y-125525820D01*
X143079181Y-125632996D01*
X143219215Y-125691000D01*
X143922750Y-125691000D01*
X144018000Y-125595750D01*
X144018000Y-124587000D01*
X143009250Y-124587000D01*
X142914000Y-124682250D01*
X130798170Y-124682250D01*
X131169210Y-124311210D01*
X131279331Y-124146404D01*
X131318000Y-123952000D01*
X131318000Y-123534214D01*
X142914000Y-123534214D01*
X142914000Y-124237750D01*
X143009250Y-124333000D01*
X144018000Y-124333000D01*
X144018000Y-123324250D01*
X143922750Y-123229000D01*
X143219215Y-123229000D01*
X143079181Y-123287004D01*
X142972004Y-123394180D01*
X142914000Y-123534214D01*
X131318000Y-123534214D01*
X131318000Y-122181743D01*
X131357562Y-122142250D01*
X142914000Y-122142250D01*
X142914000Y-122845786D01*
X142972004Y-122985820D01*
X143079181Y-123092996D01*
X143219215Y-123151000D01*
X143922750Y-123151000D01*
X144018000Y-123055750D01*
X144018000Y-122047000D01*
X143009250Y-122047000D01*
X142914000Y-122142250D01*
X131357562Y-122142250D01*
X131423335Y-122076592D01*
X131533774Y-121810624D01*
X131534025Y-121522639D01*
X131424050Y-121256479D01*
X131220592Y-121052665D01*
X131079826Y-120994214D01*
X142914000Y-120994214D01*
X142914000Y-121697750D01*
X143009250Y-121793000D01*
X144018000Y-121793000D01*
X144018000Y-120784250D01*
X143922750Y-120689000D01*
X143219215Y-120689000D01*
X143079181Y-120747004D01*
X142972004Y-120854180D01*
X142914000Y-120994214D01*
X131079826Y-120994214D01*
X130954624Y-120942226D01*
X130666639Y-120941975D01*
X130400479Y-121051950D01*
X130196665Y-121255408D01*
X130086226Y-121521376D01*
X130085975Y-121809361D01*
X130195950Y-122075521D01*
X130302000Y-122181757D01*
X130302000Y-123741580D01*
X129672475Y-124371105D01*
X129523639Y-124370975D01*
X129257479Y-124480950D01*
X129053665Y-124684408D01*
X128943226Y-124950376D01*
X128942975Y-125238361D01*
X104596000Y-125238361D01*
X104596000Y-123412250D01*
X106719000Y-123412250D01*
X106719000Y-124115786D01*
X106777004Y-124255820D01*
X106884181Y-124362996D01*
X107024215Y-124421000D01*
X107727750Y-124421000D01*
X107823000Y-124325750D01*
X107823000Y-123317000D01*
X108077000Y-123317000D01*
X108077000Y-124325750D01*
X108172250Y-124421000D01*
X108875785Y-124421000D01*
X109015819Y-124362996D01*
X109122996Y-124255820D01*
X109181000Y-124115786D01*
X109181000Y-123412250D01*
X109085750Y-123317000D01*
X108077000Y-123317000D01*
X107823000Y-123317000D01*
X106814250Y-123317000D01*
X106719000Y-123412250D01*
X104596000Y-123412250D01*
X104596000Y-123165883D01*
X109259000Y-123165883D01*
X109259000Y-123214117D01*
X109352704Y-123685200D01*
X109619552Y-124084565D01*
X110018917Y-124351413D01*
X110490000Y-124445117D01*
X110961083Y-124351413D01*
X111360448Y-124084565D01*
X111627296Y-123685200D01*
X111721000Y-123214117D01*
X111721000Y-123165883D01*
X111627296Y-122694800D01*
X111360448Y-122295435D01*
X110961083Y-122028587D01*
X110490000Y-121934883D01*
X110018917Y-122028587D01*
X109619552Y-122295435D01*
X109352704Y-122694800D01*
X109259000Y-123165883D01*
X104596000Y-123165883D01*
X104596000Y-122264214D01*
X106719000Y-122264214D01*
X106719000Y-122967750D01*
X106814250Y-123063000D01*
X107823000Y-123063000D01*
X107823000Y-122054250D01*
X108077000Y-122054250D01*
X108077000Y-123063000D01*
X109085750Y-123063000D01*
X109181000Y-122967750D01*
X109181000Y-122264214D01*
X109122996Y-122124180D01*
X109015819Y-122017004D01*
X108875785Y-121959000D01*
X108172250Y-121959000D01*
X108077000Y-122054250D01*
X107823000Y-122054250D01*
X107727750Y-121959000D01*
X107024215Y-121959000D01*
X106884181Y-122017004D01*
X106777004Y-122124180D01*
X106719000Y-122264214D01*
X104596000Y-122264214D01*
X104596000Y-119602250D01*
X142914000Y-119602250D01*
X142914000Y-120305786D01*
X142972004Y-120445820D01*
X143079181Y-120552996D01*
X143219215Y-120611000D01*
X143922750Y-120611000D01*
X144018000Y-120515750D01*
X144018000Y-119507000D01*
X143009250Y-119507000D01*
X142914000Y-119602250D01*
X104596000Y-119602250D01*
X104596000Y-118454214D01*
X142914000Y-118454214D01*
X142914000Y-119157750D01*
X143009250Y-119253000D01*
X144018000Y-119253000D01*
X144018000Y-118244250D01*
X143922750Y-118149000D01*
X143219215Y-118149000D01*
X143079181Y-118207004D01*
X142972004Y-118314180D01*
X142914000Y-118454214D01*
X104596000Y-118454214D01*
X104596000Y-97631250D01*
X110574260Y-97631250D01*
X110574260Y-99234845D01*
X110632264Y-99374879D01*
X110739440Y-99482056D01*
X110879474Y-99540060D01*
X112983010Y-99540060D01*
X113078260Y-99444810D01*
X113078260Y-97536000D01*
X113332260Y-97536000D01*
X113332260Y-99444810D01*
X113427510Y-99540060D01*
X115531046Y-99540060D01*
X115671080Y-99482056D01*
X115778256Y-99374879D01*
X115836260Y-99234845D01*
X115836260Y-97631250D01*
X115741010Y-97536000D01*
X113332260Y-97536000D01*
X113078260Y-97536000D01*
X110669510Y-97536000D01*
X110574260Y-97631250D01*
X104596000Y-97631250D01*
X104596000Y-95583155D01*
X110574260Y-95583155D01*
X110574260Y-97186750D01*
X110669510Y-97282000D01*
X113078260Y-97282000D01*
X113078260Y-95373190D01*
X113332260Y-95373190D01*
X113332260Y-97282000D01*
X115741010Y-97282000D01*
X115836260Y-97186750D01*
X115836260Y-95583155D01*
X115778256Y-95443121D01*
X115671080Y-95335944D01*
X115531046Y-95277940D01*
X113427510Y-95277940D01*
X113332260Y-95373190D01*
X113078260Y-95373190D01*
X112983010Y-95277940D01*
X110879474Y-95277940D01*
X110739440Y-95335944D01*
X110632264Y-95443121D01*
X110574260Y-95583155D01*
X104596000Y-95583155D01*
X104596000Y-92932250D01*
X107574520Y-92932250D01*
X107574520Y-94535845D01*
X107632524Y-94675879D01*
X107739700Y-94783056D01*
X107879734Y-94841060D01*
X109983270Y-94841060D01*
X110078520Y-94745810D01*
X110078520Y-92837000D01*
X110332520Y-92837000D01*
X110332520Y-94745810D01*
X110427770Y-94841060D01*
X112531306Y-94841060D01*
X112671340Y-94783056D01*
X112778516Y-94675879D01*
X112836520Y-94535845D01*
X112836520Y-92932250D01*
X112741270Y-92837000D01*
X110332520Y-92837000D01*
X110078520Y-92837000D01*
X107669770Y-92837000D01*
X107574520Y-92932250D01*
X104596000Y-92932250D01*
X104596000Y-90884155D01*
X107574520Y-90884155D01*
X107574520Y-92487750D01*
X107669770Y-92583000D01*
X110078520Y-92583000D01*
X110078520Y-90674190D01*
X110332520Y-90674190D01*
X110332520Y-92583000D01*
X112741270Y-92583000D01*
X112836520Y-92487750D01*
X112836520Y-90959940D01*
X113566536Y-90959940D01*
X113566536Y-94460060D01*
X113596106Y-94608719D01*
X113680314Y-94734746D01*
X113806341Y-94818954D01*
X113955000Y-94848524D01*
X118455000Y-94848524D01*
X118603659Y-94818954D01*
X118729686Y-94734746D01*
X118813894Y-94608719D01*
X118843464Y-94460060D01*
X118843464Y-92853361D01*
X121195975Y-92853361D01*
X121305950Y-93119521D01*
X121412000Y-93225757D01*
X121412000Y-104775000D01*
X121450669Y-104969403D01*
X121560790Y-105134210D01*
X127529790Y-111103210D01*
X127694597Y-111213331D01*
X127889000Y-111252000D01*
X141775580Y-111252000D01*
X143002000Y-112478421D01*
X143002000Y-115054257D01*
X142896665Y-115159408D01*
X142786226Y-115425376D01*
X142785975Y-115713361D01*
X142895950Y-115979521D01*
X143099408Y-116183335D01*
X143365376Y-116293774D01*
X143653361Y-116294025D01*
X143919521Y-116184050D01*
X144080758Y-116023095D01*
X144085371Y-116046288D01*
X144355166Y-116450065D01*
X144758943Y-116719860D01*
X145235231Y-116814600D01*
X145594769Y-116814600D01*
X146071057Y-116719860D01*
X146474834Y-116450065D01*
X146744629Y-116046288D01*
X146839369Y-115570000D01*
X146744629Y-115093712D01*
X146474834Y-114689935D01*
X146071057Y-114420140D01*
X145594769Y-114325400D01*
X145235231Y-114325400D01*
X144758943Y-114420140D01*
X144355166Y-114689935D01*
X144085371Y-115093712D01*
X144080723Y-115117077D01*
X144018000Y-115054243D01*
X144018000Y-113167593D01*
X144085371Y-113506288D01*
X144355166Y-113910065D01*
X144758943Y-114179860D01*
X145235231Y-114274600D01*
X145594769Y-114274600D01*
X146071057Y-114179860D01*
X146474834Y-113910065D01*
X146744629Y-113506288D01*
X146839369Y-113030000D01*
X146744629Y-112553712D01*
X146474834Y-112149935D01*
X146295879Y-112030361D01*
X146595975Y-112030361D01*
X146705950Y-112296521D01*
X146909408Y-112500335D01*
X147175376Y-112610774D01*
X147463361Y-112611025D01*
X147729521Y-112501050D01*
X147820536Y-112410194D01*
X147820536Y-114046000D01*
X147850106Y-114194659D01*
X147920492Y-114300000D01*
X147850106Y-114405341D01*
X147820536Y-114554000D01*
X147820536Y-116586000D01*
X147850106Y-116734659D01*
X147934314Y-116860686D01*
X148060341Y-116944894D01*
X148209000Y-116974464D01*
X150241000Y-116974464D01*
X150389659Y-116944894D01*
X150515686Y-116860686D01*
X150599894Y-116734659D01*
X150629464Y-116586000D01*
X150629464Y-116364137D01*
X150777172Y-116585197D01*
X151230391Y-116888029D01*
X151765000Y-116994369D01*
X152299609Y-116888029D01*
X152752828Y-116585197D01*
X153055660Y-116131978D01*
X153162000Y-115597369D01*
X153162000Y-115542631D01*
X153055660Y-115008022D01*
X152752828Y-114554803D01*
X152371489Y-114300000D01*
X152752828Y-114045197D01*
X153055660Y-113591978D01*
X153162000Y-113057369D01*
X153162000Y-113002631D01*
X153055660Y-112468022D01*
X152752828Y-112014803D01*
X152371489Y-111760000D01*
X152752828Y-111505197D01*
X153055660Y-111051978D01*
X153162000Y-110517369D01*
X153162000Y-110462631D01*
X153055660Y-109928022D01*
X152752828Y-109474803D01*
X152371489Y-109220000D01*
X152752828Y-108965197D01*
X153055660Y-108511978D01*
X153162000Y-107977369D01*
X153162000Y-107922631D01*
X153055660Y-107388022D01*
X152752828Y-106934803D01*
X152371489Y-106680000D01*
X152752828Y-106425197D01*
X153055660Y-105971978D01*
X153162000Y-105437369D01*
X153162000Y-105382631D01*
X153055660Y-104848022D01*
X152752828Y-104394803D01*
X152371489Y-104140000D01*
X152752828Y-103885197D01*
X153055660Y-103431978D01*
X153162000Y-102897369D01*
X153162000Y-102842631D01*
X153055660Y-102308022D01*
X152752828Y-101854803D01*
X152371489Y-101600000D01*
X152752828Y-101345197D01*
X153055660Y-100891978D01*
X153162000Y-100357369D01*
X153162000Y-100302631D01*
X153055660Y-99768022D01*
X152752828Y-99314803D01*
X152299609Y-99011971D01*
X151765000Y-98905631D01*
X151230391Y-99011971D01*
X150777172Y-99314803D01*
X150629464Y-99535863D01*
X150629464Y-99314000D01*
X150599894Y-99165341D01*
X150515686Y-99039314D01*
X150389659Y-98955106D01*
X150241000Y-98925536D01*
X148510675Y-98925536D01*
X148510829Y-98748443D01*
X148400854Y-98482283D01*
X148197396Y-98278469D01*
X147931428Y-98168030D01*
X147643443Y-98167779D01*
X147377283Y-98277754D01*
X147173469Y-98481212D01*
X147063030Y-98747180D01*
X147062779Y-99035165D01*
X147172754Y-99301325D01*
X147278804Y-99407561D01*
X147278804Y-111163064D01*
X147176639Y-111162975D01*
X146910479Y-111272950D01*
X146706665Y-111476408D01*
X146596226Y-111742376D01*
X146595975Y-112030361D01*
X146295879Y-112030361D01*
X146071057Y-111880140D01*
X145594769Y-111785400D01*
X145235231Y-111785400D01*
X144758943Y-111880140D01*
X144355166Y-112149935D01*
X144085371Y-112553712D01*
X144018000Y-112892407D01*
X144018000Y-112268000D01*
X143979331Y-112073597D01*
X143872938Y-111914369D01*
X143869210Y-111908789D01*
X143128620Y-111168200D01*
X143238376Y-111213774D01*
X143526361Y-111214025D01*
X143792521Y-111104050D01*
X143996335Y-110900592D01*
X144047698Y-110776895D01*
X144085371Y-110966288D01*
X144355166Y-111370065D01*
X144758943Y-111639860D01*
X145235231Y-111734600D01*
X145594769Y-111734600D01*
X146071057Y-111639860D01*
X146474834Y-111370065D01*
X146744629Y-110966288D01*
X146839369Y-110490000D01*
X146744629Y-110013712D01*
X146474834Y-109609935D01*
X146071057Y-109340140D01*
X145594769Y-109245400D01*
X145235231Y-109245400D01*
X144758943Y-109340140D01*
X144355166Y-109609935D01*
X144085371Y-110013712D01*
X144047705Y-110203073D01*
X143997050Y-110080479D01*
X143793592Y-109876665D01*
X143527624Y-109766226D01*
X143250404Y-109765984D01*
X142853210Y-109368790D01*
X142688403Y-109258669D01*
X142494000Y-109220000D01*
X141963818Y-109220000D01*
X142014521Y-109199050D01*
X142218335Y-108995592D01*
X142328774Y-108729624D01*
X142329025Y-108441639D01*
X142219050Y-108175479D01*
X142015592Y-107971665D01*
X141963417Y-107950000D01*
X143990631Y-107950000D01*
X144085371Y-108426288D01*
X144355166Y-108830065D01*
X144758943Y-109099860D01*
X145235231Y-109194600D01*
X145594769Y-109194600D01*
X146071057Y-109099860D01*
X146474834Y-108830065D01*
X146744629Y-108426288D01*
X146839369Y-107950000D01*
X146744629Y-107473712D01*
X146474834Y-107069935D01*
X146071057Y-106800140D01*
X145594769Y-106705400D01*
X145235231Y-106705400D01*
X144758943Y-106800140D01*
X144355166Y-107069935D01*
X144085371Y-107473712D01*
X143990631Y-107950000D01*
X141963417Y-107950000D01*
X141749624Y-107861226D01*
X141461639Y-107860975D01*
X141195479Y-107970950D01*
X141089243Y-108077000D01*
X131960743Y-108077000D01*
X131855592Y-107971665D01*
X131589624Y-107861226D01*
X131301639Y-107860975D01*
X131035479Y-107970950D01*
X130831665Y-108174408D01*
X130721226Y-108440376D01*
X130720975Y-108728361D01*
X130830950Y-108994521D01*
X131034408Y-109198335D01*
X131086583Y-109220000D01*
X128353420Y-109220000D01*
X125321781Y-106188361D01*
X126275975Y-106188361D01*
X126385950Y-106454521D01*
X126589408Y-106658335D01*
X126855376Y-106768774D01*
X127143361Y-106769025D01*
X127409521Y-106659050D01*
X127515757Y-106553000D01*
X134317204Y-106553000D01*
X134383068Y-106712403D01*
X134477500Y-106807000D01*
X133230743Y-106807000D01*
X133125592Y-106701665D01*
X132859624Y-106591226D01*
X132571639Y-106590975D01*
X132305479Y-106700950D01*
X132101665Y-106904408D01*
X131991226Y-107170376D01*
X131990975Y-107458361D01*
X132100950Y-107724521D01*
X132304408Y-107928335D01*
X132570376Y-108038774D01*
X132858361Y-108039025D01*
X133124521Y-107929050D01*
X133230757Y-107823000D01*
X138876474Y-107823000D01*
X139070877Y-107784331D01*
X139184338Y-107708518D01*
X139350197Y-107708663D01*
X139616357Y-107598688D01*
X139820171Y-107395230D01*
X139930610Y-107129262D01*
X139930861Y-106841277D01*
X139820886Y-106575117D01*
X139617428Y-106371303D01*
X139351460Y-106260864D01*
X139063475Y-106260613D01*
X138797315Y-106370588D01*
X138593501Y-106574046D01*
X138496771Y-106807000D01*
X135516763Y-106807000D01*
X135610453Y-106713474D01*
X135720892Y-106447506D01*
X135721143Y-106159521D01*
X135611168Y-105893361D01*
X135407710Y-105689547D01*
X135141742Y-105579108D01*
X134938521Y-105578931D01*
X134933639Y-105575669D01*
X134739236Y-105537000D01*
X127515743Y-105537000D01*
X127410592Y-105431665D01*
X127358417Y-105410000D01*
X143990631Y-105410000D01*
X144085371Y-105886288D01*
X144355166Y-106290065D01*
X144758943Y-106559860D01*
X145235231Y-106654600D01*
X145594769Y-106654600D01*
X146071057Y-106559860D01*
X146474834Y-106290065D01*
X146744629Y-105886288D01*
X146839369Y-105410000D01*
X146744629Y-104933712D01*
X146474834Y-104529935D01*
X146071057Y-104260140D01*
X145594769Y-104165400D01*
X145235231Y-104165400D01*
X144758943Y-104260140D01*
X144355166Y-104529935D01*
X144085371Y-104933712D01*
X143990631Y-105410000D01*
X127358417Y-105410000D01*
X127144624Y-105321226D01*
X126856639Y-105320975D01*
X126590479Y-105430950D01*
X126386665Y-105634408D01*
X126276226Y-105900376D01*
X126275975Y-106188361D01*
X125321781Y-106188361D01*
X124051781Y-104918361D01*
X125005975Y-104918361D01*
X125115950Y-105184521D01*
X125319408Y-105388335D01*
X125585376Y-105498774D01*
X125873361Y-105499025D01*
X126139521Y-105389050D01*
X126245757Y-105283000D01*
X136525000Y-105283000D01*
X136627134Y-105262684D01*
X136904460Y-105262926D01*
X137170620Y-105152951D01*
X137374434Y-104949493D01*
X137484873Y-104683525D01*
X137485124Y-104395540D01*
X137375149Y-104129380D01*
X137171691Y-103925566D01*
X136905723Y-103815127D01*
X136617738Y-103814876D01*
X136351578Y-103924851D01*
X136147764Y-104128309D01*
X136090175Y-104267000D01*
X126245743Y-104267000D01*
X126140592Y-104161665D01*
X125874624Y-104051226D01*
X125586639Y-104050975D01*
X125320479Y-104160950D01*
X125116665Y-104364408D01*
X125006226Y-104630376D01*
X125005975Y-104918361D01*
X124051781Y-104918361D01*
X123444000Y-104310580D01*
X123444000Y-102055231D01*
X125120400Y-102055231D01*
X125120400Y-102414769D01*
X125215140Y-102891057D01*
X125484935Y-103294834D01*
X125888712Y-103564629D01*
X126365000Y-103659369D01*
X126841288Y-103564629D01*
X127245065Y-103294834D01*
X127514860Y-102891057D01*
X127609600Y-102414769D01*
X127609600Y-102055231D01*
X127660400Y-102055231D01*
X127660400Y-102414769D01*
X127755140Y-102891057D01*
X128024935Y-103294834D01*
X128428712Y-103564629D01*
X128905000Y-103659369D01*
X129381288Y-103564629D01*
X129785065Y-103294834D01*
X130054860Y-102891057D01*
X130149600Y-102414769D01*
X130149600Y-102055231D01*
X130200400Y-102055231D01*
X130200400Y-102414769D01*
X130295140Y-102891057D01*
X130564935Y-103294834D01*
X130968712Y-103564629D01*
X131445000Y-103659369D01*
X131921288Y-103564629D01*
X132325065Y-103294834D01*
X132594860Y-102891057D01*
X132689600Y-102414769D01*
X132689600Y-102055231D01*
X132740400Y-102055231D01*
X132740400Y-102414769D01*
X132835140Y-102891057D01*
X133104935Y-103294834D01*
X133508712Y-103564629D01*
X133985000Y-103659369D01*
X134461288Y-103564629D01*
X134865065Y-103294834D01*
X135134860Y-102891057D01*
X135229600Y-102414769D01*
X135229600Y-102055231D01*
X135280400Y-102055231D01*
X135280400Y-102414769D01*
X135375140Y-102891057D01*
X135644935Y-103294834D01*
X136048712Y-103564629D01*
X136525000Y-103659369D01*
X137001288Y-103564629D01*
X137405065Y-103294834D01*
X137674860Y-102891057D01*
X137769600Y-102414769D01*
X137769600Y-102055231D01*
X137674860Y-101578943D01*
X137434354Y-101219000D01*
X137812936Y-101219000D01*
X137812936Y-103251000D01*
X137842506Y-103399659D01*
X137926714Y-103525686D01*
X138052741Y-103609894D01*
X138201400Y-103639464D01*
X139928600Y-103639464D01*
X140077259Y-103609894D01*
X140203286Y-103525686D01*
X140287494Y-103399659D01*
X140317064Y-103251000D01*
X140317064Y-102870000D01*
X143990631Y-102870000D01*
X144085371Y-103346288D01*
X144355166Y-103750065D01*
X144758943Y-104019860D01*
X145235231Y-104114600D01*
X145594769Y-104114600D01*
X146071057Y-104019860D01*
X146474834Y-103750065D01*
X146744629Y-103346288D01*
X146839369Y-102870000D01*
X146744629Y-102393712D01*
X146474834Y-101989935D01*
X146071057Y-101720140D01*
X145594769Y-101625400D01*
X145235231Y-101625400D01*
X144758943Y-101720140D01*
X144355166Y-101989935D01*
X144085371Y-102393712D01*
X143990631Y-102870000D01*
X140317064Y-102870000D01*
X140317064Y-101219000D01*
X140287494Y-101070341D01*
X140203286Y-100944314D01*
X140077259Y-100860106D01*
X139928600Y-100830536D01*
X138201400Y-100830536D01*
X138052741Y-100860106D01*
X137926714Y-100944314D01*
X137842506Y-101070341D01*
X137812936Y-101219000D01*
X137434354Y-101219000D01*
X137405065Y-101175166D01*
X137001288Y-100905371D01*
X136525000Y-100810631D01*
X136048712Y-100905371D01*
X135644935Y-101175166D01*
X135375140Y-101578943D01*
X135280400Y-102055231D01*
X135229600Y-102055231D01*
X135134860Y-101578943D01*
X134865065Y-101175166D01*
X134461288Y-100905371D01*
X133985000Y-100810631D01*
X133508712Y-100905371D01*
X133104935Y-101175166D01*
X132835140Y-101578943D01*
X132740400Y-102055231D01*
X132689600Y-102055231D01*
X132594860Y-101578943D01*
X132325065Y-101175166D01*
X131921288Y-100905371D01*
X131445000Y-100810631D01*
X130968712Y-100905371D01*
X130564935Y-101175166D01*
X130295140Y-101578943D01*
X130200400Y-102055231D01*
X130149600Y-102055231D01*
X130054860Y-101578943D01*
X129785065Y-101175166D01*
X129381288Y-100905371D01*
X128905000Y-100810631D01*
X128428712Y-100905371D01*
X128024935Y-101175166D01*
X127755140Y-101578943D01*
X127660400Y-102055231D01*
X127609600Y-102055231D01*
X127514860Y-101578943D01*
X127245065Y-101175166D01*
X126841288Y-100905371D01*
X126365000Y-100810631D01*
X125888712Y-100905371D01*
X125484935Y-101175166D01*
X125215140Y-101578943D01*
X125120400Y-102055231D01*
X123444000Y-102055231D01*
X123444000Y-93234361D01*
X125894975Y-93234361D01*
X126004950Y-93500521D01*
X126111000Y-93606757D01*
X126111000Y-98127436D01*
X126149669Y-98321839D01*
X126259790Y-98486646D01*
X128208342Y-100435198D01*
X128373149Y-100545319D01*
X128567552Y-100583988D01*
X140200257Y-100583988D01*
X140305408Y-100689323D01*
X140571376Y-100799762D01*
X140859361Y-100800013D01*
X141125521Y-100690038D01*
X141329335Y-100486580D01*
X141439774Y-100220612D01*
X141440025Y-99932627D01*
X141330050Y-99666467D01*
X141126592Y-99462653D01*
X140860624Y-99352214D01*
X140572639Y-99351963D01*
X140306479Y-99461938D01*
X140200243Y-99567988D01*
X139563624Y-99567988D01*
X139661774Y-99331616D01*
X139662025Y-99043631D01*
X139552050Y-98777471D01*
X139348592Y-98573657D01*
X139082624Y-98463218D01*
X138794639Y-98462967D01*
X138528479Y-98572942D01*
X138422243Y-98678992D01*
X130258412Y-98678992D01*
X129032000Y-97452580D01*
X129032000Y-91694024D01*
X128993331Y-91499621D01*
X128883210Y-91334814D01*
X128358871Y-90810475D01*
X128359001Y-90661639D01*
X128249026Y-90395479D01*
X128045568Y-90191665D01*
X127779600Y-90081226D01*
X127491615Y-90080975D01*
X127225455Y-90190950D01*
X127021641Y-90394408D01*
X126911202Y-90660376D01*
X126910951Y-90948361D01*
X127020926Y-91214521D01*
X127224384Y-91418335D01*
X127490352Y-91528774D01*
X127640461Y-91528905D01*
X128016000Y-91904444D01*
X128016000Y-97663000D01*
X128054669Y-97857403D01*
X128164790Y-98022210D01*
X129688782Y-99546202D01*
X129721387Y-99567988D01*
X128777972Y-99567988D01*
X127127000Y-97917016D01*
X127127000Y-93606743D01*
X127232335Y-93501592D01*
X127342774Y-93235624D01*
X127343025Y-92947639D01*
X127233050Y-92681479D01*
X127029592Y-92477665D01*
X126763624Y-92367226D01*
X126475639Y-92366975D01*
X126209479Y-92476950D01*
X126005665Y-92680408D01*
X125895226Y-92946376D01*
X125894975Y-93234361D01*
X123444000Y-93234361D01*
X123444000Y-92209743D01*
X123549335Y-92104592D01*
X123659774Y-91838624D01*
X123660025Y-91550639D01*
X123550050Y-91284479D01*
X123346592Y-91080665D01*
X123080624Y-90970226D01*
X122792639Y-90969975D01*
X122526479Y-91079950D01*
X122322665Y-91283408D01*
X122212226Y-91549376D01*
X122211975Y-91837361D01*
X122316741Y-92090913D01*
X122064624Y-91986226D01*
X121776639Y-91985975D01*
X121510479Y-92095950D01*
X121306665Y-92299408D01*
X121196226Y-92565376D01*
X121195975Y-92853361D01*
X118843464Y-92853361D01*
X118843464Y-90959940D01*
X118813894Y-90811281D01*
X118729686Y-90685254D01*
X118603659Y-90601046D01*
X118455000Y-90571476D01*
X113955000Y-90571476D01*
X113806341Y-90601046D01*
X113680314Y-90685254D01*
X113596106Y-90811281D01*
X113566536Y-90959940D01*
X112836520Y-90959940D01*
X112836520Y-90884155D01*
X112778516Y-90744121D01*
X112671340Y-90636944D01*
X112531306Y-90578940D01*
X110427770Y-90578940D01*
X110332520Y-90674190D01*
X110078520Y-90674190D01*
X109983270Y-90578940D01*
X107879734Y-90578940D01*
X107739700Y-90636944D01*
X107632524Y-90744121D01*
X107574520Y-90884155D01*
X104596000Y-90884155D01*
X104596000Y-87646359D01*
X141261975Y-87646359D01*
X141371950Y-87912519D01*
X141575408Y-88116333D01*
X141841376Y-88226772D01*
X141991484Y-88226903D01*
X142113000Y-88348419D01*
X142113000Y-96512257D01*
X142007665Y-96617408D01*
X141897226Y-96883376D01*
X141896975Y-97171361D01*
X142006950Y-97437521D01*
X142210408Y-97641335D01*
X142476376Y-97751774D01*
X142764361Y-97752025D01*
X142875000Y-97706310D01*
X142875000Y-98971080D01*
X142731639Y-98970955D01*
X142465479Y-99080930D01*
X142261665Y-99284388D01*
X142151226Y-99550356D01*
X142150975Y-99838341D01*
X142260950Y-100104501D01*
X142464408Y-100308315D01*
X142730376Y-100418754D01*
X143018361Y-100419005D01*
X143233769Y-100330000D01*
X143990631Y-100330000D01*
X144085371Y-100806288D01*
X144355166Y-101210065D01*
X144758943Y-101479860D01*
X145235231Y-101574600D01*
X145594769Y-101574600D01*
X146071057Y-101479860D01*
X146474834Y-101210065D01*
X146744629Y-100806288D01*
X146839369Y-100330000D01*
X146744629Y-99853712D01*
X146474834Y-99449935D01*
X146071057Y-99180140D01*
X145594769Y-99085400D01*
X145235231Y-99085400D01*
X144758943Y-99180140D01*
X144355166Y-99449935D01*
X144085371Y-99853712D01*
X143990631Y-100330000D01*
X143233769Y-100330000D01*
X143284521Y-100309030D01*
X143488335Y-100105572D01*
X143598774Y-99839604D01*
X143598905Y-99689516D01*
X143742210Y-99546211D01*
X143852330Y-99381404D01*
X143852331Y-99381403D01*
X143891000Y-99187000D01*
X143891000Y-97790000D01*
X143990631Y-97790000D01*
X144085371Y-98266288D01*
X144355166Y-98670065D01*
X144758943Y-98939860D01*
X145235231Y-99034600D01*
X145594769Y-99034600D01*
X146071057Y-98939860D01*
X146474834Y-98670065D01*
X146744629Y-98266288D01*
X146839369Y-97790000D01*
X146744629Y-97313712D01*
X146474834Y-96909935D01*
X146071057Y-96640140D01*
X145594769Y-96545400D01*
X145235231Y-96545400D01*
X144758943Y-96640140D01*
X144355166Y-96909935D01*
X144085371Y-97313712D01*
X143990631Y-97790000D01*
X143891000Y-97790000D01*
X143891000Y-95250000D01*
X143990631Y-95250000D01*
X144085371Y-95726288D01*
X144355166Y-96130065D01*
X144758943Y-96399860D01*
X145235231Y-96494600D01*
X145594769Y-96494600D01*
X146071057Y-96399860D01*
X146474834Y-96130065D01*
X146744629Y-95726288D01*
X146839369Y-95250000D01*
X146757268Y-94837250D01*
X160059000Y-94837250D01*
X160059000Y-95540785D01*
X160117004Y-95680819D01*
X160224180Y-95787996D01*
X160364214Y-95846000D01*
X161067750Y-95846000D01*
X161163000Y-95750750D01*
X161163000Y-94742000D01*
X161417000Y-94742000D01*
X161417000Y-95750750D01*
X161512250Y-95846000D01*
X162215786Y-95846000D01*
X162355820Y-95787996D01*
X162462996Y-95680819D01*
X162521000Y-95540785D01*
X162521000Y-94837250D01*
X162425750Y-94742000D01*
X161417000Y-94742000D01*
X161163000Y-94742000D01*
X160154250Y-94742000D01*
X160059000Y-94837250D01*
X146757268Y-94837250D01*
X146744629Y-94773712D01*
X146474834Y-94369935D01*
X146071057Y-94100140D01*
X145594769Y-94005400D01*
X145235231Y-94005400D01*
X144758943Y-94100140D01*
X144355166Y-94369935D01*
X144085371Y-94773712D01*
X143990631Y-95250000D01*
X143891000Y-95250000D01*
X143891000Y-92932250D01*
X144018000Y-92932250D01*
X144018000Y-93649385D01*
X144076004Y-93789419D01*
X144183180Y-93896596D01*
X144323214Y-93954600D01*
X145192750Y-93954600D01*
X145288000Y-93859350D01*
X145288000Y-92837000D01*
X145542000Y-92837000D01*
X145542000Y-93859350D01*
X145637250Y-93954600D01*
X146506786Y-93954600D01*
X146646820Y-93896596D01*
X146753996Y-93789419D01*
X146795501Y-93689215D01*
X160059000Y-93689215D01*
X160059000Y-94392750D01*
X160154250Y-94488000D01*
X161163000Y-94488000D01*
X161163000Y-93479250D01*
X161417000Y-93479250D01*
X161417000Y-94488000D01*
X162425750Y-94488000D01*
X162521000Y-94392750D01*
X162521000Y-93689215D01*
X162462996Y-93549181D01*
X162355820Y-93442004D01*
X162215786Y-93384000D01*
X161512250Y-93384000D01*
X161417000Y-93479250D01*
X161163000Y-93479250D01*
X161067750Y-93384000D01*
X160364214Y-93384000D01*
X160224180Y-93442004D01*
X160117004Y-93549181D01*
X160059000Y-93689215D01*
X146795501Y-93689215D01*
X146812000Y-93649385D01*
X146812000Y-92932250D01*
X146716750Y-92837000D01*
X145542000Y-92837000D01*
X145288000Y-92837000D01*
X144113250Y-92837000D01*
X144018000Y-92932250D01*
X143891000Y-92932250D01*
X143891000Y-91770615D01*
X144018000Y-91770615D01*
X144018000Y-92487750D01*
X144113250Y-92583000D01*
X145288000Y-92583000D01*
X145288000Y-91560650D01*
X145542000Y-91560650D01*
X145542000Y-92583000D01*
X146716750Y-92583000D01*
X146812000Y-92487750D01*
X146812000Y-92075000D01*
X160034883Y-92075000D01*
X160128587Y-92546083D01*
X160395435Y-92945448D01*
X160794800Y-93212296D01*
X161265883Y-93306000D01*
X161314117Y-93306000D01*
X161785200Y-93212296D01*
X162184565Y-92945448D01*
X162451413Y-92546083D01*
X162545117Y-92075000D01*
X162451413Y-91603917D01*
X162184565Y-91204552D01*
X161785200Y-90937704D01*
X161314117Y-90844000D01*
X161265883Y-90844000D01*
X160794800Y-90937704D01*
X160395435Y-91204552D01*
X160128587Y-91603917D01*
X160034883Y-92075000D01*
X146812000Y-92075000D01*
X146812000Y-91770615D01*
X146753996Y-91630581D01*
X146646820Y-91523404D01*
X146506786Y-91465400D01*
X145637250Y-91465400D01*
X145542000Y-91560650D01*
X145288000Y-91560650D01*
X145192750Y-91465400D01*
X144323214Y-91465400D01*
X144183180Y-91523404D01*
X144076004Y-91630581D01*
X144018000Y-91770615D01*
X143891000Y-91770615D01*
X143891000Y-89535000D01*
X160034883Y-89535000D01*
X160128587Y-90006083D01*
X160395435Y-90405448D01*
X160794800Y-90672296D01*
X161265883Y-90766000D01*
X161314117Y-90766000D01*
X161785200Y-90672296D01*
X162184565Y-90405448D01*
X162451413Y-90006083D01*
X162545117Y-89535000D01*
X162451413Y-89063917D01*
X162184565Y-88664552D01*
X161785200Y-88397704D01*
X161314117Y-88304000D01*
X161265883Y-88304000D01*
X160794800Y-88397704D01*
X160395435Y-88664552D01*
X160128587Y-89063917D01*
X160034883Y-89535000D01*
X143891000Y-89535000D01*
X143891000Y-87383735D01*
X143996335Y-87278584D01*
X144106774Y-87012616D01*
X144106789Y-86995000D01*
X160034883Y-86995000D01*
X160128587Y-87466083D01*
X160395435Y-87865448D01*
X160794800Y-88132296D01*
X161265883Y-88226000D01*
X161314117Y-88226000D01*
X161785200Y-88132296D01*
X162184565Y-87865448D01*
X162451413Y-87466083D01*
X162545117Y-86995000D01*
X162451413Y-86523917D01*
X162184565Y-86124552D01*
X161785200Y-85857704D01*
X161314117Y-85764000D01*
X161265883Y-85764000D01*
X160794800Y-85857704D01*
X160395435Y-86124552D01*
X160128587Y-86523917D01*
X160034883Y-86995000D01*
X144106789Y-86995000D01*
X144107025Y-86724631D01*
X143997050Y-86458471D01*
X143793592Y-86254657D01*
X143527624Y-86144218D01*
X143239639Y-86143967D01*
X142973479Y-86253942D01*
X142769665Y-86457400D01*
X142659226Y-86723368D01*
X142658975Y-87011353D01*
X142768950Y-87277513D01*
X142875000Y-87383749D01*
X142875000Y-87673577D01*
X142709895Y-87508473D01*
X142710025Y-87359637D01*
X142600050Y-87093477D01*
X142396592Y-86889663D01*
X142130624Y-86779224D01*
X141842639Y-86778973D01*
X141576479Y-86888948D01*
X141372665Y-87092406D01*
X141262226Y-87358374D01*
X141261975Y-87646359D01*
X104596000Y-87646359D01*
X104596000Y-85468742D01*
X108235863Y-85468742D01*
X108348485Y-85664146D01*
X108866126Y-85848217D01*
X109414806Y-85820184D01*
X109791515Y-85664146D01*
X109904137Y-85468742D01*
X114735863Y-85468742D01*
X114848485Y-85664146D01*
X115366126Y-85848217D01*
X115914806Y-85820184D01*
X116291515Y-85664146D01*
X116404137Y-85468742D01*
X115570000Y-84634605D01*
X114735863Y-85468742D01*
X109904137Y-85468742D01*
X109070000Y-84634605D01*
X108235863Y-85468742D01*
X104596000Y-85468742D01*
X104596000Y-84251126D01*
X107676783Y-84251126D01*
X107704816Y-84799806D01*
X107860854Y-85176515D01*
X108056258Y-85289137D01*
X108890395Y-84455000D01*
X109249605Y-84455000D01*
X110083742Y-85289137D01*
X110279146Y-85176515D01*
X110463217Y-84658874D01*
X110442385Y-84251126D01*
X114176783Y-84251126D01*
X114204816Y-84799806D01*
X114360854Y-85176515D01*
X114556258Y-85289137D01*
X115390395Y-84455000D01*
X115749605Y-84455000D01*
X116583742Y-85289137D01*
X116779146Y-85176515D01*
X116918902Y-84783493D01*
X148328761Y-84783493D01*
X148538563Y-85291251D01*
X148926705Y-85680072D01*
X149434097Y-85890759D01*
X149983493Y-85891239D01*
X150491251Y-85681437D01*
X150880072Y-85293295D01*
X151090759Y-84785903D01*
X151090761Y-84783493D01*
X154828761Y-84783493D01*
X155038563Y-85291251D01*
X155426705Y-85680072D01*
X155934097Y-85890759D01*
X156483493Y-85891239D01*
X156991251Y-85681437D01*
X157380072Y-85293295D01*
X157590759Y-84785903D01*
X157591048Y-84455000D01*
X160034883Y-84455000D01*
X160128587Y-84926083D01*
X160395435Y-85325448D01*
X160794800Y-85592296D01*
X161265883Y-85686000D01*
X161314117Y-85686000D01*
X161785200Y-85592296D01*
X162184565Y-85325448D01*
X162451413Y-84926083D01*
X162545117Y-84455000D01*
X162451413Y-83983917D01*
X162184565Y-83584552D01*
X161785200Y-83317704D01*
X161314117Y-83224000D01*
X161265883Y-83224000D01*
X160794800Y-83317704D01*
X160395435Y-83584552D01*
X160128587Y-83983917D01*
X160034883Y-84455000D01*
X157591048Y-84455000D01*
X157591239Y-84236507D01*
X157381437Y-83728749D01*
X156993295Y-83339928D01*
X156485903Y-83129241D01*
X155936507Y-83128761D01*
X155428749Y-83338563D01*
X155039928Y-83726705D01*
X154829241Y-84234097D01*
X154828761Y-84783493D01*
X151090761Y-84783493D01*
X151091239Y-84236507D01*
X150881437Y-83728749D01*
X150493295Y-83339928D01*
X149985903Y-83129241D01*
X149436507Y-83128761D01*
X148928749Y-83338563D01*
X148539928Y-83726705D01*
X148329241Y-84234097D01*
X148328761Y-84783493D01*
X116918902Y-84783493D01*
X116963217Y-84658874D01*
X116935184Y-84110194D01*
X116779146Y-83733485D01*
X116583742Y-83620863D01*
X115749605Y-84455000D01*
X115390395Y-84455000D01*
X114556258Y-83620863D01*
X114360854Y-83733485D01*
X114176783Y-84251126D01*
X110442385Y-84251126D01*
X110435184Y-84110194D01*
X110279146Y-83733485D01*
X110083742Y-83620863D01*
X109249605Y-84455000D01*
X108890395Y-84455000D01*
X108056258Y-83620863D01*
X107860854Y-83733485D01*
X107676783Y-84251126D01*
X104596000Y-84251126D01*
X104596000Y-83441258D01*
X108235863Y-83441258D01*
X109070000Y-84275395D01*
X109904137Y-83441258D01*
X114735863Y-83441258D01*
X115570000Y-84275395D01*
X116404137Y-83441258D01*
X116291515Y-83245854D01*
X115773874Y-83061783D01*
X115225194Y-83089816D01*
X114848485Y-83245854D01*
X114735863Y-83441258D01*
X109904137Y-83441258D01*
X109791515Y-83245854D01*
X109273874Y-83061783D01*
X108725194Y-83089816D01*
X108348485Y-83245854D01*
X108235863Y-83441258D01*
X104596000Y-83441258D01*
X104596000Y-81915000D01*
X160034883Y-81915000D01*
X160128587Y-82386083D01*
X160395435Y-82785448D01*
X160794800Y-83052296D01*
X161265883Y-83146000D01*
X161314117Y-83146000D01*
X161785200Y-83052296D01*
X162184565Y-82785448D01*
X162451413Y-82386083D01*
X162545117Y-81915000D01*
X162451413Y-81443917D01*
X162184565Y-81044552D01*
X161785200Y-80777704D01*
X161314117Y-80684000D01*
X161265883Y-80684000D01*
X160794800Y-80777704D01*
X160395435Y-81044552D01*
X160128587Y-81443917D01*
X160034883Y-81915000D01*
X104596000Y-81915000D01*
X104596000Y-80228493D01*
X107688761Y-80228493D01*
X107898563Y-80736251D01*
X108286705Y-81125072D01*
X108794097Y-81335759D01*
X109343493Y-81336239D01*
X109851251Y-81126437D01*
X110240072Y-80738295D01*
X110450759Y-80230903D01*
X110450761Y-80228493D01*
X114188761Y-80228493D01*
X114398563Y-80736251D01*
X114786705Y-81125072D01*
X115294097Y-81335759D01*
X115843493Y-81336239D01*
X116351251Y-81126437D01*
X116454125Y-81023742D01*
X148875863Y-81023742D01*
X148988485Y-81219146D01*
X149506126Y-81403217D01*
X150054806Y-81375184D01*
X150431515Y-81219146D01*
X150544137Y-81023742D01*
X155375863Y-81023742D01*
X155488485Y-81219146D01*
X156006126Y-81403217D01*
X156554806Y-81375184D01*
X156931515Y-81219146D01*
X157044137Y-81023742D01*
X156210000Y-80189605D01*
X155375863Y-81023742D01*
X150544137Y-81023742D01*
X149710000Y-80189605D01*
X148875863Y-81023742D01*
X116454125Y-81023742D01*
X116740072Y-80738295D01*
X116950759Y-80230903D01*
X116951130Y-79806126D01*
X148316783Y-79806126D01*
X148344816Y-80354806D01*
X148500854Y-80731515D01*
X148696258Y-80844137D01*
X149530395Y-80010000D01*
X149889605Y-80010000D01*
X150723742Y-80844137D01*
X150919146Y-80731515D01*
X151103217Y-80213874D01*
X151082385Y-79806126D01*
X154816783Y-79806126D01*
X154844816Y-80354806D01*
X155000854Y-80731515D01*
X155196258Y-80844137D01*
X156030395Y-80010000D01*
X156389605Y-80010000D01*
X157223742Y-80844137D01*
X157419146Y-80731515D01*
X157603217Y-80213874D01*
X157575184Y-79665194D01*
X157419146Y-79288485D01*
X157223742Y-79175863D01*
X156389605Y-80010000D01*
X156030395Y-80010000D01*
X155196258Y-79175863D01*
X155000854Y-79288485D01*
X154816783Y-79806126D01*
X151082385Y-79806126D01*
X151075184Y-79665194D01*
X150919146Y-79288485D01*
X150723742Y-79175863D01*
X149889605Y-80010000D01*
X149530395Y-80010000D01*
X148696258Y-79175863D01*
X148500854Y-79288485D01*
X148316783Y-79806126D01*
X116951130Y-79806126D01*
X116951239Y-79681507D01*
X116741437Y-79173749D01*
X116353295Y-78784928D01*
X115845903Y-78574241D01*
X115296507Y-78573761D01*
X114788749Y-78783563D01*
X114399928Y-79171705D01*
X114189241Y-79679097D01*
X114188761Y-80228493D01*
X110450761Y-80228493D01*
X110451239Y-79681507D01*
X110241437Y-79173749D01*
X109853295Y-78784928D01*
X109345903Y-78574241D01*
X108796507Y-78573761D01*
X108288749Y-78783563D01*
X107899928Y-79171705D01*
X107689241Y-79679097D01*
X107688761Y-80228493D01*
X104596000Y-80228493D01*
X104596000Y-76656000D01*
X120523000Y-76656000D01*
X120523000Y-79375000D01*
X120523000Y-79375000D01*
G37*
X120523000Y-79375000D02*
X120532667Y-79423601D01*
X120560197Y-79464803D01*
X120601399Y-79492333D01*
X120650000Y-79502000D01*
X144780000Y-79502000D01*
X144828601Y-79492333D01*
X144869803Y-79464803D01*
X144897333Y-79423601D01*
X144907000Y-79375000D01*
X144907000Y-78996258D01*
X148875863Y-78996258D01*
X149710000Y-79830395D01*
X150544137Y-78996258D01*
X155375863Y-78996258D01*
X156210000Y-79830395D01*
X157044137Y-78996258D01*
X156931515Y-78800854D01*
X156413874Y-78616783D01*
X155865194Y-78644816D01*
X155488485Y-78800854D01*
X155375863Y-78996258D01*
X150544137Y-78996258D01*
X150431515Y-78800854D01*
X149913874Y-78616783D01*
X149365194Y-78644816D01*
X148988485Y-78800854D01*
X148875863Y-78996258D01*
X144907000Y-78996258D01*
X144907000Y-76656000D01*
X169724000Y-76656000D01*
X169724000Y-117983000D01*
X144526000Y-117983000D01*
X144477399Y-117992667D01*
X144436197Y-118020197D01*
X144408667Y-118061399D01*
X144399000Y-118110000D01*
X144399000Y-118149000D01*
X144367250Y-118149000D01*
X144272000Y-118244250D01*
X144272000Y-119253000D01*
X144292000Y-119253000D01*
X144292000Y-119507000D01*
X144272000Y-119507000D01*
X144272000Y-120515750D01*
X144367250Y-120611000D01*
X144399000Y-120611000D01*
X144399000Y-120689000D01*
X144367250Y-120689000D01*
X144272000Y-120784250D01*
X144272000Y-121793000D01*
X144292000Y-121793000D01*
X144292000Y-122047000D01*
X144272000Y-122047000D01*
X144272000Y-123055750D01*
X144367250Y-123151000D01*
X144399000Y-123151000D01*
X144399000Y-123229000D01*
X144367250Y-123229000D01*
X144272000Y-123324250D01*
X144272000Y-124333000D01*
X144292000Y-124333000D01*
X144292000Y-124587000D01*
X144272000Y-124587000D01*
X144272000Y-125595750D01*
X144367250Y-125691000D01*
X144399000Y-125691000D01*
X144399000Y-125769000D01*
X144367250Y-125769000D01*
X144272000Y-125864250D01*
X144272000Y-126873000D01*
X144292000Y-126873000D01*
X144292000Y-127127000D01*
X144272000Y-127127000D01*
X144272000Y-128135750D01*
X144367250Y-128231000D01*
X144399000Y-128231000D01*
X144399000Y-128309000D01*
X144367250Y-128309000D01*
X144272000Y-128404250D01*
X144272000Y-129413000D01*
X144292000Y-129413000D01*
X144292000Y-129667000D01*
X144272000Y-129667000D01*
X144272000Y-130675750D01*
X144367250Y-130771000D01*
X144399000Y-130771000D01*
X144399000Y-130849000D01*
X144367250Y-130849000D01*
X144272000Y-130944250D01*
X144272000Y-131953000D01*
X144292000Y-131953000D01*
X144292000Y-132207000D01*
X144272000Y-132207000D01*
X144272000Y-133215750D01*
X144367250Y-133311000D01*
X144399000Y-133311000D01*
X144399000Y-133389000D01*
X144367250Y-133389000D01*
X144272000Y-133484250D01*
X144272000Y-134493000D01*
X144292000Y-134493000D01*
X144292000Y-134747000D01*
X144272000Y-134747000D01*
X144272000Y-135755750D01*
X144367250Y-135851000D01*
X144399000Y-135851000D01*
X144399000Y-135929000D01*
X144367250Y-135929000D01*
X144272000Y-136024250D01*
X144272000Y-137033000D01*
X144292000Y-137033000D01*
X144292000Y-137287000D01*
X144272000Y-137287000D01*
X144272000Y-138295750D01*
X144367250Y-138391000D01*
X144399000Y-138391000D01*
X144399000Y-138469000D01*
X144367250Y-138469000D01*
X144272000Y-138564250D01*
X144272000Y-139573000D01*
X144292000Y-139573000D01*
X144292000Y-139827000D01*
X144272000Y-139827000D01*
X144272000Y-140835750D01*
X144367250Y-140931000D01*
X144399000Y-140931000D01*
X144399000Y-141784000D01*
X104596000Y-141784000D01*
X104596000Y-140240112D01*
X107589493Y-140240112D01*
X107793783Y-140513484D01*
X108583126Y-140822811D01*
X109430759Y-140806522D01*
X110138217Y-140513484D01*
X110342507Y-140240112D01*
X108966000Y-138863605D01*
X107589493Y-140240112D01*
X104596000Y-140240112D01*
X104596000Y-138301126D01*
X106827189Y-138301126D01*
X106843478Y-139148759D01*
X107136516Y-139856217D01*
X107409888Y-140060507D01*
X108786395Y-138684000D01*
X109145605Y-138684000D01*
X110522112Y-140060507D01*
X110707121Y-139922250D01*
X142914000Y-139922250D01*
X142914000Y-140625786D01*
X142972004Y-140765820D01*
X143079181Y-140872996D01*
X143219215Y-140931000D01*
X143922750Y-140931000D01*
X144018000Y-140835750D01*
X144018000Y-139827000D01*
X143009250Y-139827000D01*
X142914000Y-139922250D01*
X110707121Y-139922250D01*
X110795484Y-139856217D01*
X111104811Y-139066874D01*
X111088522Y-138219241D01*
X110959807Y-137908493D01*
X125748761Y-137908493D01*
X125958563Y-138416251D01*
X126346705Y-138805072D01*
X126854097Y-139015759D01*
X127403493Y-139016239D01*
X127911251Y-138806437D01*
X128300072Y-138418295D01*
X128510759Y-137910903D01*
X128510761Y-137908493D01*
X133748761Y-137908493D01*
X133958563Y-138416251D01*
X134346705Y-138805072D01*
X134854097Y-139015759D01*
X135403493Y-139016239D01*
X135911251Y-138806437D01*
X135943530Y-138774214D01*
X142914000Y-138774214D01*
X142914000Y-139477750D01*
X143009250Y-139573000D01*
X144018000Y-139573000D01*
X144018000Y-138564250D01*
X143922750Y-138469000D01*
X143219215Y-138469000D01*
X143079181Y-138527004D01*
X142972004Y-138634180D01*
X142914000Y-138774214D01*
X135943530Y-138774214D01*
X136300072Y-138418295D01*
X136510759Y-137910903D01*
X136511220Y-137382250D01*
X142914000Y-137382250D01*
X142914000Y-138085786D01*
X142972004Y-138225820D01*
X143079181Y-138332996D01*
X143219215Y-138391000D01*
X143922750Y-138391000D01*
X144018000Y-138295750D01*
X144018000Y-137287000D01*
X143009250Y-137287000D01*
X142914000Y-137382250D01*
X136511220Y-137382250D01*
X136511239Y-137361507D01*
X136301437Y-136853749D01*
X135913295Y-136464928D01*
X135405903Y-136254241D01*
X134856507Y-136253761D01*
X134348749Y-136463563D01*
X133959928Y-136851705D01*
X133749241Y-137359097D01*
X133748761Y-137908493D01*
X128510761Y-137908493D01*
X128511239Y-137361507D01*
X128301437Y-136853749D01*
X127913295Y-136464928D01*
X127405903Y-136254241D01*
X126856507Y-136253761D01*
X126348749Y-136463563D01*
X125959928Y-136851705D01*
X125749241Y-137359097D01*
X125748761Y-137908493D01*
X110959807Y-137908493D01*
X110795484Y-137511783D01*
X110522112Y-137307493D01*
X109145605Y-138684000D01*
X108786395Y-138684000D01*
X107409888Y-137307493D01*
X107136516Y-137511783D01*
X106827189Y-138301126D01*
X104596000Y-138301126D01*
X104596000Y-137127888D01*
X107589493Y-137127888D01*
X108966000Y-138504395D01*
X110342507Y-137127888D01*
X110138217Y-136854516D01*
X109348874Y-136545189D01*
X108501241Y-136561478D01*
X107793783Y-136854516D01*
X107589493Y-137127888D01*
X104596000Y-137127888D01*
X104596000Y-136234214D01*
X142914000Y-136234214D01*
X142914000Y-136937750D01*
X143009250Y-137033000D01*
X144018000Y-137033000D01*
X144018000Y-136024250D01*
X143922750Y-135929000D01*
X143219215Y-135929000D01*
X143079181Y-135987004D01*
X142972004Y-136094180D01*
X142914000Y-136234214D01*
X104596000Y-136234214D01*
X104596000Y-134842250D01*
X142914000Y-134842250D01*
X142914000Y-135545786D01*
X142972004Y-135685820D01*
X143079181Y-135792996D01*
X143219215Y-135851000D01*
X143922750Y-135851000D01*
X144018000Y-135755750D01*
X144018000Y-134747000D01*
X143009250Y-134747000D01*
X142914000Y-134842250D01*
X104596000Y-134842250D01*
X104596000Y-133694214D01*
X142914000Y-133694214D01*
X142914000Y-134397750D01*
X143009250Y-134493000D01*
X144018000Y-134493000D01*
X144018000Y-133484250D01*
X143922750Y-133389000D01*
X143219215Y-133389000D01*
X143079181Y-133447004D01*
X142972004Y-133554180D01*
X142914000Y-133694214D01*
X104596000Y-133694214D01*
X104596000Y-132935569D01*
X108126324Y-132935569D01*
X108244974Y-133222723D01*
X108464481Y-133442614D01*
X108751428Y-133561764D01*
X109062129Y-133562036D01*
X109349283Y-133443386D01*
X109569174Y-133223879D01*
X109688324Y-132936932D01*
X109688596Y-132626231D01*
X109569946Y-132339077D01*
X109533184Y-132302250D01*
X142914000Y-132302250D01*
X142914000Y-133005786D01*
X142972004Y-133145820D01*
X143079181Y-133252996D01*
X143219215Y-133311000D01*
X143922750Y-133311000D01*
X144018000Y-133215750D01*
X144018000Y-132207000D01*
X143009250Y-132207000D01*
X142914000Y-132302250D01*
X109533184Y-132302250D01*
X109350439Y-132119186D01*
X109063492Y-132000036D01*
X108752791Y-131999764D01*
X108465637Y-132118414D01*
X108245746Y-132337921D01*
X108126596Y-132624868D01*
X108126324Y-132935569D01*
X104596000Y-132935569D01*
X104596000Y-131154214D01*
X142914000Y-131154214D01*
X142914000Y-131857750D01*
X143009250Y-131953000D01*
X144018000Y-131953000D01*
X144018000Y-130944250D01*
X143922750Y-130849000D01*
X143219215Y-130849000D01*
X143079181Y-130907004D01*
X142972004Y-131014180D01*
X142914000Y-131154214D01*
X104596000Y-131154214D01*
X104596000Y-129762250D01*
X142914000Y-129762250D01*
X142914000Y-130465786D01*
X142972004Y-130605820D01*
X143079181Y-130712996D01*
X143219215Y-130771000D01*
X143922750Y-130771000D01*
X144018000Y-130675750D01*
X144018000Y-129667000D01*
X143009250Y-129667000D01*
X142914000Y-129762250D01*
X104596000Y-129762250D01*
X104596000Y-128935569D01*
X108126324Y-128935569D01*
X108244974Y-129222723D01*
X108464481Y-129442614D01*
X108751428Y-129561764D01*
X109062129Y-129562036D01*
X109349283Y-129443386D01*
X109569174Y-129223879D01*
X109688324Y-128936932D01*
X109688596Y-128626231D01*
X109683631Y-128614214D01*
X142914000Y-128614214D01*
X142914000Y-129317750D01*
X143009250Y-129413000D01*
X144018000Y-129413000D01*
X144018000Y-128404250D01*
X143922750Y-128309000D01*
X143219215Y-128309000D01*
X143079181Y-128367004D01*
X142972004Y-128474180D01*
X142914000Y-128614214D01*
X109683631Y-128614214D01*
X109569946Y-128339077D01*
X109350439Y-128119186D01*
X109063492Y-128000036D01*
X108752791Y-127999764D01*
X108465637Y-128118414D01*
X108245746Y-128337921D01*
X108126596Y-128624868D01*
X108126324Y-128935569D01*
X104596000Y-128935569D01*
X104596000Y-127222250D01*
X142914000Y-127222250D01*
X142914000Y-127925786D01*
X142972004Y-128065820D01*
X143079181Y-128172996D01*
X143219215Y-128231000D01*
X143922750Y-128231000D01*
X144018000Y-128135750D01*
X144018000Y-127127000D01*
X143009250Y-127127000D01*
X142914000Y-127222250D01*
X104596000Y-127222250D01*
X104596000Y-126074214D01*
X142914000Y-126074214D01*
X142914000Y-126777750D01*
X143009250Y-126873000D01*
X144018000Y-126873000D01*
X144018000Y-125864250D01*
X143922750Y-125769000D01*
X143219215Y-125769000D01*
X143079181Y-125827004D01*
X142972004Y-125934180D01*
X142914000Y-126074214D01*
X104596000Y-126074214D01*
X104596000Y-125238361D01*
X128942975Y-125238361D01*
X129052950Y-125504521D01*
X129256408Y-125708335D01*
X129522376Y-125818774D01*
X129810361Y-125819025D01*
X130076521Y-125709050D01*
X130280335Y-125505592D01*
X130390774Y-125239624D01*
X130390905Y-125089515D01*
X130798170Y-124682250D01*
X142914000Y-124682250D01*
X142914000Y-125385786D01*
X142972004Y-125525820D01*
X143079181Y-125632996D01*
X143219215Y-125691000D01*
X143922750Y-125691000D01*
X144018000Y-125595750D01*
X144018000Y-124587000D01*
X143009250Y-124587000D01*
X142914000Y-124682250D01*
X130798170Y-124682250D01*
X131169210Y-124311210D01*
X131279331Y-124146404D01*
X131318000Y-123952000D01*
X131318000Y-123534214D01*
X142914000Y-123534214D01*
X142914000Y-124237750D01*
X143009250Y-124333000D01*
X144018000Y-124333000D01*
X144018000Y-123324250D01*
X143922750Y-123229000D01*
X143219215Y-123229000D01*
X143079181Y-123287004D01*
X142972004Y-123394180D01*
X142914000Y-123534214D01*
X131318000Y-123534214D01*
X131318000Y-122181743D01*
X131357562Y-122142250D01*
X142914000Y-122142250D01*
X142914000Y-122845786D01*
X142972004Y-122985820D01*
X143079181Y-123092996D01*
X143219215Y-123151000D01*
X143922750Y-123151000D01*
X144018000Y-123055750D01*
X144018000Y-122047000D01*
X143009250Y-122047000D01*
X142914000Y-122142250D01*
X131357562Y-122142250D01*
X131423335Y-122076592D01*
X131533774Y-121810624D01*
X131534025Y-121522639D01*
X131424050Y-121256479D01*
X131220592Y-121052665D01*
X131079826Y-120994214D01*
X142914000Y-120994214D01*
X142914000Y-121697750D01*
X143009250Y-121793000D01*
X144018000Y-121793000D01*
X144018000Y-120784250D01*
X143922750Y-120689000D01*
X143219215Y-120689000D01*
X143079181Y-120747004D01*
X142972004Y-120854180D01*
X142914000Y-120994214D01*
X131079826Y-120994214D01*
X130954624Y-120942226D01*
X130666639Y-120941975D01*
X130400479Y-121051950D01*
X130196665Y-121255408D01*
X130086226Y-121521376D01*
X130085975Y-121809361D01*
X130195950Y-122075521D01*
X130302000Y-122181757D01*
X130302000Y-123741580D01*
X129672475Y-124371105D01*
X129523639Y-124370975D01*
X129257479Y-124480950D01*
X129053665Y-124684408D01*
X128943226Y-124950376D01*
X128942975Y-125238361D01*
X104596000Y-125238361D01*
X104596000Y-123412250D01*
X106719000Y-123412250D01*
X106719000Y-124115786D01*
X106777004Y-124255820D01*
X106884181Y-124362996D01*
X107024215Y-124421000D01*
X107727750Y-124421000D01*
X107823000Y-124325750D01*
X107823000Y-123317000D01*
X108077000Y-123317000D01*
X108077000Y-124325750D01*
X108172250Y-124421000D01*
X108875785Y-124421000D01*
X109015819Y-124362996D01*
X109122996Y-124255820D01*
X109181000Y-124115786D01*
X109181000Y-123412250D01*
X109085750Y-123317000D01*
X108077000Y-123317000D01*
X107823000Y-123317000D01*
X106814250Y-123317000D01*
X106719000Y-123412250D01*
X104596000Y-123412250D01*
X104596000Y-123165883D01*
X109259000Y-123165883D01*
X109259000Y-123214117D01*
X109352704Y-123685200D01*
X109619552Y-124084565D01*
X110018917Y-124351413D01*
X110490000Y-124445117D01*
X110961083Y-124351413D01*
X111360448Y-124084565D01*
X111627296Y-123685200D01*
X111721000Y-123214117D01*
X111721000Y-123165883D01*
X111627296Y-122694800D01*
X111360448Y-122295435D01*
X110961083Y-122028587D01*
X110490000Y-121934883D01*
X110018917Y-122028587D01*
X109619552Y-122295435D01*
X109352704Y-122694800D01*
X109259000Y-123165883D01*
X104596000Y-123165883D01*
X104596000Y-122264214D01*
X106719000Y-122264214D01*
X106719000Y-122967750D01*
X106814250Y-123063000D01*
X107823000Y-123063000D01*
X107823000Y-122054250D01*
X108077000Y-122054250D01*
X108077000Y-123063000D01*
X109085750Y-123063000D01*
X109181000Y-122967750D01*
X109181000Y-122264214D01*
X109122996Y-122124180D01*
X109015819Y-122017004D01*
X108875785Y-121959000D01*
X108172250Y-121959000D01*
X108077000Y-122054250D01*
X107823000Y-122054250D01*
X107727750Y-121959000D01*
X107024215Y-121959000D01*
X106884181Y-122017004D01*
X106777004Y-122124180D01*
X106719000Y-122264214D01*
X104596000Y-122264214D01*
X104596000Y-119602250D01*
X142914000Y-119602250D01*
X142914000Y-120305786D01*
X142972004Y-120445820D01*
X143079181Y-120552996D01*
X143219215Y-120611000D01*
X143922750Y-120611000D01*
X144018000Y-120515750D01*
X144018000Y-119507000D01*
X143009250Y-119507000D01*
X142914000Y-119602250D01*
X104596000Y-119602250D01*
X104596000Y-118454214D01*
X142914000Y-118454214D01*
X142914000Y-119157750D01*
X143009250Y-119253000D01*
X144018000Y-119253000D01*
X144018000Y-118244250D01*
X143922750Y-118149000D01*
X143219215Y-118149000D01*
X143079181Y-118207004D01*
X142972004Y-118314180D01*
X142914000Y-118454214D01*
X104596000Y-118454214D01*
X104596000Y-97631250D01*
X110574260Y-97631250D01*
X110574260Y-99234845D01*
X110632264Y-99374879D01*
X110739440Y-99482056D01*
X110879474Y-99540060D01*
X112983010Y-99540060D01*
X113078260Y-99444810D01*
X113078260Y-97536000D01*
X113332260Y-97536000D01*
X113332260Y-99444810D01*
X113427510Y-99540060D01*
X115531046Y-99540060D01*
X115671080Y-99482056D01*
X115778256Y-99374879D01*
X115836260Y-99234845D01*
X115836260Y-97631250D01*
X115741010Y-97536000D01*
X113332260Y-97536000D01*
X113078260Y-97536000D01*
X110669510Y-97536000D01*
X110574260Y-97631250D01*
X104596000Y-97631250D01*
X104596000Y-95583155D01*
X110574260Y-95583155D01*
X110574260Y-97186750D01*
X110669510Y-97282000D01*
X113078260Y-97282000D01*
X113078260Y-95373190D01*
X113332260Y-95373190D01*
X113332260Y-97282000D01*
X115741010Y-97282000D01*
X115836260Y-97186750D01*
X115836260Y-95583155D01*
X115778256Y-95443121D01*
X115671080Y-95335944D01*
X115531046Y-95277940D01*
X113427510Y-95277940D01*
X113332260Y-95373190D01*
X113078260Y-95373190D01*
X112983010Y-95277940D01*
X110879474Y-95277940D01*
X110739440Y-95335944D01*
X110632264Y-95443121D01*
X110574260Y-95583155D01*
X104596000Y-95583155D01*
X104596000Y-92932250D01*
X107574520Y-92932250D01*
X107574520Y-94535845D01*
X107632524Y-94675879D01*
X107739700Y-94783056D01*
X107879734Y-94841060D01*
X109983270Y-94841060D01*
X110078520Y-94745810D01*
X110078520Y-92837000D01*
X110332520Y-92837000D01*
X110332520Y-94745810D01*
X110427770Y-94841060D01*
X112531306Y-94841060D01*
X112671340Y-94783056D01*
X112778516Y-94675879D01*
X112836520Y-94535845D01*
X112836520Y-92932250D01*
X112741270Y-92837000D01*
X110332520Y-92837000D01*
X110078520Y-92837000D01*
X107669770Y-92837000D01*
X107574520Y-92932250D01*
X104596000Y-92932250D01*
X104596000Y-90884155D01*
X107574520Y-90884155D01*
X107574520Y-92487750D01*
X107669770Y-92583000D01*
X110078520Y-92583000D01*
X110078520Y-90674190D01*
X110332520Y-90674190D01*
X110332520Y-92583000D01*
X112741270Y-92583000D01*
X112836520Y-92487750D01*
X112836520Y-90959940D01*
X113566536Y-90959940D01*
X113566536Y-94460060D01*
X113596106Y-94608719D01*
X113680314Y-94734746D01*
X113806341Y-94818954D01*
X113955000Y-94848524D01*
X118455000Y-94848524D01*
X118603659Y-94818954D01*
X118729686Y-94734746D01*
X118813894Y-94608719D01*
X118843464Y-94460060D01*
X118843464Y-92853361D01*
X121195975Y-92853361D01*
X121305950Y-93119521D01*
X121412000Y-93225757D01*
X121412000Y-104775000D01*
X121450669Y-104969403D01*
X121560790Y-105134210D01*
X127529790Y-111103210D01*
X127694597Y-111213331D01*
X127889000Y-111252000D01*
X141775580Y-111252000D01*
X143002000Y-112478421D01*
X143002000Y-115054257D01*
X142896665Y-115159408D01*
X142786226Y-115425376D01*
X142785975Y-115713361D01*
X142895950Y-115979521D01*
X143099408Y-116183335D01*
X143365376Y-116293774D01*
X143653361Y-116294025D01*
X143919521Y-116184050D01*
X144080758Y-116023095D01*
X144085371Y-116046288D01*
X144355166Y-116450065D01*
X144758943Y-116719860D01*
X145235231Y-116814600D01*
X145594769Y-116814600D01*
X146071057Y-116719860D01*
X146474834Y-116450065D01*
X146744629Y-116046288D01*
X146839369Y-115570000D01*
X146744629Y-115093712D01*
X146474834Y-114689935D01*
X146071057Y-114420140D01*
X145594769Y-114325400D01*
X145235231Y-114325400D01*
X144758943Y-114420140D01*
X144355166Y-114689935D01*
X144085371Y-115093712D01*
X144080723Y-115117077D01*
X144018000Y-115054243D01*
X144018000Y-113167593D01*
X144085371Y-113506288D01*
X144355166Y-113910065D01*
X144758943Y-114179860D01*
X145235231Y-114274600D01*
X145594769Y-114274600D01*
X146071057Y-114179860D01*
X146474834Y-113910065D01*
X146744629Y-113506288D01*
X146839369Y-113030000D01*
X146744629Y-112553712D01*
X146474834Y-112149935D01*
X146295879Y-112030361D01*
X146595975Y-112030361D01*
X146705950Y-112296521D01*
X146909408Y-112500335D01*
X147175376Y-112610774D01*
X147463361Y-112611025D01*
X147729521Y-112501050D01*
X147820536Y-112410194D01*
X147820536Y-114046000D01*
X147850106Y-114194659D01*
X147920492Y-114300000D01*
X147850106Y-114405341D01*
X147820536Y-114554000D01*
X147820536Y-116586000D01*
X147850106Y-116734659D01*
X147934314Y-116860686D01*
X148060341Y-116944894D01*
X148209000Y-116974464D01*
X150241000Y-116974464D01*
X150389659Y-116944894D01*
X150515686Y-116860686D01*
X150599894Y-116734659D01*
X150629464Y-116586000D01*
X150629464Y-116364137D01*
X150777172Y-116585197D01*
X151230391Y-116888029D01*
X151765000Y-116994369D01*
X152299609Y-116888029D01*
X152752828Y-116585197D01*
X153055660Y-116131978D01*
X153162000Y-115597369D01*
X153162000Y-115542631D01*
X153055660Y-115008022D01*
X152752828Y-114554803D01*
X152371489Y-114300000D01*
X152752828Y-114045197D01*
X153055660Y-113591978D01*
X153162000Y-113057369D01*
X153162000Y-113002631D01*
X153055660Y-112468022D01*
X152752828Y-112014803D01*
X152371489Y-111760000D01*
X152752828Y-111505197D01*
X153055660Y-111051978D01*
X153162000Y-110517369D01*
X153162000Y-110462631D01*
X153055660Y-109928022D01*
X152752828Y-109474803D01*
X152371489Y-109220000D01*
X152752828Y-108965197D01*
X153055660Y-108511978D01*
X153162000Y-107977369D01*
X153162000Y-107922631D01*
X153055660Y-107388022D01*
X152752828Y-106934803D01*
X152371489Y-106680000D01*
X152752828Y-106425197D01*
X153055660Y-105971978D01*
X153162000Y-105437369D01*
X153162000Y-105382631D01*
X153055660Y-104848022D01*
X152752828Y-104394803D01*
X152371489Y-104140000D01*
X152752828Y-103885197D01*
X153055660Y-103431978D01*
X153162000Y-102897369D01*
X153162000Y-102842631D01*
X153055660Y-102308022D01*
X152752828Y-101854803D01*
X152371489Y-101600000D01*
X152752828Y-101345197D01*
X153055660Y-100891978D01*
X153162000Y-100357369D01*
X153162000Y-100302631D01*
X153055660Y-99768022D01*
X152752828Y-99314803D01*
X152299609Y-99011971D01*
X151765000Y-98905631D01*
X151230391Y-99011971D01*
X150777172Y-99314803D01*
X150629464Y-99535863D01*
X150629464Y-99314000D01*
X150599894Y-99165341D01*
X150515686Y-99039314D01*
X150389659Y-98955106D01*
X150241000Y-98925536D01*
X148510675Y-98925536D01*
X148510829Y-98748443D01*
X148400854Y-98482283D01*
X148197396Y-98278469D01*
X147931428Y-98168030D01*
X147643443Y-98167779D01*
X147377283Y-98277754D01*
X147173469Y-98481212D01*
X147063030Y-98747180D01*
X147062779Y-99035165D01*
X147172754Y-99301325D01*
X147278804Y-99407561D01*
X147278804Y-111163064D01*
X147176639Y-111162975D01*
X146910479Y-111272950D01*
X146706665Y-111476408D01*
X146596226Y-111742376D01*
X146595975Y-112030361D01*
X146295879Y-112030361D01*
X146071057Y-111880140D01*
X145594769Y-111785400D01*
X145235231Y-111785400D01*
X144758943Y-111880140D01*
X144355166Y-112149935D01*
X144085371Y-112553712D01*
X144018000Y-112892407D01*
X144018000Y-112268000D01*
X143979331Y-112073597D01*
X143872938Y-111914369D01*
X143869210Y-111908789D01*
X143128620Y-111168200D01*
X143238376Y-111213774D01*
X143526361Y-111214025D01*
X143792521Y-111104050D01*
X143996335Y-110900592D01*
X144047698Y-110776895D01*
X144085371Y-110966288D01*
X144355166Y-111370065D01*
X144758943Y-111639860D01*
X145235231Y-111734600D01*
X145594769Y-111734600D01*
X146071057Y-111639860D01*
X146474834Y-111370065D01*
X146744629Y-110966288D01*
X146839369Y-110490000D01*
X146744629Y-110013712D01*
X146474834Y-109609935D01*
X146071057Y-109340140D01*
X145594769Y-109245400D01*
X145235231Y-109245400D01*
X144758943Y-109340140D01*
X144355166Y-109609935D01*
X144085371Y-110013712D01*
X144047705Y-110203073D01*
X143997050Y-110080479D01*
X143793592Y-109876665D01*
X143527624Y-109766226D01*
X143250404Y-109765984D01*
X142853210Y-109368790D01*
X142688403Y-109258669D01*
X142494000Y-109220000D01*
X141963818Y-109220000D01*
X142014521Y-109199050D01*
X142218335Y-108995592D01*
X142328774Y-108729624D01*
X142329025Y-108441639D01*
X142219050Y-108175479D01*
X142015592Y-107971665D01*
X141963417Y-107950000D01*
X143990631Y-107950000D01*
X144085371Y-108426288D01*
X144355166Y-108830065D01*
X144758943Y-109099860D01*
X145235231Y-109194600D01*
X145594769Y-109194600D01*
X146071057Y-109099860D01*
X146474834Y-108830065D01*
X146744629Y-108426288D01*
X146839369Y-107950000D01*
X146744629Y-107473712D01*
X146474834Y-107069935D01*
X146071057Y-106800140D01*
X145594769Y-106705400D01*
X145235231Y-106705400D01*
X144758943Y-106800140D01*
X144355166Y-107069935D01*
X144085371Y-107473712D01*
X143990631Y-107950000D01*
X141963417Y-107950000D01*
X141749624Y-107861226D01*
X141461639Y-107860975D01*
X141195479Y-107970950D01*
X141089243Y-108077000D01*
X131960743Y-108077000D01*
X131855592Y-107971665D01*
X131589624Y-107861226D01*
X131301639Y-107860975D01*
X131035479Y-107970950D01*
X130831665Y-108174408D01*
X130721226Y-108440376D01*
X130720975Y-108728361D01*
X130830950Y-108994521D01*
X131034408Y-109198335D01*
X131086583Y-109220000D01*
X128353420Y-109220000D01*
X125321781Y-106188361D01*
X126275975Y-106188361D01*
X126385950Y-106454521D01*
X126589408Y-106658335D01*
X126855376Y-106768774D01*
X127143361Y-106769025D01*
X127409521Y-106659050D01*
X127515757Y-106553000D01*
X134317204Y-106553000D01*
X134383068Y-106712403D01*
X134477500Y-106807000D01*
X133230743Y-106807000D01*
X133125592Y-106701665D01*
X132859624Y-106591226D01*
X132571639Y-106590975D01*
X132305479Y-106700950D01*
X132101665Y-106904408D01*
X131991226Y-107170376D01*
X131990975Y-107458361D01*
X132100950Y-107724521D01*
X132304408Y-107928335D01*
X132570376Y-108038774D01*
X132858361Y-108039025D01*
X133124521Y-107929050D01*
X133230757Y-107823000D01*
X138876474Y-107823000D01*
X139070877Y-107784331D01*
X139184338Y-107708518D01*
X139350197Y-107708663D01*
X139616357Y-107598688D01*
X139820171Y-107395230D01*
X139930610Y-107129262D01*
X139930861Y-106841277D01*
X139820886Y-106575117D01*
X139617428Y-106371303D01*
X139351460Y-106260864D01*
X139063475Y-106260613D01*
X138797315Y-106370588D01*
X138593501Y-106574046D01*
X138496771Y-106807000D01*
X135516763Y-106807000D01*
X135610453Y-106713474D01*
X135720892Y-106447506D01*
X135721143Y-106159521D01*
X135611168Y-105893361D01*
X135407710Y-105689547D01*
X135141742Y-105579108D01*
X134938521Y-105578931D01*
X134933639Y-105575669D01*
X134739236Y-105537000D01*
X127515743Y-105537000D01*
X127410592Y-105431665D01*
X127358417Y-105410000D01*
X143990631Y-105410000D01*
X144085371Y-105886288D01*
X144355166Y-106290065D01*
X144758943Y-106559860D01*
X145235231Y-106654600D01*
X145594769Y-106654600D01*
X146071057Y-106559860D01*
X146474834Y-106290065D01*
X146744629Y-105886288D01*
X146839369Y-105410000D01*
X146744629Y-104933712D01*
X146474834Y-104529935D01*
X146071057Y-104260140D01*
X145594769Y-104165400D01*
X145235231Y-104165400D01*
X144758943Y-104260140D01*
X144355166Y-104529935D01*
X144085371Y-104933712D01*
X143990631Y-105410000D01*
X127358417Y-105410000D01*
X127144624Y-105321226D01*
X126856639Y-105320975D01*
X126590479Y-105430950D01*
X126386665Y-105634408D01*
X126276226Y-105900376D01*
X126275975Y-106188361D01*
X125321781Y-106188361D01*
X124051781Y-104918361D01*
X125005975Y-104918361D01*
X125115950Y-105184521D01*
X125319408Y-105388335D01*
X125585376Y-105498774D01*
X125873361Y-105499025D01*
X126139521Y-105389050D01*
X126245757Y-105283000D01*
X136525000Y-105283000D01*
X136627134Y-105262684D01*
X136904460Y-105262926D01*
X137170620Y-105152951D01*
X137374434Y-104949493D01*
X137484873Y-104683525D01*
X137485124Y-104395540D01*
X137375149Y-104129380D01*
X137171691Y-103925566D01*
X136905723Y-103815127D01*
X136617738Y-103814876D01*
X136351578Y-103924851D01*
X136147764Y-104128309D01*
X136090175Y-104267000D01*
X126245743Y-104267000D01*
X126140592Y-104161665D01*
X125874624Y-104051226D01*
X125586639Y-104050975D01*
X125320479Y-104160950D01*
X125116665Y-104364408D01*
X125006226Y-104630376D01*
X125005975Y-104918361D01*
X124051781Y-104918361D01*
X123444000Y-104310580D01*
X123444000Y-102055231D01*
X125120400Y-102055231D01*
X125120400Y-102414769D01*
X125215140Y-102891057D01*
X125484935Y-103294834D01*
X125888712Y-103564629D01*
X126365000Y-103659369D01*
X126841288Y-103564629D01*
X127245065Y-103294834D01*
X127514860Y-102891057D01*
X127609600Y-102414769D01*
X127609600Y-102055231D01*
X127660400Y-102055231D01*
X127660400Y-102414769D01*
X127755140Y-102891057D01*
X128024935Y-103294834D01*
X128428712Y-103564629D01*
X128905000Y-103659369D01*
X129381288Y-103564629D01*
X129785065Y-103294834D01*
X130054860Y-102891057D01*
X130149600Y-102414769D01*
X130149600Y-102055231D01*
X130200400Y-102055231D01*
X130200400Y-102414769D01*
X130295140Y-102891057D01*
X130564935Y-103294834D01*
X130968712Y-103564629D01*
X131445000Y-103659369D01*
X131921288Y-103564629D01*
X132325065Y-103294834D01*
X132594860Y-102891057D01*
X132689600Y-102414769D01*
X132689600Y-102055231D01*
X132740400Y-102055231D01*
X132740400Y-102414769D01*
X132835140Y-102891057D01*
X133104935Y-103294834D01*
X133508712Y-103564629D01*
X133985000Y-103659369D01*
X134461288Y-103564629D01*
X134865065Y-103294834D01*
X135134860Y-102891057D01*
X135229600Y-102414769D01*
X135229600Y-102055231D01*
X135280400Y-102055231D01*
X135280400Y-102414769D01*
X135375140Y-102891057D01*
X135644935Y-103294834D01*
X136048712Y-103564629D01*
X136525000Y-103659369D01*
X137001288Y-103564629D01*
X137405065Y-103294834D01*
X137674860Y-102891057D01*
X137769600Y-102414769D01*
X137769600Y-102055231D01*
X137674860Y-101578943D01*
X137434354Y-101219000D01*
X137812936Y-101219000D01*
X137812936Y-103251000D01*
X137842506Y-103399659D01*
X137926714Y-103525686D01*
X138052741Y-103609894D01*
X138201400Y-103639464D01*
X139928600Y-103639464D01*
X140077259Y-103609894D01*
X140203286Y-103525686D01*
X140287494Y-103399659D01*
X140317064Y-103251000D01*
X140317064Y-102870000D01*
X143990631Y-102870000D01*
X144085371Y-103346288D01*
X144355166Y-103750065D01*
X144758943Y-104019860D01*
X145235231Y-104114600D01*
X145594769Y-104114600D01*
X146071057Y-104019860D01*
X146474834Y-103750065D01*
X146744629Y-103346288D01*
X146839369Y-102870000D01*
X146744629Y-102393712D01*
X146474834Y-101989935D01*
X146071057Y-101720140D01*
X145594769Y-101625400D01*
X145235231Y-101625400D01*
X144758943Y-101720140D01*
X144355166Y-101989935D01*
X144085371Y-102393712D01*
X143990631Y-102870000D01*
X140317064Y-102870000D01*
X140317064Y-101219000D01*
X140287494Y-101070341D01*
X140203286Y-100944314D01*
X140077259Y-100860106D01*
X139928600Y-100830536D01*
X138201400Y-100830536D01*
X138052741Y-100860106D01*
X137926714Y-100944314D01*
X137842506Y-101070341D01*
X137812936Y-101219000D01*
X137434354Y-101219000D01*
X137405065Y-101175166D01*
X137001288Y-100905371D01*
X136525000Y-100810631D01*
X136048712Y-100905371D01*
X135644935Y-101175166D01*
X135375140Y-101578943D01*
X135280400Y-102055231D01*
X135229600Y-102055231D01*
X135134860Y-101578943D01*
X134865065Y-101175166D01*
X134461288Y-100905371D01*
X133985000Y-100810631D01*
X133508712Y-100905371D01*
X133104935Y-101175166D01*
X132835140Y-101578943D01*
X132740400Y-102055231D01*
X132689600Y-102055231D01*
X132594860Y-101578943D01*
X132325065Y-101175166D01*
X131921288Y-100905371D01*
X131445000Y-100810631D01*
X130968712Y-100905371D01*
X130564935Y-101175166D01*
X130295140Y-101578943D01*
X130200400Y-102055231D01*
X130149600Y-102055231D01*
X130054860Y-101578943D01*
X129785065Y-101175166D01*
X129381288Y-100905371D01*
X128905000Y-100810631D01*
X128428712Y-100905371D01*
X128024935Y-101175166D01*
X127755140Y-101578943D01*
X127660400Y-102055231D01*
X127609600Y-102055231D01*
X127514860Y-101578943D01*
X127245065Y-101175166D01*
X126841288Y-100905371D01*
X126365000Y-100810631D01*
X125888712Y-100905371D01*
X125484935Y-101175166D01*
X125215140Y-101578943D01*
X125120400Y-102055231D01*
X123444000Y-102055231D01*
X123444000Y-93234361D01*
X125894975Y-93234361D01*
X126004950Y-93500521D01*
X126111000Y-93606757D01*
X126111000Y-98127436D01*
X126149669Y-98321839D01*
X126259790Y-98486646D01*
X128208342Y-100435198D01*
X128373149Y-100545319D01*
X128567552Y-100583988D01*
X140200257Y-100583988D01*
X140305408Y-100689323D01*
X140571376Y-100799762D01*
X140859361Y-100800013D01*
X141125521Y-100690038D01*
X141329335Y-100486580D01*
X141439774Y-100220612D01*
X141440025Y-99932627D01*
X141330050Y-99666467D01*
X141126592Y-99462653D01*
X140860624Y-99352214D01*
X140572639Y-99351963D01*
X140306479Y-99461938D01*
X140200243Y-99567988D01*
X139563624Y-99567988D01*
X139661774Y-99331616D01*
X139662025Y-99043631D01*
X139552050Y-98777471D01*
X139348592Y-98573657D01*
X139082624Y-98463218D01*
X138794639Y-98462967D01*
X138528479Y-98572942D01*
X138422243Y-98678992D01*
X130258412Y-98678992D01*
X129032000Y-97452580D01*
X129032000Y-91694024D01*
X128993331Y-91499621D01*
X128883210Y-91334814D01*
X128358871Y-90810475D01*
X128359001Y-90661639D01*
X128249026Y-90395479D01*
X128045568Y-90191665D01*
X127779600Y-90081226D01*
X127491615Y-90080975D01*
X127225455Y-90190950D01*
X127021641Y-90394408D01*
X126911202Y-90660376D01*
X126910951Y-90948361D01*
X127020926Y-91214521D01*
X127224384Y-91418335D01*
X127490352Y-91528774D01*
X127640461Y-91528905D01*
X128016000Y-91904444D01*
X128016000Y-97663000D01*
X128054669Y-97857403D01*
X128164790Y-98022210D01*
X129688782Y-99546202D01*
X129721387Y-99567988D01*
X128777972Y-99567988D01*
X127127000Y-97917016D01*
X127127000Y-93606743D01*
X127232335Y-93501592D01*
X127342774Y-93235624D01*
X127343025Y-92947639D01*
X127233050Y-92681479D01*
X127029592Y-92477665D01*
X126763624Y-92367226D01*
X126475639Y-92366975D01*
X126209479Y-92476950D01*
X126005665Y-92680408D01*
X125895226Y-92946376D01*
X125894975Y-93234361D01*
X123444000Y-93234361D01*
X123444000Y-92209743D01*
X123549335Y-92104592D01*
X123659774Y-91838624D01*
X123660025Y-91550639D01*
X123550050Y-91284479D01*
X123346592Y-91080665D01*
X123080624Y-90970226D01*
X122792639Y-90969975D01*
X122526479Y-91079950D01*
X122322665Y-91283408D01*
X122212226Y-91549376D01*
X122211975Y-91837361D01*
X122316741Y-92090913D01*
X122064624Y-91986226D01*
X121776639Y-91985975D01*
X121510479Y-92095950D01*
X121306665Y-92299408D01*
X121196226Y-92565376D01*
X121195975Y-92853361D01*
X118843464Y-92853361D01*
X118843464Y-90959940D01*
X118813894Y-90811281D01*
X118729686Y-90685254D01*
X118603659Y-90601046D01*
X118455000Y-90571476D01*
X113955000Y-90571476D01*
X113806341Y-90601046D01*
X113680314Y-90685254D01*
X113596106Y-90811281D01*
X113566536Y-90959940D01*
X112836520Y-90959940D01*
X112836520Y-90884155D01*
X112778516Y-90744121D01*
X112671340Y-90636944D01*
X112531306Y-90578940D01*
X110427770Y-90578940D01*
X110332520Y-90674190D01*
X110078520Y-90674190D01*
X109983270Y-90578940D01*
X107879734Y-90578940D01*
X107739700Y-90636944D01*
X107632524Y-90744121D01*
X107574520Y-90884155D01*
X104596000Y-90884155D01*
X104596000Y-87646359D01*
X141261975Y-87646359D01*
X141371950Y-87912519D01*
X141575408Y-88116333D01*
X141841376Y-88226772D01*
X141991484Y-88226903D01*
X142113000Y-88348419D01*
X142113000Y-96512257D01*
X142007665Y-96617408D01*
X141897226Y-96883376D01*
X141896975Y-97171361D01*
X142006950Y-97437521D01*
X142210408Y-97641335D01*
X142476376Y-97751774D01*
X142764361Y-97752025D01*
X142875000Y-97706310D01*
X142875000Y-98971080D01*
X142731639Y-98970955D01*
X142465479Y-99080930D01*
X142261665Y-99284388D01*
X142151226Y-99550356D01*
X142150975Y-99838341D01*
X142260950Y-100104501D01*
X142464408Y-100308315D01*
X142730376Y-100418754D01*
X143018361Y-100419005D01*
X143233769Y-100330000D01*
X143990631Y-100330000D01*
X144085371Y-100806288D01*
X144355166Y-101210065D01*
X144758943Y-101479860D01*
X145235231Y-101574600D01*
X145594769Y-101574600D01*
X146071057Y-101479860D01*
X146474834Y-101210065D01*
X146744629Y-100806288D01*
X146839369Y-100330000D01*
X146744629Y-99853712D01*
X146474834Y-99449935D01*
X146071057Y-99180140D01*
X145594769Y-99085400D01*
X145235231Y-99085400D01*
X144758943Y-99180140D01*
X144355166Y-99449935D01*
X144085371Y-99853712D01*
X143990631Y-100330000D01*
X143233769Y-100330000D01*
X143284521Y-100309030D01*
X143488335Y-100105572D01*
X143598774Y-99839604D01*
X143598905Y-99689516D01*
X143742210Y-99546211D01*
X143852330Y-99381404D01*
X143852331Y-99381403D01*
X143891000Y-99187000D01*
X143891000Y-97790000D01*
X143990631Y-97790000D01*
X144085371Y-98266288D01*
X144355166Y-98670065D01*
X144758943Y-98939860D01*
X145235231Y-99034600D01*
X145594769Y-99034600D01*
X146071057Y-98939860D01*
X146474834Y-98670065D01*
X146744629Y-98266288D01*
X146839369Y-97790000D01*
X146744629Y-97313712D01*
X146474834Y-96909935D01*
X146071057Y-96640140D01*
X145594769Y-96545400D01*
X145235231Y-96545400D01*
X144758943Y-96640140D01*
X144355166Y-96909935D01*
X144085371Y-97313712D01*
X143990631Y-97790000D01*
X143891000Y-97790000D01*
X143891000Y-95250000D01*
X143990631Y-95250000D01*
X144085371Y-95726288D01*
X144355166Y-96130065D01*
X144758943Y-96399860D01*
X145235231Y-96494600D01*
X145594769Y-96494600D01*
X146071057Y-96399860D01*
X146474834Y-96130065D01*
X146744629Y-95726288D01*
X146839369Y-95250000D01*
X146757268Y-94837250D01*
X160059000Y-94837250D01*
X160059000Y-95540785D01*
X160117004Y-95680819D01*
X160224180Y-95787996D01*
X160364214Y-95846000D01*
X161067750Y-95846000D01*
X161163000Y-95750750D01*
X161163000Y-94742000D01*
X161417000Y-94742000D01*
X161417000Y-95750750D01*
X161512250Y-95846000D01*
X162215786Y-95846000D01*
X162355820Y-95787996D01*
X162462996Y-95680819D01*
X162521000Y-95540785D01*
X162521000Y-94837250D01*
X162425750Y-94742000D01*
X161417000Y-94742000D01*
X161163000Y-94742000D01*
X160154250Y-94742000D01*
X160059000Y-94837250D01*
X146757268Y-94837250D01*
X146744629Y-94773712D01*
X146474834Y-94369935D01*
X146071057Y-94100140D01*
X145594769Y-94005400D01*
X145235231Y-94005400D01*
X144758943Y-94100140D01*
X144355166Y-94369935D01*
X144085371Y-94773712D01*
X143990631Y-95250000D01*
X143891000Y-95250000D01*
X143891000Y-92932250D01*
X144018000Y-92932250D01*
X144018000Y-93649385D01*
X144076004Y-93789419D01*
X144183180Y-93896596D01*
X144323214Y-93954600D01*
X145192750Y-93954600D01*
X145288000Y-93859350D01*
X145288000Y-92837000D01*
X145542000Y-92837000D01*
X145542000Y-93859350D01*
X145637250Y-93954600D01*
X146506786Y-93954600D01*
X146646820Y-93896596D01*
X146753996Y-93789419D01*
X146795501Y-93689215D01*
X160059000Y-93689215D01*
X160059000Y-94392750D01*
X160154250Y-94488000D01*
X161163000Y-94488000D01*
X161163000Y-93479250D01*
X161417000Y-93479250D01*
X161417000Y-94488000D01*
X162425750Y-94488000D01*
X162521000Y-94392750D01*
X162521000Y-93689215D01*
X162462996Y-93549181D01*
X162355820Y-93442004D01*
X162215786Y-93384000D01*
X161512250Y-93384000D01*
X161417000Y-93479250D01*
X161163000Y-93479250D01*
X161067750Y-93384000D01*
X160364214Y-93384000D01*
X160224180Y-93442004D01*
X160117004Y-93549181D01*
X160059000Y-93689215D01*
X146795501Y-93689215D01*
X146812000Y-93649385D01*
X146812000Y-92932250D01*
X146716750Y-92837000D01*
X145542000Y-92837000D01*
X145288000Y-92837000D01*
X144113250Y-92837000D01*
X144018000Y-92932250D01*
X143891000Y-92932250D01*
X143891000Y-91770615D01*
X144018000Y-91770615D01*
X144018000Y-92487750D01*
X144113250Y-92583000D01*
X145288000Y-92583000D01*
X145288000Y-91560650D01*
X145542000Y-91560650D01*
X145542000Y-92583000D01*
X146716750Y-92583000D01*
X146812000Y-92487750D01*
X146812000Y-92075000D01*
X160034883Y-92075000D01*
X160128587Y-92546083D01*
X160395435Y-92945448D01*
X160794800Y-93212296D01*
X161265883Y-93306000D01*
X161314117Y-93306000D01*
X161785200Y-93212296D01*
X162184565Y-92945448D01*
X162451413Y-92546083D01*
X162545117Y-92075000D01*
X162451413Y-91603917D01*
X162184565Y-91204552D01*
X161785200Y-90937704D01*
X161314117Y-90844000D01*
X161265883Y-90844000D01*
X160794800Y-90937704D01*
X160395435Y-91204552D01*
X160128587Y-91603917D01*
X160034883Y-92075000D01*
X146812000Y-92075000D01*
X146812000Y-91770615D01*
X146753996Y-91630581D01*
X146646820Y-91523404D01*
X146506786Y-91465400D01*
X145637250Y-91465400D01*
X145542000Y-91560650D01*
X145288000Y-91560650D01*
X145192750Y-91465400D01*
X144323214Y-91465400D01*
X144183180Y-91523404D01*
X144076004Y-91630581D01*
X144018000Y-91770615D01*
X143891000Y-91770615D01*
X143891000Y-89535000D01*
X160034883Y-89535000D01*
X160128587Y-90006083D01*
X160395435Y-90405448D01*
X160794800Y-90672296D01*
X161265883Y-90766000D01*
X161314117Y-90766000D01*
X161785200Y-90672296D01*
X162184565Y-90405448D01*
X162451413Y-90006083D01*
X162545117Y-89535000D01*
X162451413Y-89063917D01*
X162184565Y-88664552D01*
X161785200Y-88397704D01*
X161314117Y-88304000D01*
X161265883Y-88304000D01*
X160794800Y-88397704D01*
X160395435Y-88664552D01*
X160128587Y-89063917D01*
X160034883Y-89535000D01*
X143891000Y-89535000D01*
X143891000Y-87383735D01*
X143996335Y-87278584D01*
X144106774Y-87012616D01*
X144106789Y-86995000D01*
X160034883Y-86995000D01*
X160128587Y-87466083D01*
X160395435Y-87865448D01*
X160794800Y-88132296D01*
X161265883Y-88226000D01*
X161314117Y-88226000D01*
X161785200Y-88132296D01*
X162184565Y-87865448D01*
X162451413Y-87466083D01*
X162545117Y-86995000D01*
X162451413Y-86523917D01*
X162184565Y-86124552D01*
X161785200Y-85857704D01*
X161314117Y-85764000D01*
X161265883Y-85764000D01*
X160794800Y-85857704D01*
X160395435Y-86124552D01*
X160128587Y-86523917D01*
X160034883Y-86995000D01*
X144106789Y-86995000D01*
X144107025Y-86724631D01*
X143997050Y-86458471D01*
X143793592Y-86254657D01*
X143527624Y-86144218D01*
X143239639Y-86143967D01*
X142973479Y-86253942D01*
X142769665Y-86457400D01*
X142659226Y-86723368D01*
X142658975Y-87011353D01*
X142768950Y-87277513D01*
X142875000Y-87383749D01*
X142875000Y-87673577D01*
X142709895Y-87508473D01*
X142710025Y-87359637D01*
X142600050Y-87093477D01*
X142396592Y-86889663D01*
X142130624Y-86779224D01*
X141842639Y-86778973D01*
X141576479Y-86888948D01*
X141372665Y-87092406D01*
X141262226Y-87358374D01*
X141261975Y-87646359D01*
X104596000Y-87646359D01*
X104596000Y-85468742D01*
X108235863Y-85468742D01*
X108348485Y-85664146D01*
X108866126Y-85848217D01*
X109414806Y-85820184D01*
X109791515Y-85664146D01*
X109904137Y-85468742D01*
X114735863Y-85468742D01*
X114848485Y-85664146D01*
X115366126Y-85848217D01*
X115914806Y-85820184D01*
X116291515Y-85664146D01*
X116404137Y-85468742D01*
X115570000Y-84634605D01*
X114735863Y-85468742D01*
X109904137Y-85468742D01*
X109070000Y-84634605D01*
X108235863Y-85468742D01*
X104596000Y-85468742D01*
X104596000Y-84251126D01*
X107676783Y-84251126D01*
X107704816Y-84799806D01*
X107860854Y-85176515D01*
X108056258Y-85289137D01*
X108890395Y-84455000D01*
X109249605Y-84455000D01*
X110083742Y-85289137D01*
X110279146Y-85176515D01*
X110463217Y-84658874D01*
X110442385Y-84251126D01*
X114176783Y-84251126D01*
X114204816Y-84799806D01*
X114360854Y-85176515D01*
X114556258Y-85289137D01*
X115390395Y-84455000D01*
X115749605Y-84455000D01*
X116583742Y-85289137D01*
X116779146Y-85176515D01*
X116918902Y-84783493D01*
X148328761Y-84783493D01*
X148538563Y-85291251D01*
X148926705Y-85680072D01*
X149434097Y-85890759D01*
X149983493Y-85891239D01*
X150491251Y-85681437D01*
X150880072Y-85293295D01*
X151090759Y-84785903D01*
X151090761Y-84783493D01*
X154828761Y-84783493D01*
X155038563Y-85291251D01*
X155426705Y-85680072D01*
X155934097Y-85890759D01*
X156483493Y-85891239D01*
X156991251Y-85681437D01*
X157380072Y-85293295D01*
X157590759Y-84785903D01*
X157591048Y-84455000D01*
X160034883Y-84455000D01*
X160128587Y-84926083D01*
X160395435Y-85325448D01*
X160794800Y-85592296D01*
X161265883Y-85686000D01*
X161314117Y-85686000D01*
X161785200Y-85592296D01*
X162184565Y-85325448D01*
X162451413Y-84926083D01*
X162545117Y-84455000D01*
X162451413Y-83983917D01*
X162184565Y-83584552D01*
X161785200Y-83317704D01*
X161314117Y-83224000D01*
X161265883Y-83224000D01*
X160794800Y-83317704D01*
X160395435Y-83584552D01*
X160128587Y-83983917D01*
X160034883Y-84455000D01*
X157591048Y-84455000D01*
X157591239Y-84236507D01*
X157381437Y-83728749D01*
X156993295Y-83339928D01*
X156485903Y-83129241D01*
X155936507Y-83128761D01*
X155428749Y-83338563D01*
X155039928Y-83726705D01*
X154829241Y-84234097D01*
X154828761Y-84783493D01*
X151090761Y-84783493D01*
X151091239Y-84236507D01*
X150881437Y-83728749D01*
X150493295Y-83339928D01*
X149985903Y-83129241D01*
X149436507Y-83128761D01*
X148928749Y-83338563D01*
X148539928Y-83726705D01*
X148329241Y-84234097D01*
X148328761Y-84783493D01*
X116918902Y-84783493D01*
X116963217Y-84658874D01*
X116935184Y-84110194D01*
X116779146Y-83733485D01*
X116583742Y-83620863D01*
X115749605Y-84455000D01*
X115390395Y-84455000D01*
X114556258Y-83620863D01*
X114360854Y-83733485D01*
X114176783Y-84251126D01*
X110442385Y-84251126D01*
X110435184Y-84110194D01*
X110279146Y-83733485D01*
X110083742Y-83620863D01*
X109249605Y-84455000D01*
X108890395Y-84455000D01*
X108056258Y-83620863D01*
X107860854Y-83733485D01*
X107676783Y-84251126D01*
X104596000Y-84251126D01*
X104596000Y-83441258D01*
X108235863Y-83441258D01*
X109070000Y-84275395D01*
X109904137Y-83441258D01*
X114735863Y-83441258D01*
X115570000Y-84275395D01*
X116404137Y-83441258D01*
X116291515Y-83245854D01*
X115773874Y-83061783D01*
X115225194Y-83089816D01*
X114848485Y-83245854D01*
X114735863Y-83441258D01*
X109904137Y-83441258D01*
X109791515Y-83245854D01*
X109273874Y-83061783D01*
X108725194Y-83089816D01*
X108348485Y-83245854D01*
X108235863Y-83441258D01*
X104596000Y-83441258D01*
X104596000Y-81915000D01*
X160034883Y-81915000D01*
X160128587Y-82386083D01*
X160395435Y-82785448D01*
X160794800Y-83052296D01*
X161265883Y-83146000D01*
X161314117Y-83146000D01*
X161785200Y-83052296D01*
X162184565Y-82785448D01*
X162451413Y-82386083D01*
X162545117Y-81915000D01*
X162451413Y-81443917D01*
X162184565Y-81044552D01*
X161785200Y-80777704D01*
X161314117Y-80684000D01*
X161265883Y-80684000D01*
X160794800Y-80777704D01*
X160395435Y-81044552D01*
X160128587Y-81443917D01*
X160034883Y-81915000D01*
X104596000Y-81915000D01*
X104596000Y-80228493D01*
X107688761Y-80228493D01*
X107898563Y-80736251D01*
X108286705Y-81125072D01*
X108794097Y-81335759D01*
X109343493Y-81336239D01*
X109851251Y-81126437D01*
X110240072Y-80738295D01*
X110450759Y-80230903D01*
X110450761Y-80228493D01*
X114188761Y-80228493D01*
X114398563Y-80736251D01*
X114786705Y-81125072D01*
X115294097Y-81335759D01*
X115843493Y-81336239D01*
X116351251Y-81126437D01*
X116454125Y-81023742D01*
X148875863Y-81023742D01*
X148988485Y-81219146D01*
X149506126Y-81403217D01*
X150054806Y-81375184D01*
X150431515Y-81219146D01*
X150544137Y-81023742D01*
X155375863Y-81023742D01*
X155488485Y-81219146D01*
X156006126Y-81403217D01*
X156554806Y-81375184D01*
X156931515Y-81219146D01*
X157044137Y-81023742D01*
X156210000Y-80189605D01*
X155375863Y-81023742D01*
X150544137Y-81023742D01*
X149710000Y-80189605D01*
X148875863Y-81023742D01*
X116454125Y-81023742D01*
X116740072Y-80738295D01*
X116950759Y-80230903D01*
X116951130Y-79806126D01*
X148316783Y-79806126D01*
X148344816Y-80354806D01*
X148500854Y-80731515D01*
X148696258Y-80844137D01*
X149530395Y-80010000D01*
X149889605Y-80010000D01*
X150723742Y-80844137D01*
X150919146Y-80731515D01*
X151103217Y-80213874D01*
X151082385Y-79806126D01*
X154816783Y-79806126D01*
X154844816Y-80354806D01*
X155000854Y-80731515D01*
X155196258Y-80844137D01*
X156030395Y-80010000D01*
X156389605Y-80010000D01*
X157223742Y-80844137D01*
X157419146Y-80731515D01*
X157603217Y-80213874D01*
X157575184Y-79665194D01*
X157419146Y-79288485D01*
X157223742Y-79175863D01*
X156389605Y-80010000D01*
X156030395Y-80010000D01*
X155196258Y-79175863D01*
X155000854Y-79288485D01*
X154816783Y-79806126D01*
X151082385Y-79806126D01*
X151075184Y-79665194D01*
X150919146Y-79288485D01*
X150723742Y-79175863D01*
X149889605Y-80010000D01*
X149530395Y-80010000D01*
X148696258Y-79175863D01*
X148500854Y-79288485D01*
X148316783Y-79806126D01*
X116951130Y-79806126D01*
X116951239Y-79681507D01*
X116741437Y-79173749D01*
X116353295Y-78784928D01*
X115845903Y-78574241D01*
X115296507Y-78573761D01*
X114788749Y-78783563D01*
X114399928Y-79171705D01*
X114189241Y-79679097D01*
X114188761Y-80228493D01*
X110450761Y-80228493D01*
X110451239Y-79681507D01*
X110241437Y-79173749D01*
X109853295Y-78784928D01*
X109345903Y-78574241D01*
X108796507Y-78573761D01*
X108288749Y-78783563D01*
X107899928Y-79171705D01*
X107689241Y-79679097D01*
X107688761Y-80228493D01*
X104596000Y-80228493D01*
X104596000Y-76656000D01*
X120523000Y-76656000D01*
X120523000Y-79375000D01*
M02*
